<svg width="499" height="456" viewBox="0 0 499 456" fill="none" xmlns="http://www.w3.org/2000/svg">
<rect x="265.064" y="244.726" width="233" height="211" rx="12" fill="#C9F7F5"/>
<path d="M319.728 400.432C320.624 400.592 321.384 401.064 322.008 401.848C322.632 402.632 322.944 403.52 322.944 404.512C322.944 405.36 322.72 406.128 322.272 406.816C321.84 407.488 321.208 408.024 320.376 408.424C319.544 408.808 318.576 409 317.472 409H310.8V392.32H317.16C318.296 392.32 319.272 392.512 320.088 392.896C320.904 393.28 321.52 393.8 321.936 394.456C322.352 395.096 322.56 395.816 322.56 396.616C322.56 397.576 322.304 398.376 321.792 399.016C321.28 399.656 320.592 400.128 319.728 400.432ZM313.536 399.328H316.92C317.816 399.328 318.512 399.128 319.008 398.728C319.52 398.312 319.776 397.72 319.776 396.952C319.776 396.2 319.52 395.616 319.008 395.2C318.512 394.768 317.816 394.552 316.92 394.552H313.536V399.328ZM317.232 406.768C318.16 406.768 318.888 406.544 319.416 406.096C319.944 405.648 320.208 405.024 320.208 404.224C320.208 403.408 319.928 402.76 319.368 402.28C318.808 401.8 318.064 401.56 317.136 401.56H313.536V406.768H317.232ZM337.893 395.776V409H335.157V407.44C334.725 407.984 334.157 408.416 333.453 408.736C332.765 409.04 332.029 409.192 331.245 409.192C330.205 409.192 329.269 408.976 328.437 408.544C327.621 408.112 326.973 407.472 326.493 406.624C326.029 405.776 325.797 404.752 325.797 403.552V395.776H328.509V403.144C328.509 404.328 328.805 405.24 329.397 405.88C329.989 406.504 330.797 406.816 331.821 406.816C332.845 406.816 333.653 406.504 334.245 405.88C334.853 405.24 335.157 404.328 335.157 403.144V395.776H337.893ZM346.831 395.56C347.855 395.56 348.759 395.768 349.543 396.184C350.343 396.584 350.967 397.088 351.415 397.696V395.776H354.175V409.216C354.175 410.432 353.919 411.512 353.407 412.456C352.895 413.416 352.151 414.168 351.175 414.712C350.215 415.256 349.063 415.528 347.719 415.528C345.927 415.528 344.439 415.104 343.255 414.256C342.071 413.424 341.399 412.288 341.239 410.848H343.951C344.159 411.536 344.599 412.088 345.271 412.504C345.959 412.936 346.775 413.152 347.719 413.152C348.823 413.152 349.711 412.816 350.383 412.144C351.071 411.472 351.415 410.496 351.415 409.216V407.008C350.951 407.632 350.319 408.16 349.519 408.592C348.735 409.008 347.839 409.216 346.831 409.216C345.679 409.216 344.623 408.928 343.663 408.352C342.719 407.76 341.967 406.944 341.407 405.904C340.863 404.848 340.591 403.656 340.591 402.328C340.591 401 340.863 399.824 341.407 398.8C341.967 397.776 342.719 396.984 343.663 396.424C344.623 395.848 345.679 395.56 346.831 395.56ZM351.415 402.376C351.415 401.464 351.223 400.672 350.839 400C350.471 399.328 349.983 398.816 349.375 398.464C348.767 398.112 348.111 397.936 347.407 397.936C346.703 397.936 346.047 398.112 345.439 398.464C344.831 398.8 344.335 399.304 343.951 399.976C343.583 400.632 343.399 401.416 343.399 402.328C343.399 403.24 343.583 404.04 343.951 404.728C344.335 405.416 344.831 405.944 345.439 406.312C346.063 406.664 346.719 406.84 347.407 406.84C348.111 406.84 348.767 406.664 349.375 406.312C349.983 405.96 350.471 405.448 350.839 404.776C351.223 404.088 351.415 403.288 351.415 402.376ZM372.667 409L368.827 402.328H366.739V409H364.003V392.32H369.763C371.043 392.32 372.123 392.544 373.003 392.992C373.899 393.44 374.563 394.04 374.995 394.792C375.443 395.544 375.667 396.384 375.667 397.312C375.667 398.4 375.347 399.392 374.707 400.288C374.083 401.168 373.115 401.768 371.803 402.088L375.931 409H372.667ZM366.739 400.144H369.763C370.787 400.144 371.555 399.888 372.067 399.376C372.595 398.864 372.859 398.176 372.859 397.312C372.859 396.448 372.603 395.776 372.091 395.296C371.579 394.8 370.803 394.552 369.763 394.552H366.739V400.144ZM391.287 402.064C391.287 402.56 391.255 403.008 391.191 403.408H381.087C381.167 404.464 381.559 405.312 382.263 405.952C382.967 406.592 383.831 406.912 384.855 406.912C386.327 406.912 387.367 406.296 387.975 405.064H390.927C390.527 406.28 389.799 407.28 388.743 408.064C387.703 408.832 386.407 409.216 384.855 409.216C383.591 409.216 382.455 408.936 381.447 408.376C380.455 407.8 379.671 407 379.095 405.976C378.535 404.936 378.255 403.736 378.255 402.376C378.255 401.016 378.527 399.824 379.071 398.8C379.631 397.76 380.407 396.96 381.399 396.4C382.407 395.84 383.559 395.56 384.855 395.56C386.103 395.56 387.215 395.832 388.191 396.376C389.167 396.92 389.927 397.688 390.471 398.68C391.015 399.656 391.287 400.784 391.287 402.064ZM388.431 401.2C388.415 400.192 388.055 399.384 387.351 398.776C386.647 398.168 385.775 397.864 384.735 397.864C383.791 397.864 382.983 398.168 382.311 398.776C381.639 399.368 381.239 400.176 381.111 401.2H388.431ZM396.716 397.72C397.18 397.112 397.812 396.6 398.612 396.184C399.412 395.768 400.316 395.56 401.324 395.56C402.476 395.56 403.524 395.848 404.468 396.424C405.428 396.984 406.18 397.776 406.724 398.8C407.268 399.824 407.54 401 407.54 402.328C407.54 403.656 407.268 404.848 406.724 405.904C406.18 406.944 405.428 407.76 404.468 408.352C403.524 408.928 402.476 409.216 401.324 409.216C400.316 409.216 399.42 409.016 398.636 408.616C397.852 408.2 397.212 407.688 396.716 407.08V415.288H393.98V395.776H396.716V397.72ZM404.756 402.328C404.756 401.416 404.564 400.632 404.18 399.976C403.812 399.304 403.316 398.8 402.692 398.464C402.084 398.112 401.428 397.936 400.724 397.936C400.036 397.936 399.38 398.112 398.756 398.464C398.148 398.816 397.652 399.328 397.268 400C396.9 400.672 396.716 401.464 396.716 402.376C396.716 403.288 396.9 404.088 397.268 404.776C397.652 405.448 398.148 405.96 398.756 406.312C399.38 406.664 400.036 406.84 400.724 406.84C401.428 406.84 402.084 406.664 402.692 406.312C403.316 405.944 403.812 405.416 404.18 404.728C404.564 404.04 404.756 403.24 404.756 402.328ZM415.981 409.216C414.733 409.216 413.605 408.936 412.597 408.376C411.589 407.8 410.797 407 410.221 405.976C409.645 404.936 409.357 403.736 409.357 402.376C409.357 401.032 409.653 399.84 410.245 398.8C410.837 397.76 411.645 396.96 412.669 396.4C413.693 395.84 414.837 395.56 416.101 395.56C417.365 395.56 418.509 395.84 419.533 396.4C420.557 396.96 421.365 397.76 421.957 398.8C422.549 399.84 422.845 401.032 422.845 402.376C422.845 403.72 422.541 404.912 421.933 405.952C421.325 406.992 420.493 407.8 419.437 408.376C418.397 408.936 417.245 409.216 415.981 409.216ZM415.981 406.84C416.685 406.84 417.341 406.672 417.949 406.336C418.573 406 419.077 405.496 419.461 404.824C419.845 404.152 420.037 403.336 420.037 402.376C420.037 401.416 419.853 400.608 419.485 399.952C419.117 399.28 418.629 398.776 418.021 398.44C417.413 398.104 416.757 397.936 416.053 397.936C415.349 397.936 414.693 398.104 414.085 398.44C413.493 398.776 413.021 399.28 412.669 399.952C412.317 400.608 412.141 401.416 412.141 402.376C412.141 403.8 412.501 404.904 413.221 405.688C413.957 406.456 414.877 406.84 415.981 406.84ZM428.286 397.696C428.686 397.024 429.214 396.504 429.87 396.136C430.542 395.752 431.334 395.56 432.246 395.56V398.392H431.55C430.478 398.392 429.662 398.664 429.102 399.208C428.558 399.752 428.286 400.696 428.286 402.04V409H425.55V395.776H428.286V397.696ZM437.953 398.008V405.328C437.953 405.824 438.065 406.184 438.289 406.408C438.529 406.616 438.929 406.72 439.489 406.72H441.169V409H439.009C437.777 409 436.833 408.712 436.177 408.136C435.521 407.56 435.193 406.624 435.193 405.328V398.008H433.633V395.776H435.193V392.488H437.953V395.776H441.169V398.008H437.953ZM448.491 409.216C447.451 409.216 446.515 409.032 445.683 408.664C444.867 408.28 444.219 407.768 443.739 407.128C443.259 406.472 443.003 405.744 442.971 404.944H445.803C445.851 405.504 446.115 405.976 446.595 406.36C447.091 406.728 447.707 406.912 448.443 406.912C449.211 406.912 449.803 406.768 450.219 406.48C450.651 406.176 450.867 405.792 450.867 405.328C450.867 404.832 450.627 404.464 450.147 404.224C449.683 403.984 448.939 403.72 447.915 403.432C446.923 403.16 446.115 402.896 445.491 402.64C444.867 402.384 444.323 401.992 443.859 401.464C443.411 400.936 443.187 400.24 443.187 399.376C443.187 398.672 443.395 398.032 443.811 397.456C444.227 396.864 444.819 396.4 445.587 396.064C446.371 395.728 447.267 395.56 448.275 395.56C449.779 395.56 450.987 395.944 451.899 396.712C452.827 397.464 453.323 398.496 453.387 399.808H450.651C450.603 399.216 450.363 398.744 449.931 398.392C449.499 398.04 448.915 397.864 448.179 397.864C447.459 397.864 446.907 398 446.523 398.272C446.139 398.544 445.947 398.904 445.947 399.352C445.947 399.704 446.075 400 446.331 400.24C446.587 400.48 446.899 400.672 447.267 400.816C447.635 400.944 448.179 401.112 448.899 401.32C449.859 401.576 450.643 401.84 451.251 402.112C451.875 402.368 452.411 402.752 452.859 403.264C453.307 403.776 453.539 404.456 453.555 405.304C453.555 406.056 453.347 406.728 452.931 407.32C452.515 407.912 451.923 408.376 451.155 408.712C450.403 409.048 449.515 409.216 448.491 409.216Z" fill="#74BBB7"/>
<path opacity="0.3" fill-rule="evenodd" clip-rule="evenodd" d="M385.133 339.433L398.458 321.31H388.464V303.186L368.476 330.371H378.47V339.433H354.984C352.5 339.433 350.487 337.405 350.487 334.902V289.593C350.487 287.09 352.5 285.062 354.984 285.062H408.952C411.436 285.062 413.449 287.09 413.449 289.593V334.902C413.449 337.405 411.436 339.433 408.952 339.433H385.133Z" fill="#1BC5BC"/>
<path fill-rule="evenodd" clip-rule="evenodd" d="M372.093 325.452L368.476 330.372H378.47V348.496L398.458 321.31H397.536L418.879 305.78C419.885 305.048 421.291 305.276 422.018 306.29C422.295 306.676 422.444 307.141 422.444 307.617V353.027C422.444 358.031 418.417 362.089 413.449 362.089H350.487C345.519 362.089 341.492 358.031 341.492 353.027V307.617C341.492 306.366 342.499 305.351 343.741 305.351C344.214 305.351 344.674 305.501 345.057 305.78L372.093 325.452Z" fill="#1BC5BC"/>
<rect y="244.726" width="232.935" height="211.274" rx="12" fill="#FFE2E6"/>
<path opacity="0.35" d="M48.536 393.32V410H45.8V393.32H48.536ZM55.3201 399.008V406.328C55.3201 406.824 55.4321 407.184 55.6561 407.408C55.8961 407.616 56.2961 407.72 56.8561 407.72H58.5361V410H56.3761C55.1441 410 54.2001 409.712 53.5441 409.136C52.8881 408.56 52.5601 407.624 52.5601 406.328V399.008H51.0001V396.776H52.5601V393.488H55.3201V396.776H58.5361V399.008H55.3201ZM73.1778 403.064C73.1778 403.56 73.1458 404.008 73.0818 404.408H62.9778C63.0578 405.464 63.4498 406.312 64.1538 406.952C64.8578 407.592 65.7218 407.912 66.7458 407.912C68.2178 407.912 69.2578 407.296 69.8658 406.064H72.8178C72.4178 407.28 71.6898 408.28 70.6338 409.064C69.5938 409.832 68.2978 410.216 66.7458 410.216C65.4818 410.216 64.3458 409.936 63.3378 409.376C62.3458 408.8 61.5618 408 60.9858 406.976C60.4258 405.936 60.1458 404.736 60.1458 403.376C60.1458 402.016 60.4178 400.824 60.9618 399.8C61.5218 398.76 62.2978 397.96 63.2898 397.4C64.2978 396.84 65.4498 396.56 66.7458 396.56C67.9938 396.56 69.1058 396.832 70.0818 397.376C71.0578 397.92 71.8178 398.688 72.3618 399.68C72.9058 400.656 73.1778 401.784 73.1778 403.064ZM70.3218 402.2C70.3058 401.192 69.9458 400.384 69.2418 399.776C68.5378 399.168 67.6658 398.864 66.6258 398.864C65.6818 398.864 64.8738 399.168 64.2018 399.776C63.5298 400.368 63.1298 401.176 63.0018 402.2H70.3218ZM91.8783 396.56C92.9183 396.56 93.8463 396.776 94.6623 397.208C95.4943 397.64 96.1423 398.28 96.6063 399.128C97.0863 399.976 97.3263 401 97.3263 402.2V410H94.6143V402.608C94.6143 401.424 94.3183 400.52 93.7263 399.896C93.1343 399.256 92.3263 398.936 91.3023 398.936C90.2783 398.936 89.4623 399.256 88.8543 399.896C88.2623 400.52 87.9663 401.424 87.9663 402.608V410H85.2543V402.608C85.2543 401.424 84.9583 400.52 84.3663 399.896C83.7743 399.256 82.9663 398.936 81.9423 398.936C80.9183 398.936 80.1023 399.256 79.4943 399.896C78.9023 400.52 78.6063 401.424 78.6063 402.608V410H75.8703V396.776H78.6063V398.288C79.0543 397.744 79.6223 397.32 80.3103 397.016C80.9983 396.712 81.7343 396.56 82.5183 396.56C83.5743 396.56 84.5183 396.784 85.3503 397.232C86.1823 397.68 86.8223 398.328 87.2703 399.176C87.6703 398.376 88.2943 397.744 89.1423 397.28C89.9903 396.8 90.9023 396.56 91.8783 396.56ZM114.65 410.168C113.098 410.168 111.666 409.808 110.354 409.088C109.058 408.352 108.026 407.336 107.258 406.04C106.506 404.728 106.13 403.256 106.13 401.624C106.13 399.992 106.506 398.528 107.258 397.232C108.026 395.936 109.058 394.928 110.354 394.208C111.666 393.472 113.098 393.104 114.65 393.104C116.218 393.104 117.65 393.472 118.946 394.208C120.258 394.928 121.29 395.936 122.042 397.232C122.794 398.528 123.17 399.992 123.17 401.624C123.17 403.256 122.794 404.728 122.042 406.04C121.29 407.336 120.258 408.352 118.946 409.088C117.65 409.808 116.218 410.168 114.65 410.168ZM114.65 407.792C115.754 407.792 116.738 407.544 117.602 407.048C118.466 406.536 119.138 405.816 119.618 404.888C120.114 403.944 120.362 402.856 120.362 401.624C120.362 400.392 120.114 399.312 119.618 398.384C119.138 397.456 118.466 396.744 117.602 396.248C116.738 395.752 115.754 395.504 114.65 395.504C113.546 395.504 112.562 395.752 111.698 396.248C110.834 396.744 110.154 397.456 109.658 398.384C109.178 399.312 108.938 400.392 108.938 401.624C108.938 402.856 109.178 403.944 109.658 404.888C110.154 405.816 110.834 406.536 111.698 407.048C112.562 407.544 113.546 407.792 114.65 407.792ZM128.599 398.696C128.999 398.024 129.527 397.504 130.183 397.136C130.855 396.752 131.647 396.56 132.559 396.56V399.392H131.863C130.791 399.392 129.975 399.664 129.415 400.208C128.871 400.752 128.599 401.696 128.599 403.04V410H125.863V396.776H128.599V398.696ZM134.161 403.328C134.161 402 134.433 400.824 134.977 399.8C135.537 398.776 136.289 397.984 137.233 397.424C138.193 396.848 139.257 396.56 140.425 396.56C141.289 396.56 142.137 396.752 142.969 397.136C143.817 397.504 144.489 398 144.985 398.624V392.24H147.745V410H144.985V408.008C144.537 408.648 143.913 409.176 143.113 409.592C142.329 410.008 141.425 410.216 140.401 410.216C139.249 410.216 138.193 409.928 137.233 409.352C136.289 408.76 135.537 407.944 134.977 406.904C134.433 405.848 134.161 404.656 134.161 403.328ZM144.985 403.376C144.985 402.464 144.793 401.672 144.409 401C144.041 400.328 143.553 399.816 142.945 399.464C142.337 399.112 141.681 398.936 140.977 398.936C140.273 398.936 139.617 399.112 139.009 399.464C138.401 399.8 137.905 400.304 137.521 400.976C137.153 401.632 136.969 402.416 136.969 403.328C136.969 404.24 137.153 405.04 137.521 405.728C137.905 406.416 138.401 406.944 139.009 407.312C139.633 407.664 140.289 407.84 140.977 407.84C141.681 407.84 142.337 407.664 142.945 407.312C143.553 406.96 144.041 406.448 144.409 405.776C144.793 405.088 144.985 404.288 144.985 403.376ZM163.459 403.064C163.459 403.56 163.427 404.008 163.363 404.408H153.259C153.339 405.464 153.731 406.312 154.435 406.952C155.139 407.592 156.003 407.912 157.027 407.912C158.499 407.912 159.539 407.296 160.147 406.064H163.099C162.699 407.28 161.971 408.28 160.915 409.064C159.875 409.832 158.579 410.216 157.027 410.216C155.763 410.216 154.627 409.936 153.619 409.376C152.627 408.8 151.843 408 151.267 406.976C150.707 405.936 150.427 404.736 150.427 403.376C150.427 402.016 150.699 400.824 151.243 399.8C151.803 398.76 152.579 397.96 153.571 397.4C154.579 396.84 155.731 396.56 157.027 396.56C158.275 396.56 159.387 396.832 160.363 397.376C161.339 397.92 162.099 398.688 162.643 399.68C163.187 400.656 163.459 401.784 163.459 403.064ZM160.603 402.2C160.587 401.192 160.227 400.384 159.523 399.776C158.819 399.168 157.947 398.864 156.907 398.864C155.963 398.864 155.155 399.168 154.483 399.776C153.811 400.368 153.411 401.176 153.283 402.2H160.603ZM168.888 398.696C169.288 398.024 169.816 397.504 170.472 397.136C171.144 396.752 171.936 396.56 172.848 396.56V399.392H172.152C171.08 399.392 170.264 399.664 169.704 400.208C169.16 400.752 168.888 401.696 168.888 403.04V410H166.152V396.776H168.888V398.696ZM180.163 410.216C179.123 410.216 178.187 410.032 177.355 409.664C176.539 409.28 175.891 408.768 175.411 408.128C174.931 407.472 174.675 406.744 174.643 405.944H177.475C177.523 406.504 177.787 406.976 178.267 407.36C178.763 407.728 179.379 407.912 180.115 407.912C180.883 407.912 181.475 407.768 181.891 407.48C182.323 407.176 182.539 406.792 182.539 406.328C182.539 405.832 182.299 405.464 181.819 405.224C181.355 404.984 180.611 404.72 179.587 404.432C178.595 404.16 177.787 403.896 177.163 403.64C176.539 403.384 175.995 402.992 175.531 402.464C175.083 401.936 174.859 401.24 174.859 400.376C174.859 399.672 175.067 399.032 175.483 398.456C175.899 397.864 176.491 397.4 177.259 397.064C178.043 396.728 178.939 396.56 179.947 396.56C181.451 396.56 182.659 396.944 183.571 397.712C184.499 398.464 184.995 399.496 185.059 400.808H182.323C182.275 400.216 182.035 399.744 181.603 399.392C181.171 399.04 180.587 398.864 179.851 398.864C179.131 398.864 178.579 399 178.195 399.272C177.811 399.544 177.619 399.904 177.619 400.352C177.619 400.704 177.747 401 178.003 401.24C178.259 401.48 178.571 401.672 178.939 401.816C179.307 401.944 179.851 402.112 180.571 402.32C181.531 402.576 182.315 402.84 182.923 403.112C183.547 403.368 184.083 403.752 184.531 404.264C184.979 404.776 185.211 405.456 185.227 406.304C185.227 407.056 185.019 407.728 184.603 408.32C184.187 408.912 183.595 409.376 182.827 409.712C182.075 410.048 181.187 410.216 180.163 410.216Z" fill="#F65464"/>
<path opacity="0.3" fill-rule="evenodd" clip-rule="evenodd" d="M63.7302 318.784C63.1199 319.344 63.1199 320.252 63.7302 320.813L83.087 338.583C83.6972 339.143 84.6867 339.143 85.2969 338.583L104.654 320.813C105.264 320.252 105.264 319.344 104.654 318.784L85.2969 301.014C84.6866 300.453 83.6972 300.453 83.087 301.014L63.7302 318.784ZM124.73 318.784C124.12 319.344 124.12 320.252 124.73 320.813L144.087 338.583C144.697 339.143 145.687 339.143 146.297 338.583L165.654 320.813C166.264 320.252 166.264 319.344 165.654 318.784L146.297 301.014C145.687 300.453 144.697 300.453 144.087 301.014L124.73 318.784Z" fill="#F65464"/>
<path fill-rule="evenodd" clip-rule="evenodd" d="M94.2302 290.784C93.6199 291.344 93.6199 292.252 94.2302 292.813L113.587 310.583C114.197 311.143 115.187 311.143 115.797 310.583L135.154 292.813C135.764 292.252 135.764 291.344 135.154 290.784L115.797 273.014C115.187 272.453 114.197 272.453 113.587 273.014L94.2302 290.784ZM94.2302 346.784C93.6199 347.344 93.6199 348.252 94.2302 348.813L113.587 366.583C114.197 367.143 115.187 367.143 115.797 366.583L135.154 348.813C135.764 348.252 135.764 347.344 135.154 346.784L115.797 329.014C115.187 328.453 114.197 328.453 113.587 329.014L94.2302 346.784Z" fill="#F65464"/>
<rect x="265.064" width="232.935" height="211.274" rx="12" fill="#EEE5FF"/>
<path opacity="0.35" d="M339.504 172H336.768L328.536 159.544V172H325.8V155.296H328.536L336.768 167.728V155.296H339.504V172ZM355.217 165.064C355.217 165.56 355.185 166.008 355.121 166.408H345.017C345.097 167.464 345.489 168.312 346.193 168.952C346.897 169.592 347.761 169.912 348.785 169.912C350.257 169.912 351.297 169.296 351.905 168.064H354.857C354.457 169.28 353.729 170.28 352.673 171.064C351.633 171.832 350.337 172.216 348.785 172.216C347.521 172.216 346.385 171.936 345.377 171.376C344.385 170.8 343.601 170 343.025 168.976C342.465 167.936 342.185 166.736 342.185 165.376C342.185 164.016 342.457 162.824 343.001 161.8C343.561 160.76 344.337 159.96 345.329 159.4C346.337 158.84 347.489 158.56 348.785 158.56C350.033 158.56 351.145 158.832 352.121 159.376C353.097 159.92 353.857 160.688 354.401 161.68C354.945 162.656 355.217 163.784 355.217 165.064ZM352.361 164.2C352.345 163.192 351.985 162.384 351.281 161.776C350.577 161.168 349.705 160.864 348.665 160.864C347.721 160.864 346.913 161.168 346.241 161.776C345.569 162.368 345.169 163.176 345.041 164.2H352.361ZM375.669 158.776L371.565 172H368.685L366.021 162.232L363.357 172H360.477L356.349 158.776H359.133L361.893 169.408L364.701 158.776H367.557L370.245 169.36L372.981 158.776H375.669ZM386.66 155.32V165.952C386.66 167.216 386.988 168.168 387.644 168.808C388.316 169.448 389.244 169.768 390.428 169.768C391.628 169.768 392.556 169.448 393.212 168.808C393.884 168.168 394.22 167.216 394.22 165.952V155.32H396.956V165.904C396.956 167.264 396.66 168.416 396.068 169.36C395.476 170.304 394.684 171.008 393.692 171.472C392.7 171.936 391.604 172.168 390.404 172.168C389.204 172.168 388.108 171.936 387.116 171.472C386.14 171.008 385.364 170.304 384.788 169.36C384.212 168.416 383.924 167.264 383.924 165.904V155.32H386.66ZM405.319 172.216C404.279 172.216 403.343 172.032 402.511 171.664C401.695 171.28 401.047 170.768 400.567 170.128C400.087 169.472 399.831 168.744 399.799 167.944H402.631C402.679 168.504 402.943 168.976 403.423 169.36C403.919 169.728 404.535 169.912 405.271 169.912C406.039 169.912 406.631 169.768 407.047 169.48C407.479 169.176 407.695 168.792 407.695 168.328C407.695 167.832 407.455 167.464 406.975 167.224C406.511 166.984 405.767 166.72 404.743 166.432C403.751 166.16 402.943 165.896 402.319 165.64C401.695 165.384 401.151 164.992 400.687 164.464C400.239 163.936 400.015 163.24 400.015 162.376C400.015 161.672 400.223 161.032 400.639 160.456C401.055 159.864 401.647 159.4 402.415 159.064C403.199 158.728 404.095 158.56 405.103 158.56C406.607 158.56 407.815 158.944 408.727 159.712C409.655 160.464 410.151 161.496 410.215 162.808H407.479C407.431 162.216 407.191 161.744 406.759 161.392C406.327 161.04 405.743 160.864 405.007 160.864C404.287 160.864 403.735 161 403.351 161.272C402.967 161.544 402.775 161.904 402.775 162.352C402.775 162.704 402.903 163 403.159 163.24C403.415 163.48 403.727 163.672 404.095 163.816C404.463 163.944 405.007 164.112 405.727 164.32C406.687 164.576 407.471 164.84 408.079 165.112C408.703 165.368 409.239 165.752 409.687 166.264C410.135 166.776 410.367 167.456 410.383 168.304C410.383 169.056 410.175 169.728 409.759 170.32C409.343 170.912 408.751 171.376 407.983 171.712C407.231 172.048 406.343 172.216 405.319 172.216ZM425.459 165.064C425.459 165.56 425.427 166.008 425.363 166.408H415.259C415.339 167.464 415.731 168.312 416.435 168.952C417.139 169.592 418.003 169.912 419.027 169.912C420.499 169.912 421.539 169.296 422.147 168.064H425.099C424.699 169.28 423.971 170.28 422.915 171.064C421.875 171.832 420.579 172.216 419.027 172.216C417.763 172.216 416.627 171.936 415.619 171.376C414.627 170.8 413.843 170 413.267 168.976C412.707 167.936 412.427 166.736 412.427 165.376C412.427 164.016 412.699 162.824 413.243 161.8C413.803 160.76 414.579 159.96 415.571 159.4C416.579 158.84 417.731 158.56 419.027 158.56C420.275 158.56 421.387 158.832 422.363 159.376C423.339 159.92 424.099 160.688 424.643 161.68C425.187 162.656 425.459 163.784 425.459 165.064ZM422.603 164.2C422.587 163.192 422.227 162.384 421.523 161.776C420.819 161.168 419.947 160.864 418.907 160.864C417.963 160.864 417.155 161.168 416.483 161.776C415.811 162.368 415.411 163.176 415.283 164.2H422.603ZM430.888 160.696C431.288 160.024 431.816 159.504 432.472 159.136C433.144 158.752 433.936 158.56 434.848 158.56V161.392H434.152C433.08 161.392 432.264 161.664 431.704 162.208C431.16 162.752 430.888 163.696 430.888 165.04V172H428.152V158.776H430.888V160.696ZM442.163 172.216C441.123 172.216 440.187 172.032 439.355 171.664C438.539 171.28 437.891 170.768 437.411 170.128C436.931 169.472 436.675 168.744 436.643 167.944H439.475C439.523 168.504 439.787 168.976 440.267 169.36C440.763 169.728 441.379 169.912 442.115 169.912C442.883 169.912 443.475 169.768 443.891 169.48C444.323 169.176 444.539 168.792 444.539 168.328C444.539 167.832 444.299 167.464 443.819 167.224C443.355 166.984 442.611 166.72 441.587 166.432C440.595 166.16 439.787 165.896 439.163 165.64C438.539 165.384 437.995 164.992 437.531 164.464C437.083 163.936 436.859 163.24 436.859 162.376C436.859 161.672 437.067 161.032 437.483 160.456C437.899 159.864 438.491 159.4 439.259 159.064C440.043 158.728 440.939 158.56 441.947 158.56C443.451 158.56 444.659 158.944 445.571 159.712C446.499 160.464 446.995 161.496 447.059 162.808H444.323C444.275 162.216 444.035 161.744 443.603 161.392C443.171 161.04 442.587 160.864 441.851 160.864C441.131 160.864 440.579 161 440.195 161.272C439.811 161.544 439.619 161.904 439.619 162.352C439.619 162.704 439.747 163 440.003 163.24C440.259 163.48 440.571 163.672 440.939 163.816C441.307 163.944 441.851 164.112 442.571 164.32C443.531 164.576 444.315 164.84 444.923 165.112C445.547 165.368 446.083 165.752 446.531 166.264C446.979 166.776 447.211 167.456 447.227 168.304C447.227 169.056 447.019 169.728 446.603 170.32C446.187 170.912 445.595 171.376 444.827 171.712C444.075 172.048 443.187 172.216 442.163 172.216Z" fill="#8A50FC"/>
<path opacity="0.3" fill-rule="evenodd" clip-rule="evenodd" d="M373.375 67.5C363.71 67.5 355.875 59.4411 355.875 49.5C355.875 39.5589 363.71 31.5 373.375 31.5C383.04 31.5 390.875 39.5589 390.875 49.5C390.875 59.4411 383.04 67.5 373.375 67.5ZM413.75 67.5C413.198 67.5 412.75 67.0523 412.75 66.5V54H400.625C400.073 54 399.625 53.5523 399.625 53V46C399.625 45.4477 400.073 45 400.625 45H412.75V32.5C412.75 31.9477 413.198 31.5 413.75 31.5H420.5C421.052 31.5 421.5 31.9477 421.5 32.5V45H433.625C434.177 45 434.625 45.4477 434.625 46V53C434.625 53.5523 434.177 54 433.625 54H421.5V66.5C421.5 67.0523 421.052 67.5 420.5 67.5H413.75Z" fill="#8A50FC"/>
<path d="M334.003 108.896C335.699 87.4193 352.646 76.5 373.302 76.5C394.249 76.5 411.459 86.8194 412.741 108.9C412.792 109.78 412.741 112.5 409.454 112.5C393.242 112.5 369.152 112.5 337.183 112.5C336.086 112.5 333.91 110.066 334.003 108.896Z" fill="#8A50FC"/>
<rect width="232.935" height="211.274" rx="12" fill="#FFF4DE"/>
<rect opacity="0.3" x="120.292" y="46" width="14.375" height="68" rx="2" fill="#FFA800"/>
<rect x="96.3335" y="67.25" width="14.375" height="46.75" rx="2" fill="#FFA800"/>
<rect x="144.25" y="75.75" width="14.375" height="38.25" rx="2" fill="#FFA800"/>
<rect x="72.375" y="84.25" width="14.375" height="29.75" rx="2" fill="#FFA800"/>
<path opacity="0.24" d="M59.52 156.32L54.576 173H51.48L47.976 160.376L44.256 173L41.184 173.024L36.456 156.32H39.36L42.816 169.904L46.56 156.32H49.632L53.112 169.832L56.592 156.32H59.52ZM73.8966 166.064C73.8966 166.56 73.8646 167.008 73.8006 167.408H63.6966C63.7766 168.464 64.1686 169.312 64.8726 169.952C65.5766 170.592 66.4406 170.912 67.4646 170.912C68.9366 170.912 69.9766 170.296 70.5846 169.064H73.5366C73.1366 170.28 72.4086 171.28 71.3526 172.064C70.3126 172.832 69.0166 173.216 67.4646 173.216C66.2006 173.216 65.0646 172.936 64.0566 172.376C63.0646 171.8 62.2806 171 61.7046 169.976C61.1446 168.936 60.8646 167.736 60.8646 166.376C60.8646 165.016 61.1366 163.824 61.6806 162.8C62.2406 161.76 63.0166 160.96 64.0086 160.4C65.0166 159.84 66.1686 159.56 67.4646 159.56C68.7126 159.56 69.8246 159.832 70.8006 160.376C71.7766 160.92 72.5366 161.688 73.0806 162.68C73.6246 163.656 73.8966 164.784 73.8966 166.064ZM71.0406 165.2C71.0246 164.192 70.6646 163.384 69.9606 162.776C69.2566 162.168 68.3846 161.864 67.3446 161.864C66.4006 161.864 65.5926 162.168 64.9206 162.776C64.2486 163.368 63.8486 164.176 63.7206 165.2H71.0406ZM88.7091 166.064C88.7091 166.56 88.6771 167.008 88.6131 167.408H78.5091C78.5891 168.464 78.9811 169.312 79.6851 169.952C80.3891 170.592 81.2531 170.912 82.2771 170.912C83.7491 170.912 84.7891 170.296 85.3971 169.064H88.3491C87.9491 170.28 87.2211 171.28 86.1651 172.064C85.1251 172.832 83.8291 173.216 82.2771 173.216C81.0131 173.216 79.8771 172.936 78.8691 172.376C77.8771 171.8 77.0931 171 76.5171 169.976C75.9571 168.936 75.6771 167.736 75.6771 166.376C75.6771 165.016 75.9491 163.824 76.4931 162.8C77.0531 161.76 77.8291 160.96 78.8211 160.4C79.8291 159.84 80.9811 159.56 82.2771 159.56C83.5251 159.56 84.6371 159.832 85.6131 160.376C86.5891 160.92 87.3491 161.688 87.8931 162.68C88.4371 163.656 88.7091 164.784 88.7091 166.064ZM85.8531 165.2C85.8371 164.192 85.4771 163.384 84.7731 162.776C84.0691 162.168 83.1971 161.864 82.1571 161.864C81.2131 161.864 80.4051 162.168 79.7331 162.776C79.0611 163.368 78.6611 164.176 78.5331 165.2H85.8531ZM96.6336 166.4L102.73 173H99.0336L94.1376 167.312V173H91.4016V155.24H94.1376V165.56L98.9376 159.776H102.73L96.6336 166.4ZM107.427 155.24V173H104.691V155.24H107.427ZM122.923 159.776L114.811 179.216H111.979L114.667 172.784L109.459 159.776H112.507L116.227 169.856L120.091 159.776H122.923ZM136.718 173.168C135.598 173.168 134.59 172.976 133.694 172.592C132.798 172.192 132.094 171.632 131.582 170.912C131.07 170.192 130.814 169.352 130.814 168.392H133.742C133.806 169.112 134.086 169.704 134.582 170.168C135.094 170.632 135.806 170.864 136.718 170.864C137.662 170.864 138.398 170.64 138.926 170.192C139.454 169.728 139.718 169.136 139.718 168.416C139.718 167.856 139.55 167.4 139.214 167.048C138.894 166.696 138.486 166.424 137.99 166.232C137.51 166.04 136.838 165.832 135.974 165.608C134.886 165.32 133.998 165.032 133.31 164.744C132.638 164.44 132.062 163.976 131.582 163.352C131.102 162.728 130.862 161.896 130.862 160.856C130.862 159.896 131.102 159.056 131.582 158.336C132.062 157.616 132.734 157.064 133.598 156.68C134.462 156.296 135.462 156.104 136.598 156.104C138.214 156.104 139.534 156.512 140.558 157.328C141.598 158.128 142.174 159.232 142.286 160.64H139.262C139.214 160.032 138.926 159.512 138.398 159.08C137.87 158.648 137.174 158.432 136.31 158.432C135.526 158.432 134.886 158.632 134.39 159.032C133.894 159.432 133.646 160.008 133.646 160.76C133.646 161.272 133.798 161.696 134.102 162.032C134.422 162.352 134.822 162.608 135.302 162.8C135.782 162.992 136.438 163.2 137.27 163.424C138.374 163.728 139.27 164.032 139.958 164.336C140.662 164.64 141.254 165.112 141.734 165.752C142.23 166.376 142.478 167.216 142.478 168.272C142.478 169.12 142.246 169.92 141.782 170.672C141.334 171.424 140.67 172.032 139.79 172.496C138.926 172.944 137.902 173.168 136.718 173.168ZM144.794 166.328C144.794 165 145.066 163.824 145.61 162.8C146.17 161.776 146.922 160.984 147.866 160.424C148.826 159.848 149.882 159.56 151.034 159.56C152.074 159.56 152.978 159.768 153.746 160.184C154.53 160.584 155.154 161.088 155.618 161.696V159.776H158.378V173H155.618V171.032C155.154 171.656 154.522 172.176 153.722 172.592C152.922 173.008 152.01 173.216 150.986 173.216C149.85 173.216 148.81 172.928 147.866 172.352C146.922 171.76 146.17 170.944 145.61 169.904C145.066 168.848 144.794 167.656 144.794 166.328ZM155.618 166.376C155.618 165.464 155.426 164.672 155.042 164C154.674 163.328 154.186 162.816 153.578 162.464C152.97 162.112 152.314 161.936 151.61 161.936C150.906 161.936 150.25 162.112 149.642 162.464C149.034 162.8 148.538 163.304 148.154 163.976C147.786 164.632 147.602 165.416 147.602 166.328C147.602 167.24 147.786 168.04 148.154 168.728C148.538 169.416 149.034 169.944 149.642 170.312C150.266 170.664 150.922 170.84 151.61 170.84C152.314 170.84 152.97 170.664 153.578 170.312C154.186 169.96 154.674 169.448 155.042 168.776C155.426 168.088 155.618 167.288 155.618 166.376ZM164.708 155.24V173H161.972V155.24H164.708ZM180.42 166.064C180.42 166.56 180.388 167.008 180.324 167.408H170.22C170.3 168.464 170.692 169.312 171.396 169.952C172.1 170.592 172.964 170.912 173.988 170.912C175.46 170.912 176.5 170.296 177.108 169.064H180.06C179.66 170.28 178.932 171.28 177.876 172.064C176.836 172.832 175.54 173.216 173.988 173.216C172.724 173.216 171.588 172.936 170.58 172.376C169.588 171.8 168.804 171 168.228 169.976C167.668 168.936 167.388 167.736 167.388 166.376C167.388 165.016 167.66 163.824 168.204 162.8C168.764 161.76 169.54 160.96 170.532 160.4C171.54 159.84 172.692 159.56 173.988 159.56C175.236 159.56 176.348 159.832 177.324 160.376C178.3 160.92 179.06 161.688 179.604 162.68C180.148 163.656 180.42 164.784 180.42 166.064ZM177.564 165.2C177.548 164.192 177.188 163.384 176.484 162.776C175.78 162.168 174.908 161.864 173.868 161.864C172.924 161.864 172.116 162.168 171.444 162.776C170.772 163.368 170.372 164.176 170.244 165.2H177.564ZM187.913 173.216C186.873 173.216 185.937 173.032 185.105 172.664C184.289 172.28 183.641 171.768 183.161 171.128C182.681 170.472 182.425 169.744 182.393 168.944H185.225C185.273 169.504 185.537 169.976 186.017 170.36C186.513 170.728 187.129 170.912 187.865 170.912C188.633 170.912 189.225 170.768 189.641 170.48C190.073 170.176 190.289 169.792 190.289 169.328C190.289 168.832 190.049 168.464 189.569 168.224C189.105 167.984 188.361 167.72 187.337 167.432C186.345 167.16 185.537 166.896 184.913 166.64C184.289 166.384 183.745 165.992 183.281 165.464C182.833 164.936 182.609 164.24 182.609 163.376C182.609 162.672 182.817 162.032 183.233 161.456C183.649 160.864 184.241 160.4 185.009 160.064C185.793 159.728 186.689 159.56 187.697 159.56C189.201 159.56 190.409 159.944 191.321 160.712C192.249 161.464 192.745 162.496 192.809 163.808H190.073C190.025 163.216 189.785 162.744 189.353 162.392C188.921 162.04 188.337 161.864 187.601 161.864C186.881 161.864 186.329 162 185.945 162.272C185.561 162.544 185.369 162.904 185.369 163.352C185.369 163.704 185.497 164 185.753 164.24C186.009 164.48 186.321 164.672 186.689 164.816C187.057 164.944 187.601 165.112 188.321 165.32C189.281 165.576 190.065 165.84 190.673 166.112C191.297 166.368 191.833 166.752 192.281 167.264C192.729 167.776 192.961 168.456 192.977 169.304C192.977 170.056 192.769 170.728 192.353 171.32C191.937 171.912 191.345 172.376 190.577 172.712C189.825 173.048 188.937 173.216 187.913 173.216Z" fill="#634100"/>
</svg>
