<svg width="430" height="605" viewBox="0 0 430 605" fill="none" xmlns="http://www.w3.org/2000/svg">
<g filter="url(#filter0_d_197_2315)">
<rect x="230" y="417.593" width="180" height="167.407" rx="12" fill="white"/>
<path d="M267.88 546.785C267.624 546.315 267.272 545.958 266.824 545.713C266.376 545.467 265.853 545.345 265.256 545.345C264.595 545.345 264.008 545.494 263.496 545.793C262.984 546.091 262.584 546.518 262.296 547.073C262.008 547.627 261.864 548.267 261.864 548.993C261.864 549.739 262.008 550.39 262.296 550.945C262.595 551.499 263.005 551.926 263.528 552.225C264.051 552.523 264.659 552.673 265.352 552.673C266.205 552.673 266.904 552.449 267.448 552.001C267.992 551.542 268.349 550.907 268.52 550.097H264.68V548.385H270.728V550.337C270.579 551.115 270.259 551.835 269.768 552.497C269.277 553.158 268.643 553.691 267.864 554.097C267.096 554.491 266.232 554.689 265.272 554.689C264.195 554.689 263.219 554.449 262.344 553.969C261.48 553.478 260.797 552.801 260.296 551.937C259.805 551.073 259.56 550.091 259.56 548.993C259.56 547.894 259.805 546.913 260.296 546.049C260.797 545.174 261.48 544.497 262.344 544.017C263.219 543.526 264.189 543.281 265.256 543.281C266.515 543.281 267.608 543.59 268.536 544.209C269.464 544.817 270.104 545.675 270.456 546.785H267.88ZM274.625 547.105C274.913 546.635 275.287 546.267 275.745 546.001C276.215 545.734 276.748 545.601 277.345 545.601V547.953H276.753C276.049 547.953 275.516 548.118 275.153 548.449C274.801 548.779 274.625 549.355 274.625 550.177V554.593H272.385V545.729H274.625V547.105ZM287.094 549.969C287.094 550.289 287.073 550.577 287.03 550.833H280.55C280.603 551.473 280.827 551.974 281.222 552.337C281.617 552.699 282.102 552.881 282.678 552.881C283.51 552.881 284.102 552.523 284.454 551.809H286.87C286.614 552.662 286.123 553.366 285.398 553.921C284.673 554.465 283.782 554.737 282.726 554.737C281.873 554.737 281.105 554.55 280.422 554.177C279.75 553.793 279.222 553.254 278.838 552.561C278.465 551.867 278.278 551.067 278.278 550.161C278.278 549.243 278.465 548.438 278.838 547.745C279.211 547.051 279.734 546.518 280.406 546.145C281.078 545.771 281.851 545.585 282.726 545.585C283.569 545.585 284.321 545.766 284.982 546.129C285.654 546.491 286.171 547.009 286.534 547.681C286.907 548.342 287.094 549.105 287.094 549.969ZM284.774 549.329C284.763 548.753 284.555 548.294 284.15 547.953C283.745 547.601 283.249 547.425 282.662 547.425C282.107 547.425 281.638 547.595 281.254 547.937C280.881 548.267 280.651 548.731 280.566 549.329H284.774ZM288.153 550.129C288.153 549.233 288.329 548.438 288.681 547.745C289.044 547.051 289.529 546.518 290.137 546.145C290.756 545.771 291.444 545.585 292.201 545.585C292.862 545.585 293.438 545.718 293.929 545.985C294.43 546.251 294.83 546.587 295.129 546.993V545.729H297.385V554.593H295.129V553.297C294.841 553.713 294.441 554.059 293.929 554.337C293.428 554.603 292.846 554.737 292.185 554.737C291.438 554.737 290.756 554.545 290.137 554.161C289.529 553.777 289.044 553.238 288.681 552.545C288.329 551.841 288.153 551.035 288.153 550.129ZM295.129 550.161C295.129 549.617 295.022 549.153 294.809 548.769C294.596 548.374 294.308 548.075 293.945 547.873C293.582 547.659 293.193 547.553 292.777 547.553C292.361 547.553 291.977 547.654 291.625 547.857C291.273 548.059 290.985 548.358 290.761 548.753C290.548 549.137 290.441 549.595 290.441 550.129C290.441 550.662 290.548 551.131 290.761 551.537C290.985 551.931 291.273 552.235 291.625 552.449C291.988 552.662 292.372 552.769 292.777 552.769C293.193 552.769 293.582 552.667 293.945 552.465C294.308 552.251 294.596 551.953 294.809 551.569C295.022 551.174 295.129 550.705 295.129 550.161ZM302.181 547.569V551.857C302.181 552.155 302.25 552.374 302.389 552.513C302.538 552.641 302.783 552.705 303.125 552.705H304.165V554.593H302.757C300.869 554.593 299.925 553.675 299.925 551.841V547.569H298.869V545.729H299.925V543.537H302.181V545.729H304.165V547.569H302.181ZM317.364 546.785C317.108 546.315 316.756 545.958 316.308 545.713C315.86 545.467 315.338 545.345 314.74 545.345C314.079 545.345 313.492 545.494 312.98 545.793C312.468 546.091 312.068 546.518 311.78 547.073C311.492 547.627 311.348 548.267 311.348 548.993C311.348 549.739 311.492 550.39 311.78 550.945C312.079 551.499 312.49 551.926 313.012 552.225C313.535 552.523 314.143 552.673 314.836 552.673C315.69 552.673 316.388 552.449 316.932 552.001C317.476 551.542 317.834 550.907 318.004 550.097H314.164V548.385H320.212V550.337C320.063 551.115 319.743 551.835 319.252 552.497C318.762 553.158 318.127 553.691 317.348 554.097C316.58 554.491 315.716 554.689 314.756 554.689C313.679 554.689 312.703 554.449 311.828 553.969C310.964 553.478 310.282 552.801 309.78 551.937C309.29 551.073 309.044 550.091 309.044 548.993C309.044 547.894 309.29 546.913 309.78 546.049C310.282 545.174 310.964 544.497 311.828 544.017C312.703 543.526 313.674 543.281 314.74 543.281C315.999 543.281 317.092 543.59 318.02 544.209C318.948 544.817 319.588 545.675 319.94 546.785H317.364ZM323.006 544.673C322.611 544.673 322.28 544.55 322.014 544.305C321.758 544.049 321.63 543.734 321.63 543.361C321.63 542.987 321.758 542.678 322.014 542.433C322.28 542.177 322.611 542.049 323.006 542.049C323.4 542.049 323.726 542.177 323.982 542.433C324.248 542.678 324.382 542.987 324.382 543.361C324.382 543.734 324.248 544.049 323.982 544.305C323.726 544.55 323.4 544.673 323.006 544.673ZM324.11 545.729V554.593H321.87V545.729H324.11ZM330.387 547.569H328.835V554.593H326.563V547.569H325.555V545.729H326.563V545.281C326.563 544.193 326.872 543.393 327.491 542.881C328.109 542.369 329.043 542.129 330.291 542.161V544.049C329.747 544.038 329.368 544.129 329.155 544.321C328.941 544.513 328.835 544.859 328.835 545.361V545.729H330.387V547.569ZM334.446 547.569V551.857C334.446 552.155 334.516 552.374 334.654 552.513C334.804 552.641 335.049 552.705 335.39 552.705H336.43V554.593H335.022C333.134 554.593 332.19 553.675 332.19 551.841V547.569H331.134V545.729H332.19V543.537H334.446V545.729H336.43V547.569H334.446ZM341.434 554.737C340.708 554.737 340.058 554.609 339.482 554.353C338.906 554.086 338.447 553.729 338.106 553.281C337.775 552.833 337.594 552.337 337.562 551.793H339.818C339.86 552.134 340.026 552.417 340.314 552.641C340.612 552.865 340.98 552.977 341.418 552.977C341.844 552.977 342.175 552.891 342.41 552.721C342.655 552.55 342.778 552.331 342.778 552.065C342.778 551.777 342.628 551.563 342.33 551.425C342.042 551.275 341.578 551.115 340.938 550.945C340.276 550.785 339.732 550.619 339.306 550.449C338.89 550.278 338.527 550.017 338.218 549.665C337.919 549.313 337.77 548.838 337.77 548.241C337.77 547.75 337.908 547.302 338.186 546.897C338.474 546.491 338.879 546.171 339.402 545.937C339.935 545.702 340.559 545.585 341.274 545.585C342.33 545.585 343.172 545.851 343.802 546.385C344.431 546.907 344.778 547.617 344.842 548.513H342.698C342.666 548.161 342.516 547.883 342.25 547.681C341.994 547.467 341.647 547.361 341.21 547.361C340.804 547.361 340.49 547.435 340.266 547.585C340.052 547.734 339.946 547.942 339.946 548.209C339.946 548.507 340.095 548.737 340.394 548.897C340.692 549.046 341.156 549.201 341.786 549.361C342.426 549.521 342.954 549.686 343.37 549.857C343.786 550.027 344.143 550.294 344.442 550.657C344.751 551.009 344.911 551.478 344.922 552.065C344.922 552.577 344.778 553.035 344.49 553.441C344.212 553.846 343.807 554.166 343.274 554.401C342.751 554.625 342.138 554.737 341.434 554.737Z" fill="#3F4254"/>
<path opacity="0.3" d="M260.447 474.255C269.387 458.776 280.289 449.391 295.601 446.789C295.902 446.735 296.212 446.755 296.504 446.847C296.796 446.938 297.062 447.099 297.278 447.316C297.495 447.532 297.656 447.798 297.747 448.09C297.839 448.382 297.859 448.692 297.805 448.993C295.203 464.305 285.818 475.208 270.339 484.147L260.447 474.255ZM259.957 478.712L257.487 485.193C257.385 485.46 257.362 485.752 257.422 486.032C257.482 486.311 257.621 486.568 257.824 486.77C258.026 486.973 258.283 487.112 258.563 487.172C258.842 487.232 259.134 487.21 259.401 487.108L265.887 484.635L259.957 478.712ZM286.376 455.089C285.758 455.089 285.154 455.272 284.64 455.615C284.126 455.959 283.726 456.447 283.489 457.018C283.253 457.589 283.191 458.217 283.311 458.823C283.432 459.43 283.729 459.986 284.166 460.423C284.603 460.861 285.16 461.158 285.766 461.279C286.373 461.399 287.001 461.337 287.572 461.101C288.143 460.864 288.631 460.464 288.974 459.95C289.318 459.436 289.501 458.832 289.501 458.214C289.501 457.385 289.172 456.59 288.586 456.004C288 455.418 287.205 455.089 286.376 455.089Z" fill="#A1A5B7"/>
<path d="M260.446 474.255L256.682 470.491C256.49 470.299 256.345 470.065 256.258 469.807C256.172 469.55 256.146 469.276 256.183 469.007C256.22 468.738 256.319 468.481 256.472 468.257C256.625 468.032 256.828 467.847 257.065 467.714L271.069 459.862C266.945 464.2 263.376 469.035 260.446 474.255ZM270.334 484.143L274.098 487.907C274.29 488.099 274.524 488.244 274.782 488.331C275.039 488.417 275.313 488.443 275.582 488.406C275.851 488.369 276.108 488.27 276.332 488.117C276.557 487.964 276.742 487.761 276.875 487.524L284.727 473.518C280.389 477.643 275.554 481.213 270.334 484.143ZM266.667 480.474L278.215 468.926C278.537 468.584 278.714 468.129 278.707 467.659C278.7 467.189 278.51 466.74 278.178 466.407C277.845 466.075 277.396 465.885 276.926 465.878C276.455 465.871 276.001 466.047 275.659 466.37L264.111 477.918L266.667 480.474Z" fill="#A1A5B7"/>
</g>
<g filter="url(#filter1_d_197_2315)">
<rect x="20" y="417.593" width="180" height="167.407" rx="12" fill="white"/>
<path d="M57.88 546.785C57.624 546.315 57.272 545.958 56.824 545.713C56.376 545.467 55.8533 545.345 55.256 545.345C54.5947 545.345 54.008 545.494 53.496 545.793C52.984 546.091 52.584 546.518 52.296 547.073C52.008 547.627 51.864 548.267 51.864 548.993C51.864 549.739 52.008 550.39 52.296 550.945C52.5947 551.499 53.0053 551.926 53.528 552.225C54.0507 552.523 54.6587 552.673 55.352 552.673C56.2053 552.673 56.904 552.449 57.448 552.001C57.992 551.542 58.3493 550.907 58.52 550.097H54.68V548.385H60.728V550.337C60.5787 551.115 60.2587 551.835 59.768 552.497C59.2773 553.158 58.6427 553.691 57.864 554.097C57.096 554.491 56.232 554.689 55.272 554.689C54.1947 554.689 53.2187 554.449 52.344 553.969C51.48 553.478 50.7973 552.801 50.296 551.937C49.8053 551.073 49.56 550.091 49.56 548.993C49.56 547.894 49.8053 546.913 50.296 546.049C50.7973 545.174 51.48 544.497 52.344 544.017C53.2187 543.526 54.1893 543.281 55.256 543.281C56.5147 543.281 57.608 543.59 58.536 544.209C59.464 544.817 60.104 545.675 60.456 546.785H57.88ZM64.6253 547.105C64.9133 546.635 65.2866 546.267 65.7453 546.001C66.2146 545.734 66.7479 545.601 67.3453 545.601V547.953H66.7533C66.0493 547.953 65.5159 548.118 65.1533 548.449C64.8013 548.779 64.6253 549.355 64.6253 550.177V554.593H62.3853V545.729H64.6253V547.105ZM77.094 549.969C77.094 550.289 77.0727 550.577 77.03 550.833H70.55C70.6033 551.473 70.8273 551.974 71.222 552.337C71.6167 552.699 72.102 552.881 72.678 552.881C73.51 552.881 74.102 552.523 74.454 551.809H76.87C76.614 552.662 76.1233 553.366 75.398 553.921C74.6727 554.465 73.782 554.737 72.726 554.737C71.8727 554.737 71.1047 554.55 70.422 554.177C69.75 553.793 69.222 553.254 68.838 552.561C68.4647 551.867 68.278 551.067 68.278 550.161C68.278 549.243 68.4647 548.438 68.838 547.745C69.2113 547.051 69.734 546.518 70.406 546.145C71.078 545.771 71.8513 545.585 72.726 545.585C73.5687 545.585 74.3207 545.766 74.982 546.129C75.654 546.491 76.1713 547.009 76.534 547.681C76.9073 548.342 77.094 549.105 77.094 549.969ZM74.774 549.329C74.7633 548.753 74.5553 548.294 74.15 547.953C73.7447 547.601 73.2487 547.425 72.662 547.425C72.1073 547.425 71.638 547.595 71.254 547.937C70.8807 548.267 70.6513 548.731 70.566 549.329H74.774ZM78.153 550.129C78.153 549.233 78.329 548.438 78.681 547.745C79.0437 547.051 79.529 546.518 80.137 546.145C80.7557 545.771 81.4437 545.585 82.201 545.585C82.8623 545.585 83.4383 545.718 83.929 545.985C84.4303 546.251 84.8303 546.587 85.129 546.993V545.729H87.385V554.593H85.129V553.297C84.841 553.713 84.441 554.059 83.929 554.337C83.4277 554.603 82.8463 554.737 82.185 554.737C81.4383 554.737 80.7557 554.545 80.137 554.161C79.529 553.777 79.0437 553.238 78.681 552.545C78.329 551.841 78.153 551.035 78.153 550.129ZM85.129 550.161C85.129 549.617 85.0223 549.153 84.809 548.769C84.5957 548.374 84.3077 548.075 83.945 547.873C83.5823 547.659 83.193 547.553 82.777 547.553C82.361 547.553 81.977 547.654 81.625 547.857C81.273 548.059 80.985 548.358 80.761 548.753C80.5477 549.137 80.441 549.595 80.441 550.129C80.441 550.662 80.5477 551.131 80.761 551.537C80.985 551.931 81.273 552.235 81.625 552.449C81.9877 552.662 82.3717 552.769 82.777 552.769C83.193 552.769 83.5823 552.667 83.945 552.465C84.3077 552.251 84.5957 551.953 84.809 551.569C85.0223 551.174 85.129 550.705 85.129 550.161ZM92.1808 547.569V551.857C92.1808 552.155 92.2501 552.374 92.3888 552.513C92.5381 552.641 92.7834 552.705 93.1248 552.705H94.1648V554.593H92.7568C90.8688 554.593 89.9248 553.675 89.9248 551.841V547.569H88.8688V545.729H89.9248V543.537H92.1808V545.729H94.1648V547.569H92.1808ZM107.364 546.785C107.108 546.315 106.756 545.958 106.308 545.713C105.86 545.467 105.338 545.345 104.74 545.345C104.079 545.345 103.492 545.494 102.98 545.793C102.468 546.091 102.068 546.518 101.78 547.073C101.492 547.627 101.348 548.267 101.348 548.993C101.348 549.739 101.492 550.39 101.78 550.945C102.079 551.499 102.49 551.926 103.012 552.225C103.535 552.523 104.143 552.673 104.836 552.673C105.69 552.673 106.388 552.449 106.932 552.001C107.476 551.542 107.834 550.907 108.004 550.097H104.164V548.385H110.212V550.337C110.063 551.115 109.743 551.835 109.252 552.497C108.762 553.158 108.127 553.691 107.348 554.097C106.58 554.491 105.716 554.689 104.756 554.689C103.679 554.689 102.703 554.449 101.828 553.969C100.964 553.478 100.282 552.801 99.7804 551.937C99.2897 551.073 99.0444 550.091 99.0444 548.993C99.0444 547.894 99.2897 546.913 99.7804 546.049C100.282 545.174 100.964 544.497 101.828 544.017C102.703 543.526 103.674 543.281 104.74 543.281C105.999 543.281 107.092 543.59 108.02 544.209C108.948 544.817 109.588 545.675 109.94 546.785H107.364ZM113.006 544.673C112.611 544.673 112.28 544.55 112.014 544.305C111.758 544.049 111.63 543.734 111.63 543.361C111.63 542.987 111.758 542.678 112.014 542.433C112.28 542.177 112.611 542.049 113.006 542.049C113.4 542.049 113.726 542.177 113.982 542.433C114.248 542.678 114.382 542.987 114.382 543.361C114.382 543.734 114.248 544.049 113.982 544.305C113.726 544.55 113.4 544.673 113.006 544.673ZM114.11 545.729V554.593H111.87V545.729H114.11ZM120.387 547.569H118.835V554.593H116.563V547.569H115.555V545.729H116.563V545.281C116.563 544.193 116.872 543.393 117.491 542.881C118.109 542.369 119.043 542.129 120.291 542.161V544.049C119.747 544.038 119.368 544.129 119.155 544.321C118.941 544.513 118.835 544.859 118.835 545.361V545.729H120.387V547.569ZM124.446 547.569V551.857C124.446 552.155 124.516 552.374 124.654 552.513C124.804 552.641 125.049 552.705 125.39 552.705H126.43V554.593H125.022C123.134 554.593 122.19 553.675 122.19 551.841V547.569H121.134V545.729H122.19V543.537H124.446V545.729H126.43V547.569H124.446ZM131.434 554.737C130.708 554.737 130.058 554.609 129.482 554.353C128.906 554.086 128.447 553.729 128.106 553.281C127.775 552.833 127.594 552.337 127.562 551.793H129.818C129.86 552.134 130.026 552.417 130.314 552.641C130.612 552.865 130.98 552.977 131.418 552.977C131.844 552.977 132.175 552.891 132.41 552.721C132.655 552.55 132.778 552.331 132.778 552.065C132.778 551.777 132.628 551.563 132.33 551.425C132.042 551.275 131.578 551.115 130.938 550.945C130.276 550.785 129.732 550.619 129.306 550.449C128.89 550.278 128.527 550.017 128.218 549.665C127.919 549.313 127.77 548.838 127.77 548.241C127.77 547.75 127.908 547.302 128.186 546.897C128.474 546.491 128.879 546.171 129.402 545.937C129.935 545.702 130.559 545.585 131.274 545.585C132.33 545.585 133.172 545.851 133.802 546.385C134.431 546.907 134.778 547.617 134.842 548.513H132.698C132.666 548.161 132.516 547.883 132.25 547.681C131.994 547.467 131.647 547.361 131.21 547.361C130.804 547.361 130.49 547.435 130.266 547.585C130.052 547.734 129.946 547.942 129.946 548.209C129.946 548.507 130.095 548.737 130.394 548.897C130.692 549.046 131.156 549.201 131.786 549.361C132.426 549.521 132.954 549.686 133.37 549.857C133.786 550.027 134.143 550.294 134.442 550.657C134.751 551.009 134.911 551.478 134.922 552.065C134.922 552.577 134.778 553.035 134.49 553.441C134.212 553.846 133.807 554.166 133.274 554.401C132.751 554.625 132.138 554.737 131.434 554.737Z" fill="#3F4254"/>
<path d="M85.7498 463.426H69.0832V465.509C69.0832 466.759 68.2498 467.593 66.9998 467.593C65.7498 467.593 64.9165 466.759 64.9165 465.509V463.426H48.2498C46.9998 463.426 46.1665 464.259 46.1665 465.509V469.676H87.8332V465.509C87.8332 464.259 86.9998 463.426 85.7498 463.426Z" fill="#A1A5B7"/>
<path opacity="0.3" d="M66.9998 467.593C65.7498 467.593 64.9165 466.759 64.9165 465.509V448.843C64.9165 447.593 65.7498 446.759 66.9998 446.759C68.2498 446.759 69.0832 447.593 69.0832 448.843V465.509C69.0832 466.759 68.2498 467.593 66.9998 467.593Z" fill="#A1A5B7"/>
<path opacity="0.3" d="M79.7083 486.343H54.2917C53.25 486.343 52.2083 485.509 52 484.468L48.25 469.676H85.75L82 484.468C81.7917 485.509 80.75 486.343 79.7083 486.343ZM69.0833 480.093V473.843C69.0833 472.593 68.25 471.759 67 471.759C65.75 471.759 64.9167 472.593 64.9167 473.843V480.093C64.9167 481.343 65.75 482.176 67 482.176C68.25 482.176 69.0833 481.343 69.0833 480.093ZM77.4167 480.093V473.843C77.4167 472.593 76.5833 471.759 75.3333 471.759C74.0833 471.759 73.25 472.593 73.25 473.843V480.093C73.25 481.343 74.0833 482.176 75.3333 482.176C76.5833 482.176 77.4167 481.343 77.4167 480.093ZM60.75 480.093V473.843C60.75 472.593 59.9167 471.759 58.6667 471.759C57.4167 471.759 56.5833 472.593 56.5833 473.843V480.093C56.5833 481.343 57.4167 482.176 58.6667 482.176C59.9167 482.176 60.75 481.343 60.75 480.093Z" fill="#A1A5B7"/>
</g>
<g filter="url(#filter2_d_197_2315)">
<rect x="230" y="218.796" width="180" height="167.407" rx="12" fill="white"/>
<path d="M267.88 347.988C267.624 347.519 267.272 347.162 266.824 346.916C266.376 346.671 265.853 346.548 265.256 346.548C264.595 346.548 264.008 346.698 263.496 346.996C262.984 347.295 262.584 347.722 262.296 348.276C262.008 348.831 261.864 349.471 261.864 350.196C261.864 350.943 262.008 351.594 262.296 352.148C262.595 352.703 263.005 353.13 263.528 353.428C264.051 353.727 264.659 353.876 265.352 353.876C266.205 353.876 266.904 353.652 267.448 353.204C267.992 352.746 268.349 352.111 268.52 351.3H264.68V349.588H270.728V351.54C270.579 352.319 270.259 353.039 269.768 353.7C269.277 354.362 268.643 354.895 267.864 355.3C267.096 355.695 266.232 355.892 265.272 355.892C264.195 355.892 263.219 355.652 262.344 355.172C261.48 354.682 260.797 354.004 260.296 353.14C259.805 352.276 259.56 351.295 259.56 350.196C259.56 349.098 259.805 348.116 260.296 347.252C260.797 346.378 261.48 345.7 262.344 345.22C263.219 344.73 264.189 344.484 265.256 344.484C266.515 344.484 267.608 344.794 268.536 345.412C269.464 346.02 270.104 346.879 270.456 347.988H267.88ZM274.625 348.308C274.913 347.839 275.287 347.471 275.745 347.204C276.215 346.938 276.748 346.804 277.345 346.804V349.156H276.753C276.049 349.156 275.516 349.322 275.153 349.652C274.801 349.983 274.625 350.559 274.625 351.38V355.796H272.385V346.932H274.625V348.308ZM287.094 351.172C287.094 351.492 287.073 351.78 287.03 352.036H280.55C280.603 352.676 280.827 353.178 281.222 353.54C281.617 353.903 282.102 354.084 282.678 354.084C283.51 354.084 284.102 353.727 284.454 353.012H286.87C286.614 353.866 286.123 354.57 285.398 355.124C284.673 355.668 283.782 355.94 282.726 355.94C281.873 355.94 281.105 355.754 280.422 355.38C279.75 354.996 279.222 354.458 278.838 353.764C278.465 353.071 278.278 352.271 278.278 351.364C278.278 350.447 278.465 349.642 278.838 348.948C279.211 348.255 279.734 347.722 280.406 347.348C281.078 346.975 281.851 346.788 282.726 346.788C283.569 346.788 284.321 346.97 284.982 347.332C285.654 347.695 286.171 348.212 286.534 348.884C286.907 349.546 287.094 350.308 287.094 351.172ZM284.774 350.532C284.763 349.956 284.555 349.498 284.15 349.156C283.745 348.804 283.249 348.628 282.662 348.628C282.107 348.628 281.638 348.799 281.254 349.14C280.881 349.471 280.651 349.935 280.566 350.532H284.774ZM288.153 351.332C288.153 350.436 288.329 349.642 288.681 348.948C289.044 348.255 289.529 347.722 290.137 347.348C290.756 346.975 291.444 346.788 292.201 346.788C292.862 346.788 293.438 346.922 293.929 347.188C294.43 347.455 294.83 347.791 295.129 348.196V346.932H297.385V355.796H295.129V354.5C294.841 354.916 294.441 355.263 293.929 355.54C293.428 355.807 292.846 355.94 292.185 355.94C291.438 355.94 290.756 355.748 290.137 355.364C289.529 354.98 289.044 354.442 288.681 353.748C288.329 353.044 288.153 352.239 288.153 351.332ZM295.129 351.364C295.129 350.82 295.022 350.356 294.809 349.972C294.596 349.578 294.308 349.279 293.945 349.076C293.582 348.863 293.193 348.756 292.777 348.756C292.361 348.756 291.977 348.858 291.625 349.06C291.273 349.263 290.985 349.562 290.761 349.956C290.548 350.34 290.441 350.799 290.441 351.332C290.441 351.866 290.548 352.335 290.761 352.74C290.985 353.135 291.273 353.439 291.625 353.652C291.988 353.866 292.372 353.972 292.777 353.972C293.193 353.972 293.582 353.871 293.945 353.668C294.308 353.455 294.596 353.156 294.809 352.772C295.022 352.378 295.129 351.908 295.129 351.364ZM302.181 348.772V353.06C302.181 353.359 302.25 353.578 302.389 353.716C302.538 353.844 302.783 353.908 303.125 353.908H304.165V355.796H302.757C300.869 355.796 299.925 354.879 299.925 353.044V348.772H298.869V346.932H299.925V344.74H302.181V346.932H304.165V348.772H302.181ZM317.364 347.988C317.108 347.519 316.756 347.162 316.308 346.916C315.86 346.671 315.338 346.548 314.74 346.548C314.079 346.548 313.492 346.698 312.98 346.996C312.468 347.295 312.068 347.722 311.78 348.276C311.492 348.831 311.348 349.471 311.348 350.196C311.348 350.943 311.492 351.594 311.78 352.148C312.079 352.703 312.49 353.13 313.012 353.428C313.535 353.727 314.143 353.876 314.836 353.876C315.69 353.876 316.388 353.652 316.932 353.204C317.476 352.746 317.834 352.111 318.004 351.3H314.164V349.588H320.212V351.54C320.063 352.319 319.743 353.039 319.252 353.7C318.762 354.362 318.127 354.895 317.348 355.3C316.58 355.695 315.716 355.892 314.756 355.892C313.679 355.892 312.703 355.652 311.828 355.172C310.964 354.682 310.282 354.004 309.78 353.14C309.29 352.276 309.044 351.295 309.044 350.196C309.044 349.098 309.29 348.116 309.78 347.252C310.282 346.378 310.964 345.7 311.828 345.22C312.703 344.73 313.674 344.484 314.74 344.484C315.999 344.484 317.092 344.794 318.02 345.412C318.948 346.02 319.588 346.879 319.94 347.988H317.364ZM323.006 345.876C322.611 345.876 322.28 345.754 322.014 345.508C321.758 345.252 321.63 344.938 321.63 344.564C321.63 344.191 321.758 343.882 322.014 343.636C322.28 343.38 322.611 343.252 323.006 343.252C323.4 343.252 323.726 343.38 323.982 343.636C324.248 343.882 324.382 344.191 324.382 344.564C324.382 344.938 324.248 345.252 323.982 345.508C323.726 345.754 323.4 345.876 323.006 345.876ZM324.11 346.932V355.796H321.87V346.932H324.11ZM330.387 348.772H328.835V355.796H326.563V348.772H325.555V346.932H326.563V346.484C326.563 345.396 326.872 344.596 327.491 344.084C328.109 343.572 329.043 343.332 330.291 343.364V345.252C329.747 345.242 329.368 345.332 329.155 345.524C328.941 345.716 328.835 346.063 328.835 346.564V346.932H330.387V348.772ZM334.446 348.772V353.06C334.446 353.359 334.516 353.578 334.654 353.716C334.804 353.844 335.049 353.908 335.39 353.908H336.43V355.796H335.022C333.134 355.796 332.19 354.879 332.19 353.044V348.772H331.134V346.932H332.19V344.74H334.446V346.932H336.43V348.772H334.446ZM341.434 355.94C340.708 355.94 340.058 355.812 339.482 355.556C338.906 355.29 338.447 354.932 338.106 354.484C337.775 354.036 337.594 353.54 337.562 352.996H339.818C339.86 353.338 340.026 353.62 340.314 353.844C340.612 354.068 340.98 354.18 341.418 354.18C341.844 354.18 342.175 354.095 342.41 353.924C342.655 353.754 342.778 353.535 342.778 353.268C342.778 352.98 342.628 352.767 342.33 352.628C342.042 352.479 341.578 352.319 340.938 352.148C340.276 351.988 339.732 351.823 339.306 351.652C338.89 351.482 338.527 351.22 338.218 350.868C337.919 350.516 337.77 350.042 337.77 349.444C337.77 348.954 337.908 348.506 338.186 348.1C338.474 347.695 338.879 347.375 339.402 347.14C339.935 346.906 340.559 346.788 341.274 346.788C342.33 346.788 343.172 347.055 343.802 347.588C344.431 348.111 344.778 348.82 344.842 349.716H342.698C342.666 349.364 342.516 349.087 342.25 348.884C341.994 348.671 341.647 348.564 341.21 348.564C340.804 348.564 340.49 348.639 340.266 348.788C340.052 348.938 339.946 349.146 339.946 349.412C339.946 349.711 340.095 349.94 340.394 350.1C340.692 350.25 341.156 350.404 341.786 350.564C342.426 350.724 342.954 350.89 343.37 351.06C343.786 351.231 344.143 351.498 344.442 351.86C344.751 352.212 344.911 352.682 344.922 353.268C344.922 353.78 344.778 354.239 344.49 354.644C344.212 355.05 343.807 355.37 343.274 355.604C342.751 355.828 342.138 355.94 341.434 355.94Z" fill="#3F4254"/>
<path d="M287.26 251.923V260.465L277.052 266.298V254.423L284.344 250.256C285.594 249.631 287.26 250.465 287.26 251.923ZM257.26 271.923L264.552 276.09L274.76 270.256L264.552 264.423L257.26 268.59C255.802 269.423 255.802 271.298 257.26 271.923ZM289.552 284.84V276.298L279.344 270.465V282.34L286.635 286.506C287.885 287.131 289.552 286.298 289.552 284.84Z" fill="#A1A5B7"/>
<path opacity="0.3" d="M269.761 250.256L277.053 254.423V266.298L266.844 260.465V251.923C266.844 250.465 268.511 249.631 269.761 250.256ZM267.469 286.506L274.761 282.34V270.465L264.553 276.298V284.84C264.553 286.298 266.219 287.131 267.469 286.506ZM296.844 268.59L289.553 264.423L279.344 270.256L289.553 276.09L296.844 271.923C298.303 271.298 298.303 269.423 296.844 268.59Z" fill="#A1A5B7"/>
</g>
<g filter="url(#filter3_d_197_2315)">
<rect x="20" y="218.796" width="180" height="167.407" rx="12" fill="white"/>
<path d="M57.88 347.988C57.624 347.519 57.272 347.162 56.824 346.916C56.376 346.671 55.8533 346.548 55.256 346.548C54.5947 346.548 54.008 346.698 53.496 346.996C52.984 347.295 52.584 347.722 52.296 348.276C52.008 348.831 51.864 349.471 51.864 350.196C51.864 350.943 52.008 351.594 52.296 352.148C52.5947 352.703 53.0053 353.13 53.528 353.428C54.0507 353.727 54.6587 353.876 55.352 353.876C56.2053 353.876 56.904 353.652 57.448 353.204C57.992 352.746 58.3493 352.111 58.52 351.3H54.68V349.588H60.728V351.54C60.5787 352.319 60.2587 353.039 59.768 353.7C59.2773 354.362 58.6427 354.895 57.864 355.3C57.096 355.695 56.232 355.892 55.272 355.892C54.1947 355.892 53.2187 355.652 52.344 355.172C51.48 354.682 50.7973 354.004 50.296 353.14C49.8053 352.276 49.56 351.295 49.56 350.196C49.56 349.098 49.8053 348.116 50.296 347.252C50.7973 346.378 51.48 345.7 52.344 345.22C53.2187 344.73 54.1893 344.484 55.256 344.484C56.5147 344.484 57.608 344.794 58.536 345.412C59.464 346.02 60.104 346.879 60.456 347.988H57.88ZM64.6253 348.308C64.9133 347.839 65.2866 347.471 65.7453 347.204C66.2146 346.938 66.7479 346.804 67.3453 346.804V349.156H66.7533C66.0493 349.156 65.5159 349.322 65.1533 349.652C64.8013 349.983 64.6253 350.559 64.6253 351.38V355.796H62.3853V346.932H64.6253V348.308ZM77.094 351.172C77.094 351.492 77.0727 351.78 77.03 352.036H70.55C70.6033 352.676 70.8273 353.178 71.222 353.54C71.6167 353.903 72.102 354.084 72.678 354.084C73.51 354.084 74.102 353.727 74.454 353.012H76.87C76.614 353.866 76.1233 354.57 75.398 355.124C74.6727 355.668 73.782 355.94 72.726 355.94C71.8727 355.94 71.1047 355.754 70.422 355.38C69.75 354.996 69.222 354.458 68.838 353.764C68.4647 353.071 68.278 352.271 68.278 351.364C68.278 350.447 68.4647 349.642 68.838 348.948C69.2113 348.255 69.734 347.722 70.406 347.348C71.078 346.975 71.8513 346.788 72.726 346.788C73.5687 346.788 74.3207 346.97 74.982 347.332C75.654 347.695 76.1713 348.212 76.534 348.884C76.9073 349.546 77.094 350.308 77.094 351.172ZM74.774 350.532C74.7633 349.956 74.5553 349.498 74.15 349.156C73.7447 348.804 73.2487 348.628 72.662 348.628C72.1073 348.628 71.638 348.799 71.254 349.14C70.8807 349.471 70.6513 349.935 70.566 350.532H74.774ZM78.153 351.332C78.153 350.436 78.329 349.642 78.681 348.948C79.0437 348.255 79.529 347.722 80.137 347.348C80.7557 346.975 81.4437 346.788 82.201 346.788C82.8623 346.788 83.4383 346.922 83.929 347.188C84.4303 347.455 84.8303 347.791 85.129 348.196V346.932H87.385V355.796H85.129V354.5C84.841 354.916 84.441 355.263 83.929 355.54C83.4277 355.807 82.8463 355.94 82.185 355.94C81.4383 355.94 80.7557 355.748 80.137 355.364C79.529 354.98 79.0437 354.442 78.681 353.748C78.329 353.044 78.153 352.239 78.153 351.332ZM85.129 351.364C85.129 350.82 85.0223 350.356 84.809 349.972C84.5957 349.578 84.3077 349.279 83.945 349.076C83.5823 348.863 83.193 348.756 82.777 348.756C82.361 348.756 81.977 348.858 81.625 349.06C81.273 349.263 80.985 349.562 80.761 349.956C80.5477 350.34 80.441 350.799 80.441 351.332C80.441 351.866 80.5477 352.335 80.761 352.74C80.985 353.135 81.273 353.439 81.625 353.652C81.9877 353.866 82.3717 353.972 82.777 353.972C83.193 353.972 83.5823 353.871 83.945 353.668C84.3077 353.455 84.5957 353.156 84.809 352.772C85.0223 352.378 85.129 351.908 85.129 351.364ZM92.1808 348.772V353.06C92.1808 353.359 92.2501 353.578 92.3888 353.716C92.5381 353.844 92.7834 353.908 93.1248 353.908H94.1648V355.796H92.7568C90.8688 355.796 89.9248 354.879 89.9248 353.044V348.772H88.8688V346.932H89.9248V344.74H92.1808V346.932H94.1648V348.772H92.1808ZM107.364 347.988C107.108 347.519 106.756 347.162 106.308 346.916C105.86 346.671 105.338 346.548 104.74 346.548C104.079 346.548 103.492 346.698 102.98 346.996C102.468 347.295 102.068 347.722 101.78 348.276C101.492 348.831 101.348 349.471 101.348 350.196C101.348 350.943 101.492 351.594 101.78 352.148C102.079 352.703 102.49 353.13 103.012 353.428C103.535 353.727 104.143 353.876 104.836 353.876C105.69 353.876 106.388 353.652 106.932 353.204C107.476 352.746 107.834 352.111 108.004 351.3H104.164V349.588H110.212V351.54C110.063 352.319 109.743 353.039 109.252 353.7C108.762 354.362 108.127 354.895 107.348 355.3C106.58 355.695 105.716 355.892 104.756 355.892C103.679 355.892 102.703 355.652 101.828 355.172C100.964 354.682 100.282 354.004 99.7804 353.14C99.2897 352.276 99.0444 351.295 99.0444 350.196C99.0444 349.098 99.2897 348.116 99.7804 347.252C100.282 346.378 100.964 345.7 101.828 345.22C102.703 344.73 103.674 344.484 104.74 344.484C105.999 344.484 107.092 344.794 108.02 345.412C108.948 346.02 109.588 346.879 109.94 347.988H107.364ZM113.006 345.876C112.611 345.876 112.28 345.754 112.014 345.508C111.758 345.252 111.63 344.938 111.63 344.564C111.63 344.191 111.758 343.882 112.014 343.636C112.28 343.38 112.611 343.252 113.006 343.252C113.4 343.252 113.726 343.38 113.982 343.636C114.248 343.882 114.382 344.191 114.382 344.564C114.382 344.938 114.248 345.252 113.982 345.508C113.726 345.754 113.4 345.876 113.006 345.876ZM114.11 346.932V355.796H111.87V346.932H114.11ZM120.387 348.772H118.835V355.796H116.563V348.772H115.555V346.932H116.563V346.484C116.563 345.396 116.872 344.596 117.491 344.084C118.109 343.572 119.043 343.332 120.291 343.364V345.252C119.747 345.242 119.368 345.332 119.155 345.524C118.941 345.716 118.835 346.063 118.835 346.564V346.932H120.387V348.772ZM124.446 348.772V353.06C124.446 353.359 124.516 353.578 124.654 353.716C124.804 353.844 125.049 353.908 125.39 353.908H126.43V355.796H125.022C123.134 355.796 122.19 354.879 122.19 353.044V348.772H121.134V346.932H122.19V344.74H124.446V346.932H126.43V348.772H124.446ZM131.434 355.94C130.708 355.94 130.058 355.812 129.482 355.556C128.906 355.29 128.447 354.932 128.106 354.484C127.775 354.036 127.594 353.54 127.562 352.996H129.818C129.86 353.338 130.026 353.62 130.314 353.844C130.612 354.068 130.98 354.18 131.418 354.18C131.844 354.18 132.175 354.095 132.41 353.924C132.655 353.754 132.778 353.535 132.778 353.268C132.778 352.98 132.628 352.767 132.33 352.628C132.042 352.479 131.578 352.319 130.938 352.148C130.276 351.988 129.732 351.823 129.306 351.652C128.89 351.482 128.527 351.22 128.218 350.868C127.919 350.516 127.77 350.042 127.77 349.444C127.77 348.954 127.908 348.506 128.186 348.1C128.474 347.695 128.879 347.375 129.402 347.14C129.935 346.906 130.559 346.788 131.274 346.788C132.33 346.788 133.172 347.055 133.802 347.588C134.431 348.111 134.778 348.82 134.842 349.716H132.698C132.666 349.364 132.516 349.087 132.25 348.884C131.994 348.671 131.647 348.564 131.21 348.564C130.804 348.564 130.49 348.639 130.266 348.788C130.052 348.938 129.946 349.146 129.946 349.412C129.946 349.711 130.095 349.94 130.394 350.1C130.692 350.25 131.156 350.404 131.786 350.564C132.426 350.724 132.954 350.89 133.37 351.06C133.786 351.231 134.143 351.498 134.442 351.86C134.751 352.212 134.911 352.682 134.922 353.268C134.922 353.78 134.778 354.239 134.49 354.644C134.212 355.05 133.807 355.37 133.274 355.604C132.751 355.828 132.138 355.94 131.434 355.94Z" fill="#3F4254"/>
<path opacity="0.3" d="M85.7498 266.128H48.2498C46.9998 266.128 46.1665 266.961 46.1665 268.211C46.1665 269.461 46.9998 270.295 48.2498 270.295H54.4998V274.461C54.4998 281.336 60.1248 286.961 66.9998 286.961C73.8748 286.961 79.4998 281.336 79.4998 274.461V270.295H85.7498C86.9998 270.295 87.8332 269.461 87.8332 268.211C87.8332 266.961 86.9998 266.128 85.7498 266.128Z" fill="#A1A5B7"/>
<path d="M66.1665 289.461C65.7499 289.461 65.3332 289.253 64.9165 289.045C64.0832 288.42 63.8748 286.961 64.4998 286.128C66.3748 283.628 67.6248 280.92 68.4582 277.795C68.6665 276.753 69.9165 275.92 70.9582 276.336C71.9998 276.545 72.8332 277.795 72.4165 278.836C71.5832 282.378 69.9165 285.711 67.8332 288.628C67.4165 289.045 66.7915 289.461 66.1665 289.461ZM60.1248 284.878C63.2498 281.545 64.9165 276.961 64.9165 272.378V261.961C64.9165 260.711 65.7498 259.878 66.9998 259.878C68.2498 259.878 69.0832 260.711 69.0832 261.961V270.92C69.0832 272.17 69.9165 273.003 71.1665 273.003C72.4165 273.003 73.2498 272.17 73.2498 270.92V261.961C73.2498 258.42 70.5415 255.711 66.9998 255.711C63.4582 255.711 60.7498 258.42 60.7498 261.961V272.378C60.7498 275.92 59.4998 279.461 56.9998 281.961C56.1665 282.795 56.3748 284.045 57.2082 284.878C57.6248 285.295 58.0415 285.503 58.6665 285.503C59.2915 285.503 59.7082 285.295 60.1248 284.878ZM54.4998 278.628C55.5415 278.628 56.5832 277.586 56.5832 276.545V261.961C56.5832 260.711 56.7915 259.461 57.2082 258.211C57.6248 257.17 56.9998 255.92 55.9582 255.503C54.9165 255.086 53.6665 255.711 53.2498 256.753C52.6248 258.42 52.4165 260.086 52.4165 261.961V276.545V276.753C52.4165 277.795 53.4582 278.628 54.4998 278.628ZM60.7498 253.628C61.7915 252.795 63.0415 252.378 64.2915 251.961C65.3332 251.753 65.9582 250.503 65.7498 249.461C65.5415 248.42 64.2915 247.795 63.2498 248.003C61.5832 248.42 59.9165 249.253 58.4582 250.295C57.6248 250.92 57.4165 252.378 58.0415 253.211C58.4582 253.836 59.0832 254.045 59.7082 254.045C59.9165 254.045 60.3332 253.836 60.7498 253.628ZM79.9165 283.211C80.9582 279.67 81.5832 276.128 81.5832 272.378V261.961C81.5832 255.711 77.6248 250.295 71.7915 248.211C70.7498 247.795 69.4998 248.42 69.0832 249.461C68.6665 250.503 69.2915 251.753 70.3332 252.17C74.4999 253.628 77.4165 257.586 77.4165 261.961V272.378C77.4165 275.711 76.9998 278.836 75.9582 281.961C75.5415 283.003 76.1665 284.253 77.2082 284.67C77.4165 284.67 77.6248 284.67 77.8332 284.67C78.8748 284.67 79.4998 284.045 79.9165 283.211Z" fill="#A1A5B7"/>
</g>
<g filter="url(#filter4_d_197_2315)">
<rect x="230" y="20" width="180" height="167.407" rx="12" fill="white"/>
<path d="M267.88 149.192C267.624 148.723 267.272 148.365 266.824 148.12C266.376 147.875 265.853 147.752 265.256 147.752C264.595 147.752 264.008 147.901 263.496 148.2C262.984 148.499 262.584 148.925 262.296 149.48C262.008 150.035 261.864 150.675 261.864 151.4C261.864 152.147 262.008 152.797 262.296 153.352C262.595 153.907 263.005 154.333 263.528 154.632C264.051 154.931 264.659 155.08 265.352 155.08C266.205 155.08 266.904 154.856 267.448 154.408C267.992 153.949 268.349 153.315 268.52 152.504H264.68V150.792H270.728V152.744C270.579 153.523 270.259 154.243 269.768 154.904C269.277 155.565 268.643 156.099 267.864 156.504C267.096 156.899 266.232 157.096 265.272 157.096C264.195 157.096 263.219 156.856 262.344 156.376C261.48 155.885 260.797 155.208 260.296 154.344C259.805 153.48 259.56 152.499 259.56 151.4C259.56 150.301 259.805 149.32 260.296 148.456C260.797 147.581 261.48 146.904 262.344 146.424C263.219 145.933 264.189 145.688 265.256 145.688C266.515 145.688 267.608 145.997 268.536 146.616C269.464 147.224 270.104 148.083 270.456 149.192H267.88ZM274.625 149.512C274.913 149.043 275.287 148.675 275.745 148.408C276.215 148.141 276.748 148.008 277.345 148.008V150.36H276.753C276.049 150.36 275.516 150.525 275.153 150.856C274.801 151.187 274.625 151.763 274.625 152.584V157H272.385V148.136H274.625V149.512ZM287.094 152.376C287.094 152.696 287.073 152.984 287.03 153.24H280.55C280.603 153.88 280.827 154.381 281.222 154.744C281.617 155.107 282.102 155.288 282.678 155.288C283.51 155.288 284.102 154.931 284.454 154.216H286.87C286.614 155.069 286.123 155.773 285.398 156.328C284.673 156.872 283.782 157.144 282.726 157.144C281.873 157.144 281.105 156.957 280.422 156.584C279.75 156.2 279.222 155.661 278.838 154.968C278.465 154.275 278.278 153.475 278.278 152.568C278.278 151.651 278.465 150.845 278.838 150.152C279.211 149.459 279.734 148.925 280.406 148.552C281.078 148.179 281.851 147.992 282.726 147.992C283.569 147.992 284.321 148.173 284.982 148.536C285.654 148.899 286.171 149.416 286.534 150.088C286.907 150.749 287.094 151.512 287.094 152.376ZM284.774 151.736C284.763 151.16 284.555 150.701 284.15 150.36C283.745 150.008 283.249 149.832 282.662 149.832C282.107 149.832 281.638 150.003 281.254 150.344C280.881 150.675 280.651 151.139 280.566 151.736H284.774ZM288.153 152.536C288.153 151.64 288.329 150.845 288.681 150.152C289.044 149.459 289.529 148.925 290.137 148.552C290.756 148.179 291.444 147.992 292.201 147.992C292.862 147.992 293.438 148.125 293.929 148.392C294.43 148.659 294.83 148.995 295.129 149.4V148.136H297.385V157H295.129V155.704C294.841 156.12 294.441 156.467 293.929 156.744C293.428 157.011 292.846 157.144 292.185 157.144C291.438 157.144 290.756 156.952 290.137 156.568C289.529 156.184 289.044 155.645 288.681 154.952C288.329 154.248 288.153 153.443 288.153 152.536ZM295.129 152.568C295.129 152.024 295.022 151.56 294.809 151.176C294.596 150.781 294.308 150.483 293.945 150.28C293.582 150.067 293.193 149.96 292.777 149.96C292.361 149.96 291.977 150.061 291.625 150.264C291.273 150.467 290.985 150.765 290.761 151.16C290.548 151.544 290.441 152.003 290.441 152.536C290.441 153.069 290.548 153.539 290.761 153.944C290.985 154.339 291.273 154.643 291.625 154.856C291.988 155.069 292.372 155.176 292.777 155.176C293.193 155.176 293.582 155.075 293.945 154.872C294.308 154.659 294.596 154.36 294.809 153.976C295.022 153.581 295.129 153.112 295.129 152.568ZM302.181 149.976V154.264C302.181 154.563 302.25 154.781 302.389 154.92C302.538 155.048 302.783 155.112 303.125 155.112H304.165V157H302.757C300.869 157 299.925 156.083 299.925 154.248V149.976H298.869V148.136H299.925V145.944H302.181V148.136H304.165V149.976H302.181ZM317.364 149.192C317.108 148.723 316.756 148.365 316.308 148.12C315.86 147.875 315.338 147.752 314.74 147.752C314.079 147.752 313.492 147.901 312.98 148.2C312.468 148.499 312.068 148.925 311.78 149.48C311.492 150.035 311.348 150.675 311.348 151.4C311.348 152.147 311.492 152.797 311.78 153.352C312.079 153.907 312.49 154.333 313.012 154.632C313.535 154.931 314.143 155.08 314.836 155.08C315.69 155.08 316.388 154.856 316.932 154.408C317.476 153.949 317.834 153.315 318.004 152.504H314.164V150.792H320.212V152.744C320.063 153.523 319.743 154.243 319.252 154.904C318.762 155.565 318.127 156.099 317.348 156.504C316.58 156.899 315.716 157.096 314.756 157.096C313.679 157.096 312.703 156.856 311.828 156.376C310.964 155.885 310.282 155.208 309.78 154.344C309.29 153.48 309.044 152.499 309.044 151.4C309.044 150.301 309.29 149.32 309.78 148.456C310.282 147.581 310.964 146.904 311.828 146.424C312.703 145.933 313.674 145.688 314.74 145.688C315.999 145.688 317.092 145.997 318.02 146.616C318.948 147.224 319.588 148.083 319.94 149.192H317.364ZM323.006 147.08C322.611 147.08 322.28 146.957 322.014 146.712C321.758 146.456 321.63 146.141 321.63 145.768C321.63 145.395 321.758 145.085 322.014 144.84C322.28 144.584 322.611 144.456 323.006 144.456C323.4 144.456 323.726 144.584 323.982 144.84C324.248 145.085 324.382 145.395 324.382 145.768C324.382 146.141 324.248 146.456 323.982 146.712C323.726 146.957 323.4 147.08 323.006 147.08ZM324.11 148.136V157H321.87V148.136H324.11ZM330.387 149.976H328.835V157H326.563V149.976H325.555V148.136H326.563V147.688C326.563 146.6 326.872 145.8 327.491 145.288C328.109 144.776 329.043 144.536 330.291 144.568V146.456C329.747 146.445 329.368 146.536 329.155 146.728C328.941 146.92 328.835 147.267 328.835 147.768V148.136H330.387V149.976ZM334.446 149.976V154.264C334.446 154.563 334.516 154.781 334.654 154.92C334.804 155.048 335.049 155.112 335.39 155.112H336.43V157H335.022C333.134 157 332.19 156.083 332.19 154.248V149.976H331.134V148.136H332.19V145.944H334.446V148.136H336.43V149.976H334.446ZM341.434 157.144C340.708 157.144 340.058 157.016 339.482 156.76C338.906 156.493 338.447 156.136 338.106 155.688C337.775 155.24 337.594 154.744 337.562 154.2H339.818C339.86 154.541 340.026 154.824 340.314 155.048C340.612 155.272 340.98 155.384 341.418 155.384C341.844 155.384 342.175 155.299 342.41 155.128C342.655 154.957 342.778 154.739 342.778 154.472C342.778 154.184 342.628 153.971 342.33 153.832C342.042 153.683 341.578 153.523 340.938 153.352C340.276 153.192 339.732 153.027 339.306 152.856C338.89 152.685 338.527 152.424 338.218 152.072C337.919 151.72 337.77 151.245 337.77 150.648C337.77 150.157 337.908 149.709 338.186 149.304C338.474 148.899 338.879 148.579 339.402 148.344C339.935 148.109 340.559 147.992 341.274 147.992C342.33 147.992 343.172 148.259 343.802 148.792C344.431 149.315 344.778 150.024 344.842 150.92H342.698C342.666 150.568 342.516 150.291 342.25 150.088C341.994 149.875 341.647 149.768 341.21 149.768C340.804 149.768 340.49 149.843 340.266 149.992C340.052 150.141 339.946 150.349 339.946 150.616C339.946 150.915 340.095 151.144 340.394 151.304C340.692 151.453 341.156 151.608 341.786 151.768C342.426 151.928 342.954 152.093 343.37 152.264C343.786 152.435 344.143 152.701 344.442 153.064C344.751 153.416 344.911 153.885 344.922 154.472C344.922 154.984 344.778 155.443 344.49 155.848C344.212 156.253 343.807 156.573 343.274 156.808C342.751 157.032 342.138 157.144 341.434 157.144Z" fill="#3F4254"/>
<path opacity="0.3" d="M274.917 58.5417C274.917 63.75 270.75 67.9167 265.542 67.9167C260.333 67.9167 256.167 63.75 256.167 58.5417C256.167 53.3333 260.333 49.1667 265.542 49.1667C270.75 49.1667 274.917 53.3333 274.917 58.5417ZM288.458 49.1667C283.25 49.1667 279.083 53.3333 279.083 58.5417C279.083 63.75 283.25 67.9167 288.458 67.9167C293.667 67.9167 297.833 63.75 297.833 58.5417C297.833 53.3333 293.667 49.1667 288.458 49.1667ZM265.542 72.0833C260.333 72.0833 256.167 76.25 256.167 81.4583C256.167 86.6667 260.333 90.8333 265.542 90.8333C270.75 90.8333 274.917 86.6667 274.917 81.4583C274.917 76.25 270.75 72.0833 265.542 72.0833ZM288.458 72.0833C283.25 72.0833 279.083 76.25 279.083 81.4583C279.083 86.6667 283.25 90.8333 288.458 90.8333C293.667 90.8333 297.833 86.6667 297.833 81.4583C297.833 76.25 293.667 72.0833 288.458 72.0833Z" fill="#A1A5B7"/>
<path d="M288.459 78.3332C288.251 78.3332 288.459 78.3332 288.459 78.3332L286.792 76.8748C285.542 75.6248 284.709 73.9581 284.501 72.2914C284.292 70.8331 284.292 69.1665 284.501 67.4998C284.709 65.8331 285.542 64.1664 286.792 62.9164L288.251 61.4582H288.459C290.126 61.4582 291.584 59.9999 291.584 58.3332C291.584 56.6665 290.126 55.2082 288.459 55.2082C286.792 55.2082 285.334 56.6665 285.334 58.3332V58.5415L283.876 59.9999C282.626 61.2499 280.959 62.0831 279.292 62.2915C277.834 62.4998 276.167 62.4998 274.501 62.2915C272.834 62.0831 271.167 61.2499 269.917 59.9999L268.459 58.5415V58.3332C268.459 56.6665 267.001 55.2082 265.334 55.2082C263.667 55.2082 262.209 56.6665 262.209 58.3332C262.209 59.9999 263.667 61.4582 265.334 61.4582H265.542L267.001 62.9164C268.251 64.1664 269.084 65.8331 269.292 67.4998C269.501 68.9581 269.501 70.6248 269.292 72.2914C269.084 73.9581 268.251 75.6248 267.001 76.8748L265.542 78.3332H265.334C263.667 78.3332 262.209 79.7915 262.209 81.4582C262.209 83.1248 263.667 84.5832 265.334 84.5832C267.001 84.5832 268.459 83.1248 268.459 81.4582V81.2499L269.917 79.7915C271.167 78.5415 272.834 77.7081 274.501 77.4998C275.959 77.2914 277.626 77.2914 279.292 77.4998C280.959 77.7081 282.626 78.5415 283.876 79.7915L285.334 81.2499V81.4582C285.334 83.1248 286.792 84.5832 288.459 84.5832C290.126 84.5832 291.584 83.1248 291.584 81.4582C291.584 79.7915 290.126 78.3332 288.459 78.3332Z" fill="#A1A5B7"/>
</g>
<g filter="url(#filter5_d_197_2315)">
<rect x="20" y="20" width="180" height="167.407" rx="12" fill="white"/>
<path d="M57.88 149.192C57.624 148.723 57.272 148.365 56.824 148.12C56.376 147.875 55.8533 147.752 55.256 147.752C54.5947 147.752 54.008 147.901 53.496 148.2C52.984 148.499 52.584 148.925 52.296 149.48C52.008 150.035 51.864 150.675 51.864 151.4C51.864 152.147 52.008 152.797 52.296 153.352C52.5947 153.907 53.0053 154.333 53.528 154.632C54.0507 154.931 54.6587 155.08 55.352 155.08C56.2053 155.08 56.904 154.856 57.448 154.408C57.992 153.949 58.3493 153.315 58.52 152.504H54.68V150.792H60.728V152.744C60.5787 153.523 60.2587 154.243 59.768 154.904C59.2773 155.565 58.6427 156.099 57.864 156.504C57.096 156.899 56.232 157.096 55.272 157.096C54.1947 157.096 53.2187 156.856 52.344 156.376C51.48 155.885 50.7973 155.208 50.296 154.344C49.8053 153.48 49.56 152.499 49.56 151.4C49.56 150.301 49.8053 149.32 50.296 148.456C50.7973 147.581 51.48 146.904 52.344 146.424C53.2187 145.933 54.1893 145.688 55.256 145.688C56.5147 145.688 57.608 145.997 58.536 146.616C59.464 147.224 60.104 148.083 60.456 149.192H57.88ZM64.6253 149.512C64.9133 149.043 65.2866 148.675 65.7453 148.408C66.2146 148.141 66.7479 148.008 67.3453 148.008V150.36H66.7533C66.0493 150.36 65.5159 150.525 65.1533 150.856C64.8013 151.187 64.6253 151.763 64.6253 152.584V157H62.3853V148.136H64.6253V149.512ZM77.094 152.376C77.094 152.696 77.0727 152.984 77.03 153.24H70.55C70.6033 153.88 70.8273 154.381 71.222 154.744C71.6167 155.107 72.102 155.288 72.678 155.288C73.51 155.288 74.102 154.931 74.454 154.216H76.87C76.614 155.069 76.1233 155.773 75.398 156.328C74.6727 156.872 73.782 157.144 72.726 157.144C71.8727 157.144 71.1047 156.957 70.422 156.584C69.75 156.2 69.222 155.661 68.838 154.968C68.4647 154.275 68.278 153.475 68.278 152.568C68.278 151.651 68.4647 150.845 68.838 150.152C69.2113 149.459 69.734 148.925 70.406 148.552C71.078 148.179 71.8513 147.992 72.726 147.992C73.5687 147.992 74.3207 148.173 74.982 148.536C75.654 148.899 76.1713 149.416 76.534 150.088C76.9073 150.749 77.094 151.512 77.094 152.376ZM74.774 151.736C74.7633 151.16 74.5553 150.701 74.15 150.36C73.7447 150.008 73.2487 149.832 72.662 149.832C72.1073 149.832 71.638 150.003 71.254 150.344C70.8807 150.675 70.6513 151.139 70.566 151.736H74.774ZM78.153 152.536C78.153 151.64 78.329 150.845 78.681 150.152C79.0437 149.459 79.529 148.925 80.137 148.552C80.7557 148.179 81.4437 147.992 82.201 147.992C82.8623 147.992 83.4383 148.125 83.929 148.392C84.4303 148.659 84.8303 148.995 85.129 149.4V148.136H87.385V157H85.129V155.704C84.841 156.12 84.441 156.467 83.929 156.744C83.4277 157.011 82.8463 157.144 82.185 157.144C81.4383 157.144 80.7557 156.952 80.137 156.568C79.529 156.184 79.0437 155.645 78.681 154.952C78.329 154.248 78.153 153.443 78.153 152.536ZM85.129 152.568C85.129 152.024 85.0223 151.56 84.809 151.176C84.5957 150.781 84.3077 150.483 83.945 150.28C83.5823 150.067 83.193 149.96 82.777 149.96C82.361 149.96 81.977 150.061 81.625 150.264C81.273 150.467 80.985 150.765 80.761 151.16C80.5477 151.544 80.441 152.003 80.441 152.536C80.441 153.069 80.5477 153.539 80.761 153.944C80.985 154.339 81.273 154.643 81.625 154.856C81.9877 155.069 82.3717 155.176 82.777 155.176C83.193 155.176 83.5823 155.075 83.945 154.872C84.3077 154.659 84.5957 154.36 84.809 153.976C85.0223 153.581 85.129 153.112 85.129 152.568ZM92.1808 149.976V154.264C92.1808 154.563 92.2501 154.781 92.3888 154.92C92.5381 155.048 92.7834 155.112 93.1248 155.112H94.1648V157H92.7568C90.8688 157 89.9248 156.083 89.9248 154.248V149.976H88.8688V148.136H89.9248V145.944H92.1808V148.136H94.1648V149.976H92.1808ZM107.364 149.192C107.108 148.723 106.756 148.365 106.308 148.12C105.86 147.875 105.338 147.752 104.74 147.752C104.079 147.752 103.492 147.901 102.98 148.2C102.468 148.499 102.068 148.925 101.78 149.48C101.492 150.035 101.348 150.675 101.348 151.4C101.348 152.147 101.492 152.797 101.78 153.352C102.079 153.907 102.49 154.333 103.012 154.632C103.535 154.931 104.143 155.08 104.836 155.08C105.69 155.08 106.388 154.856 106.932 154.408C107.476 153.949 107.834 153.315 108.004 152.504H104.164V150.792H110.212V152.744C110.063 153.523 109.743 154.243 109.252 154.904C108.762 155.565 108.127 156.099 107.348 156.504C106.58 156.899 105.716 157.096 104.756 157.096C103.679 157.096 102.703 156.856 101.828 156.376C100.964 155.885 100.282 155.208 99.7804 154.344C99.2897 153.48 99.0444 152.499 99.0444 151.4C99.0444 150.301 99.2897 149.32 99.7804 148.456C100.282 147.581 100.964 146.904 101.828 146.424C102.703 145.933 103.674 145.688 104.74 145.688C105.999 145.688 107.092 145.997 108.02 146.616C108.948 147.224 109.588 148.083 109.94 149.192H107.364ZM113.006 147.08C112.611 147.08 112.28 146.957 112.014 146.712C111.758 146.456 111.63 146.141 111.63 145.768C111.63 145.395 111.758 145.085 112.014 144.84C112.28 144.584 112.611 144.456 113.006 144.456C113.4 144.456 113.726 144.584 113.982 144.84C114.248 145.085 114.382 145.395 114.382 145.768C114.382 146.141 114.248 146.456 113.982 146.712C113.726 146.957 113.4 147.08 113.006 147.08ZM114.11 148.136V157H111.87V148.136H114.11ZM120.387 149.976H118.835V157H116.563V149.976H115.555V148.136H116.563V147.688C116.563 146.6 116.872 145.8 117.491 145.288C118.109 144.776 119.043 144.536 120.291 144.568V146.456C119.747 146.445 119.368 146.536 119.155 146.728C118.941 146.92 118.835 147.267 118.835 147.768V148.136H120.387V149.976ZM124.446 149.976V154.264C124.446 154.563 124.516 154.781 124.654 154.92C124.804 155.048 125.049 155.112 125.39 155.112H126.43V157H125.022C123.134 157 122.19 156.083 122.19 154.248V149.976H121.134V148.136H122.19V145.944H124.446V148.136H126.43V149.976H124.446ZM131.434 157.144C130.708 157.144 130.058 157.016 129.482 156.76C128.906 156.493 128.447 156.136 128.106 155.688C127.775 155.24 127.594 154.744 127.562 154.2H129.818C129.86 154.541 130.026 154.824 130.314 155.048C130.612 155.272 130.98 155.384 131.418 155.384C131.844 155.384 132.175 155.299 132.41 155.128C132.655 154.957 132.778 154.739 132.778 154.472C132.778 154.184 132.628 153.971 132.33 153.832C132.042 153.683 131.578 153.523 130.938 153.352C130.276 153.192 129.732 153.027 129.306 152.856C128.89 152.685 128.527 152.424 128.218 152.072C127.919 151.72 127.77 151.245 127.77 150.648C127.77 150.157 127.908 149.709 128.186 149.304C128.474 148.899 128.879 148.579 129.402 148.344C129.935 148.109 130.559 147.992 131.274 147.992C132.33 147.992 133.172 148.259 133.802 148.792C134.431 149.315 134.778 150.024 134.842 150.92H132.698C132.666 150.568 132.516 150.291 132.25 150.088C131.994 149.875 131.647 149.768 131.21 149.768C130.804 149.768 130.49 149.843 130.266 149.992C130.052 150.141 129.946 150.349 129.946 150.616C129.946 150.915 130.095 151.144 130.394 151.304C130.692 151.453 131.156 151.608 131.786 151.768C132.426 151.928 132.954 152.093 133.37 152.264C133.786 152.435 134.143 152.701 134.442 153.064C134.751 153.416 134.911 153.885 134.922 154.472C134.922 154.984 134.778 155.443 134.49 155.848C134.212 156.253 133.807 156.573 133.274 156.808C132.751 157.032 132.138 157.144 131.434 157.144Z" fill="#3F4254"/>
<path d="M85.75 63.75V67.9166C85.75 69.1666 84.9167 70 83.6667 70H71.1667V61.6666H83.6667C84.9167 61.6666 85.75 62.5 85.75 63.75ZM62.8333 61.6666H50.3333C49.0833 61.6666 48.25 62.5 48.25 63.75V67.9166C48.25 69.1666 49.0833 70 50.3333 70H62.8333V61.6666Z" fill="#A1A5B7"/>
<path d="M73.25 49.1666C69.7083 49.1666 67 51.875 67 55.4166V61.6666H73.25C76.7917 61.6666 79.5 58.9583 79.5 55.4166C79.5 51.875 76.7917 49.1666 73.25 49.1666Z" fill="#A1A5B7"/>
<path opacity="0.3" d="M60.7497 49.1666C64.2913 49.1666 66.9997 51.875 66.9997 55.4166V61.6666H60.7497C57.208 61.6666 54.4997 58.9583 54.4997 55.4166C54.4997 51.875 57.208 49.1666 60.7497 49.1666ZM50.333 70V88.75C50.333 90 51.1663 90.8333 52.4163 90.8333H62.833V70H50.333ZM83.6663 70V88.75C83.6663 90 82.833 90.8333 81.583 90.8333H71.1663V70H83.6663Z" fill="#A1A5B7"/>
</g>
<defs>
<filter id="filter0_d_197_2315" x="210" y="397.593" width="220" height="207.407" filterUnits="userSpaceOnUse" color-interpolation-filters="sRGB">
<feFlood flood-opacity="0" result="BackgroundImageFix"/>
<feColorMatrix in="SourceAlpha" type="matrix" values="0 0 0 0 0 0 0 0 0 0 0 0 0 0 0 0 0 0 127 0" result="hardAlpha"/>
<feOffset/>
<feGaussianBlur stdDeviation="10"/>
<feColorMatrix type="matrix" values="0 0 0 0 0.368627 0 0 0 0 0.384314 0 0 0 0 0.470588 0 0 0 0.04 0"/>
<feBlend mode="normal" in2="BackgroundImageFix" result="effect1_dropShadow_197_2315"/>
<feBlend mode="normal" in="SourceGraphic" in2="effect1_dropShadow_197_2315" result="shape"/>
</filter>
<filter id="filter1_d_197_2315" x="0" y="397.593" width="220" height="207.407" filterUnits="userSpaceOnUse" color-interpolation-filters="sRGB">
<feFlood flood-opacity="0" result="BackgroundImageFix"/>
<feColorMatrix in="SourceAlpha" type="matrix" values="0 0 0 0 0 0 0 0 0 0 0 0 0 0 0 0 0 0 127 0" result="hardAlpha"/>
<feOffset/>
<feGaussianBlur stdDeviation="10"/>
<feColorMatrix type="matrix" values="0 0 0 0 0.368627 0 0 0 0 0.384314 0 0 0 0 0.470588 0 0 0 0.04 0"/>
<feBlend mode="normal" in2="BackgroundImageFix" result="effect1_dropShadow_197_2315"/>
<feBlend mode="normal" in="SourceGraphic" in2="effect1_dropShadow_197_2315" result="shape"/>
</filter>
<filter id="filter2_d_197_2315" x="210" y="198.796" width="220" height="207.407" filterUnits="userSpaceOnUse" color-interpolation-filters="sRGB">
<feFlood flood-opacity="0" result="BackgroundImageFix"/>
<feColorMatrix in="SourceAlpha" type="matrix" values="0 0 0 0 0 0 0 0 0 0 0 0 0 0 0 0 0 0 127 0" result="hardAlpha"/>
<feOffset/>
<feGaussianBlur stdDeviation="10"/>
<feColorMatrix type="matrix" values="0 0 0 0 0.368627 0 0 0 0 0.384314 0 0 0 0 0.470588 0 0 0 0.04 0"/>
<feBlend mode="normal" in2="BackgroundImageFix" result="effect1_dropShadow_197_2315"/>
<feBlend mode="normal" in="SourceGraphic" in2="effect1_dropShadow_197_2315" result="shape"/>
</filter>
<filter id="filter3_d_197_2315" x="0" y="198.796" width="220" height="207.407" filterUnits="userSpaceOnUse" color-interpolation-filters="sRGB">
<feFlood flood-opacity="0" result="BackgroundImageFix"/>
<feColorMatrix in="SourceAlpha" type="matrix" values="0 0 0 0 0 0 0 0 0 0 0 0 0 0 0 0 0 0 127 0" result="hardAlpha"/>
<feOffset/>
<feGaussianBlur stdDeviation="10"/>
<feColorMatrix type="matrix" values="0 0 0 0 0.368627 0 0 0 0 0.384314 0 0 0 0 0.470588 0 0 0 0.04 0"/>
<feBlend mode="normal" in2="BackgroundImageFix" result="effect1_dropShadow_197_2315"/>
<feBlend mode="normal" in="SourceGraphic" in2="effect1_dropShadow_197_2315" result="shape"/>
</filter>
<filter id="filter4_d_197_2315" x="210" y="0" width="220" height="207.407" filterUnits="userSpaceOnUse" color-interpolation-filters="sRGB">
<feFlood flood-opacity="0" result="BackgroundImageFix"/>
<feColorMatrix in="SourceAlpha" type="matrix" values="0 0 0 0 0 0 0 0 0 0 0 0 0 0 0 0 0 0 127 0" result="hardAlpha"/>
<feOffset/>
<feGaussianBlur stdDeviation="10"/>
<feColorMatrix type="matrix" values="0 0 0 0 0.368627 0 0 0 0 0.384314 0 0 0 0 0.470588 0 0 0 0.04 0"/>
<feBlend mode="normal" in2="BackgroundImageFix" result="effect1_dropShadow_197_2315"/>
<feBlend mode="normal" in="SourceGraphic" in2="effect1_dropShadow_197_2315" result="shape"/>
</filter>
<filter id="filter5_d_197_2315" x="0" y="0" width="220" height="207.407" filterUnits="userSpaceOnUse" color-interpolation-filters="sRGB">
<feFlood flood-opacity="0" result="BackgroundImageFix"/>
<feColorMatrix in="SourceAlpha" type="matrix" values="0 0 0 0 0 0 0 0 0 0 0 0 0 0 0 0 0 0 127 0" result="hardAlpha"/>
<feOffset/>
<feGaussianBlur stdDeviation="10"/>
<feColorMatrix type="matrix" values="0 0 0 0 0.368627 0 0 0 0 0.384314 0 0 0 0 0.470588 0 0 0 0.04 0"/>
<feBlend mode="normal" in2="BackgroundImageFix" result="effect1_dropShadow_197_2315"/>
<feBlend mode="normal" in="SourceGraphic" in2="effect1_dropShadow_197_2315" result="shape"/>
</filter>
</defs>
</svg>
