<svg width="67" height="55" viewBox="0 0 67 55" fill="none" xmlns="http://www.w3.org/2000/svg">
<path opacity="0.3" fill-rule="evenodd" clip-rule="evenodd" d="M0.631348 2.875C0.631348 1.77043 1.52678 0.875 2.63135 0.875H64.4788C65.5834 0.875 66.4788 1.77043 66.4788 2.875V52.125C66.4788 53.2296 65.5834 54.125 64.4788 54.125H2.63135C1.52678 54.125 0.631348 53.2296 0.631348 52.125V2.875ZM4.74681 7.29167C4.74681 7.01552 4.97067 6.79167 5.24681 6.79167H12.4777C12.7539 6.79167 12.9777 7.01552 12.9777 7.29167V12.2083C12.9777 12.4845 12.7539 12.7083 12.4777 12.7083H5.24681C4.97067 12.7083 4.74681 12.4845 4.74681 12.2083V7.29167ZM54.6324 6.79167C54.3563 6.79167 54.1324 7.01552 54.1324 7.29167V12.2083C54.1324 12.4845 54.3563 12.7083 54.6324 12.7083H61.8633C62.1395 12.7083 62.3633 12.4845 62.3633 12.2083V7.29167C62.3633 7.01552 62.1395 6.79167 61.8633 6.79167H54.6324ZM4.74681 19.125C4.74681 18.8489 4.97067 18.625 5.24681 18.625H12.4777C12.7539 18.625 12.9777 18.8489 12.9777 19.125V24.0417C12.9777 24.3178 12.7539 24.5417 12.4777 24.5417H5.24681C4.97067 24.5417 4.74681 24.3178 4.74681 24.0417V19.125ZM54.6324 18.625C54.3563 18.625 54.1324 18.8489 54.1324 19.125V24.0417C54.1324 24.3178 54.3563 24.5417 54.6324 24.5417H61.8633C62.1395 24.5417 62.3633 24.3178 62.3633 24.0417V19.125C62.3633 18.8489 62.1395 18.625 61.8633 18.625H54.6324ZM4.74681 30.9583C4.74681 30.6822 4.97067 30.4583 5.24681 30.4583H12.4777C12.7539 30.4583 12.9777 30.6822 12.9777 30.9583V35.875C12.9777 36.1511 12.7539 36.375 12.4777 36.375H5.24681C4.97067 36.375 4.74681 36.1511 4.74681 35.875V30.9583ZM54.6324 30.4583C54.3563 30.4583 54.1324 30.6822 54.1324 30.9583V35.875C54.1324 36.1511 54.3563 36.375 54.6324 36.375H61.8633C62.1395 36.375 62.3633 36.1511 62.3633 35.875V30.9583C62.3633 30.6822 62.1395 30.4583 61.8633 30.4583H54.6324ZM54.1324 42.7917C54.1324 42.5155 54.3563 42.2917 54.6324 42.2917H61.8633C62.1395 42.2917 62.3633 42.5155 62.3633 42.7917V47.7083C62.3633 47.9845 62.1395 48.2083 61.8633 48.2083H54.6324C54.3563 48.2083 54.1324 47.9845 54.1324 47.7083V42.7917ZM5.24681 42.2917C4.97067 42.2917 4.74681 42.5155 4.74681 42.7917V47.7083C4.74681 47.9845 4.97067 48.2083 5.24681 48.2083H12.4777C12.7539 48.2083 12.9777 47.9845 12.9777 47.7083V42.7917C12.9777 42.5155 12.7539 42.2917 12.4777 42.2917H5.24681Z" fill="white"/>
</svg>
