<svg width="20" height="20" viewBox="0 0 20 20" fill="none" xmlns="http://www.w3.org/2000/svg">
<path opacity="0.3" fill-rule="evenodd" clip-rule="evenodd" d="M11.2712 2.17666C11.2712 1.34823 11.9428 0.676659 12.7712 0.676659H18.2039C19.0323 0.676659 19.7039 1.34823 19.7039 2.17666V7.59999C19.7039 8.42842 19.0323 9.09999 18.2039 9.09999H12.7712C11.9428 9.09999 11.2712 8.42842 11.2712 7.59999V2.17666ZM0.429199 13.0067C0.429199 12.1782 1.10077 11.5067 1.9292 11.5067H7.36187C8.19029 11.5067 8.86187 12.1782 8.86187 13.0067V18.43C8.86187 19.2584 8.19029 19.93 7.36187 19.93H1.9292C1.10077 19.93 0.429199 19.2584 0.429199 18.43V13.0067ZM12.7712 11.5067C11.9428 11.5067 11.2712 12.1782 11.2712 13.0067V18.43C11.2712 19.2584 11.9428 19.93 12.7712 19.93H18.2039C19.0323 19.93 19.7039 19.2584 19.7039 18.43V13.0067C19.7039 12.1782 19.0323 11.5067 18.2039 11.5067H12.7712Z" fill="#6993FF"/>
</svg>
