<svg width="1343" height="197" viewBox="0 0 1343 197" fill="none" xmlns="http://www.w3.org/2000/svg">
<rect x="0.5" y="0.5" width="209" height="196" rx="11.5" fill="white"/>
<rect x="0.5" y="0.5" width="209" height="196" rx="11.5" stroke="#EFF2F5"/>
<path d="M88.412 130.126C87.536 130.126 86.744 129.976 86.036 129.676C85.34 129.376 84.788 128.944 84.38 128.38C83.972 127.816 83.762 127.15 83.75 126.382H86.45C86.486 126.898 86.666 127.306 86.99 127.606C87.326 127.906 87.782 128.056 88.358 128.056C88.946 128.056 89.408 127.918 89.744 127.642C90.08 127.354 90.248 126.982 90.248 126.526C90.248 126.154 90.134 125.848 89.906 125.608C89.678 125.368 89.39 125.182 89.042 125.05C88.706 124.906 88.238 124.75 87.638 124.582C86.822 124.342 86.156 124.108 85.64 123.88C85.136 123.64 84.698 123.286 84.326 122.818C83.966 122.338 83.786 121.702 83.786 120.91C83.786 120.166 83.972 119.518 84.344 118.966C84.716 118.414 85.238 117.994 85.91 117.706C86.582 117.406 87.35 117.256 88.214 117.256C89.51 117.256 90.56 117.574 91.364 118.21C92.18 118.834 92.63 119.71 92.714 120.838H89.942C89.918 120.406 89.732 120.052 89.384 119.776C89.048 119.488 88.598 119.344 88.034 119.344C87.542 119.344 87.146 119.47 86.846 119.722C86.558 119.974 86.414 120.34 86.414 120.82C86.414 121.156 86.522 121.438 86.738 121.666C86.966 121.882 87.242 122.062 87.566 122.206C87.902 122.338 88.37 122.494 88.97 122.674C89.786 122.914 90.452 123.154 90.968 123.394C91.484 123.634 91.928 123.994 92.3 124.474C92.672 124.954 92.858 125.584 92.858 126.364C92.858 127.036 92.684 127.66 92.336 128.236C91.988 128.812 91.478 129.274 90.806 129.622C90.134 129.958 89.336 130.126 88.412 130.126ZM94.3948 124.978C94.3948 123.97 94.5928 123.076 94.9888 122.296C95.3968 121.516 95.9428 120.916 96.6268 120.496C97.3228 120.076 98.0968 119.866 98.9488 119.866C99.6928 119.866 100.341 120.016 100.893 120.316C101.457 120.616 101.907 120.994 102.243 121.45V120.028H104.781V130H102.243V128.542C101.919 129.01 101.469 129.4 100.893 129.712C100.329 130.012 99.6748 130.162 98.9308 130.162C98.0908 130.162 97.3228 129.946 96.6268 129.514C95.9428 129.082 95.3968 128.476 94.9888 127.696C94.5928 126.904 94.3948 125.998 94.3948 124.978ZM102.243 125.014C102.243 124.402 102.123 123.88 101.883 123.448C101.643 123.004 101.319 122.668 100.911 122.44C100.503 122.2 100.065 122.08 99.5968 122.08C99.1288 122.08 98.6968 122.194 98.3008 122.422C97.9048 122.65 97.5808 122.986 97.3288 123.43C97.0888 123.862 96.9688 124.378 96.9688 124.978C96.9688 125.578 97.0888 126.106 97.3288 126.562C97.5808 127.006 97.9048 127.348 98.3008 127.588C98.7088 127.828 99.1408 127.948 99.5968 127.948C100.065 127.948 100.503 127.834 100.911 127.606C101.319 127.366 101.643 127.03 101.883 126.598C102.123 126.154 102.243 125.626 102.243 125.014ZM106.594 124.978C106.594 123.97 106.792 123.076 107.188 122.296C107.596 121.516 108.142 120.916 108.826 120.496C109.522 120.076 110.296 119.866 111.148 119.866C111.892 119.866 112.54 120.016 113.092 120.316C113.656 120.616 114.106 120.994 114.442 121.45V120.028H116.98V130H114.442V128.542C114.118 129.01 113.668 129.4 113.092 129.712C112.528 130.012 111.874 130.162 111.13 130.162C110.29 130.162 109.522 129.946 108.826 129.514C108.142 129.082 107.596 128.476 107.188 127.696C106.792 126.904 106.594 125.998 106.594 124.978ZM114.442 125.014C114.442 124.402 114.322 123.88 114.082 123.448C113.842 123.004 113.518 122.668 113.11 122.44C112.702 122.2 112.264 122.08 111.796 122.08C111.328 122.08 110.896 122.194 110.5 122.422C110.104 122.65 109.78 122.986 109.528 123.43C109.288 123.862 109.168 124.378 109.168 124.978C109.168 125.578 109.288 126.106 109.528 126.562C109.78 127.006 110.104 127.348 110.5 127.588C110.908 127.828 111.34 127.948 111.796 127.948C112.264 127.948 112.702 127.834 113.11 127.606C113.518 127.366 113.842 127.03 114.082 126.598C114.322 126.154 114.442 125.626 114.442 125.014ZM123.779 130.126C122.903 130.126 122.111 129.976 121.403 129.676C120.707 129.376 120.155 128.944 119.747 128.38C119.339 127.816 119.129 127.15 119.117 126.382H121.817C121.853 126.898 122.033 127.306 122.357 127.606C122.693 127.906 123.149 128.056 123.725 128.056C124.313 128.056 124.775 127.918 125.111 127.642C125.447 127.354 125.615 126.982 125.615 126.526C125.615 126.154 125.501 125.848 125.273 125.608C125.045 125.368 124.757 125.182 124.409 125.05C124.073 124.906 123.605 124.75 123.005 124.582C122.189 124.342 121.523 124.108 121.007 123.88C120.503 123.64 120.065 123.286 119.693 122.818C119.333 122.338 119.153 121.702 119.153 120.91C119.153 120.166 119.339 119.518 119.711 118.966C120.083 118.414 120.605 117.994 121.277 117.706C121.949 117.406 122.717 117.256 123.581 117.256C124.877 117.256 125.927 117.574 126.731 118.21C127.547 118.834 127.997 119.71 128.081 120.838H125.309C125.285 120.406 125.099 120.052 124.751 119.776C124.415 119.488 123.965 119.344 123.401 119.344C122.909 119.344 122.513 119.47 122.213 119.722C121.925 119.974 121.781 120.34 121.781 120.82C121.781 121.156 121.889 121.438 122.105 121.666C122.333 121.882 122.609 122.062 122.933 122.206C123.269 122.338 123.737 122.494 124.337 122.674C125.153 122.914 125.819 123.154 126.335 123.394C126.851 123.634 127.295 123.994 127.667 124.474C128.039 124.954 128.225 125.584 128.225 126.364C128.225 127.036 128.051 127.66 127.703 128.236C127.355 128.812 126.845 129.274 126.173 129.622C125.501 129.958 124.703 130.126 123.779 130.126ZM62.0974 146.606H57.0934L56.2654 149H53.6194L58.1374 136.418H61.0714L65.5894 149H62.9254L62.0974 146.606ZM61.4134 144.59L59.5954 139.334L57.7774 144.59H61.4134ZM69.7981 140.468C70.1221 140.012 70.5661 139.634 71.1301 139.334C71.7061 139.022 72.3601 138.866 73.0921 138.866C73.9441 138.866 74.7121 139.076 75.3961 139.496C76.0921 139.916 76.6381 140.516 77.0341 141.296C77.4421 142.064 77.6461 142.958 77.6461 143.978C77.6461 144.998 77.4421 145.904 77.0341 146.696C76.6381 147.476 76.0921 148.082 75.3961 148.514C74.7121 148.946 73.9441 149.162 73.0921 149.162C72.3601 149.162 71.7121 149.012 71.1481 148.712C70.5961 148.412 70.1461 148.034 69.7981 147.578V153.752H67.2781V139.028H69.7981V140.468ZM75.0721 143.978C75.0721 143.378 74.9461 142.862 74.6941 142.43C74.4541 141.986 74.1301 141.65 73.7221 141.422C73.3261 141.194 72.8941 141.08 72.4261 141.08C71.9701 141.08 71.5381 141.2 71.1301 141.44C70.7341 141.668 70.4101 142.004 70.1581 142.448C69.9181 142.892 69.7981 143.414 69.7981 144.014C69.7981 144.614 69.9181 145.136 70.1581 145.58C70.4101 146.024 70.7341 146.366 71.1301 146.606C71.5381 146.834 71.9701 146.948 72.4261 146.948C72.8941 146.948 73.3261 146.828 73.7221 146.588C74.1301 146.348 74.4541 146.006 74.6941 145.562C74.9461 145.118 75.0721 144.59 75.0721 143.978ZM81.9974 140.468C82.3214 140.012 82.7654 139.634 83.3294 139.334C83.9054 139.022 84.5594 138.866 85.2914 138.866C86.1434 138.866 86.9114 139.076 87.5954 139.496C88.2914 139.916 88.8374 140.516 89.2334 141.296C89.6414 142.064 89.8454 142.958 89.8454 143.978C89.8454 144.998 89.6414 145.904 89.2334 146.696C88.8374 147.476 88.2914 148.082 87.5954 148.514C86.9114 148.946 86.1434 149.162 85.2914 149.162C84.5594 149.162 83.9114 149.012 83.3474 148.712C82.7954 148.412 82.3454 148.034 81.9974 147.578V153.752H79.4774V139.028H81.9974V140.468ZM87.2714 143.978C87.2714 143.378 87.1454 142.862 86.8934 142.43C86.6534 141.986 86.3294 141.65 85.9214 141.422C85.5254 141.194 85.0934 141.08 84.6254 141.08C84.1694 141.08 83.7374 141.2 83.3294 141.44C82.9334 141.668 82.6094 142.004 82.3574 142.448C82.1174 142.892 81.9974 143.414 81.9974 144.014C81.9974 144.614 82.1174 145.136 82.3574 145.58C82.6094 146.024 82.9334 146.366 83.3294 146.606C83.7374 146.834 84.1694 146.948 84.6254 146.948C85.0934 146.948 85.5254 146.828 85.9214 146.588C86.3294 146.348 86.6534 146.006 86.8934 145.562C87.1454 145.118 87.2714 144.59 87.2714 143.978ZM94.1966 135.68V149H91.6766V135.68H94.1966ZM97.9643 137.84C97.5203 137.84 97.1483 137.702 96.8483 137.426C96.5603 137.138 96.4163 136.784 96.4163 136.364C96.4163 135.944 96.5603 135.596 96.8483 135.32C97.1483 135.032 97.5203 134.888 97.9643 134.888C98.4083 134.888 98.7743 135.032 99.0623 135.32C99.3623 135.596 99.5123 135.944 99.5123 136.364C99.5123 136.784 99.3623 137.138 99.0623 137.426C98.7743 137.702 98.4083 137.84 97.9643 137.84ZM99.2063 139.028V149H96.6863V139.028H99.2063ZM101.048 144.014C101.048 142.982 101.258 142.082 101.678 141.314C102.098 140.534 102.68 139.934 103.424 139.514C104.168 139.082 105.02 138.866 105.98 138.866C107.216 138.866 108.236 139.178 109.04 139.802C109.856 140.414 110.402 141.278 110.678 142.394H107.96C107.816 141.962 107.57 141.626 107.222 141.386C106.886 141.134 106.466 141.008 105.962 141.008C105.242 141.008 104.672 141.272 104.252 141.8C103.832 142.316 103.622 143.054 103.622 144.014C103.622 144.962 103.832 145.7 104.252 146.228C104.672 146.744 105.242 147.002 105.962 147.002C106.982 147.002 107.648 146.546 107.96 145.634H110.678C110.402 146.714 109.856 147.572 109.04 148.208C108.224 148.844 107.204 149.162 105.98 149.162C105.02 149.162 104.168 148.952 103.424 148.532C102.68 148.1 102.098 147.5 101.678 146.732C101.258 145.952 101.048 145.046 101.048 144.014ZM111.876 143.978C111.876 142.97 112.074 142.076 112.47 141.296C112.878 140.516 113.424 139.916 114.108 139.496C114.804 139.076 115.578 138.866 116.43 138.866C117.174 138.866 117.822 139.016 118.374 139.316C118.938 139.616 119.388 139.994 119.724 140.45V139.028H122.262V149H119.724V147.542C119.4 148.01 118.95 148.4 118.374 148.712C117.81 149.012 117.156 149.162 116.412 149.162C115.572 149.162 114.804 148.946 114.108 148.514C113.424 148.082 112.878 147.476 112.47 146.696C112.074 145.904 111.876 144.998 111.876 143.978ZM119.724 144.014C119.724 143.402 119.604 142.88 119.364 142.448C119.124 142.004 118.8 141.668 118.392 141.44C117.984 141.2 117.546 141.08 117.078 141.08C116.61 141.08 116.178 141.194 115.782 141.422C115.386 141.65 115.062 141.986 114.81 142.43C114.57 142.862 114.45 143.378 114.45 143.978C114.45 144.578 114.57 145.106 114.81 145.562C115.062 146.006 115.386 146.348 115.782 146.588C116.19 146.828 116.622 146.948 117.078 146.948C117.546 146.948 117.984 146.834 118.392 146.606C118.8 146.366 119.124 146.03 119.364 145.598C119.604 145.154 119.724 144.626 119.724 144.014ZM127.657 141.098V145.922C127.657 146.258 127.735 146.504 127.891 146.66C128.059 146.804 128.335 146.876 128.719 146.876H129.889V149H128.305C126.181 149 125.119 147.968 125.119 145.904V141.098H123.931V139.028H125.119V136.562H127.657V139.028H129.889V141.098H127.657ZM132.98 137.84C132.536 137.84 132.164 137.702 131.864 137.426C131.576 137.138 131.432 136.784 131.432 136.364C131.432 135.944 131.576 135.596 131.864 135.32C132.164 135.032 132.536 134.888 132.98 134.888C133.424 134.888 133.79 135.032 134.078 135.32C134.378 135.596 134.528 135.944 134.528 136.364C134.528 136.784 134.378 137.138 134.078 137.426C133.79 137.702 133.424 137.84 132.98 137.84ZM134.222 139.028V149H131.702V139.028H134.222ZM141.14 149.162C140.18 149.162 139.316 148.952 138.548 148.532C137.78 148.1 137.174 147.494 136.73 146.714C136.298 145.934 136.082 145.034 136.082 144.014C136.082 142.994 136.304 142.094 136.748 141.314C137.204 140.534 137.822 139.934 138.602 139.514C139.382 139.082 140.252 138.866 141.212 138.866C142.172 138.866 143.042 139.082 143.822 139.514C144.602 139.934 145.214 140.534 145.658 141.314C146.114 142.094 146.342 142.994 146.342 144.014C146.342 145.034 146.108 145.934 145.64 146.714C145.184 147.494 144.56 148.1 143.768 148.532C142.988 148.952 142.112 149.162 141.14 149.162ZM141.14 146.966C141.596 146.966 142.022 146.858 142.418 146.642C142.826 146.414 143.15 146.078 143.39 145.634C143.63 145.19 143.75 144.65 143.75 144.014C143.75 143.066 143.498 142.34 142.994 141.836C142.502 141.32 141.896 141.062 141.176 141.062C140.456 141.062 139.85 141.32 139.358 141.836C138.878 142.34 138.638 143.066 138.638 144.014C138.638 144.962 138.872 145.694 139.34 146.21C139.82 146.714 140.42 146.966 141.14 146.966ZM153.716 138.884C154.904 138.884 155.864 139.262 156.596 140.018C157.328 140.762 157.694 141.806 157.694 143.15V149H155.174V143.492C155.174 142.7 154.976 142.094 154.58 141.674C154.184 141.242 153.644 141.026 152.96 141.026C152.264 141.026 151.712 141.242 151.304 141.674C150.908 142.094 150.71 142.7 150.71 143.492V149H148.19V139.028H150.71V140.27C151.046 139.838 151.472 139.502 151.988 139.262C152.516 139.01 153.092 138.884 153.716 138.884Z" fill="#B5B5C3"/>
<path fill-rule="evenodd" clip-rule="evenodd" d="M77.4387 28.125C76.8864 28.125 76.4387 28.5727 76.4387 29.125V87.875C76.4387 88.4273 76.8864 88.875 77.4387 88.875H85.9635C86.5158 88.875 86.9635 88.4273 86.9635 87.875V29.125C86.9635 28.5727 86.5158 28.125 85.9635 28.125H77.4387ZM94.98 28.125C94.4277 28.125 93.98 28.5727 93.98 29.125V87.875C93.98 88.4273 94.4277 88.875 94.98 88.875H103.505C104.057 88.875 104.505 88.4273 104.505 87.875V29.125C104.505 28.5727 104.057 28.125 103.505 28.125H94.98Z" fill="#B5B5C3"/>
<rect opacity="0.3" width="10.4831" height="61.0087" rx="1" transform="matrix(0.949275 -0.314446 0.336987 0.941509 109.687 31.2442)" fill="#B5B5C3"/>
<rect x="270.5" y="0.5" width="209" height="196" rx="11.5" fill="white"/>
<rect x="270.5" y="0.5" width="209" height="196" rx="11.5" stroke="#EFF2F5"/>
<path d="M365.934 114.04V128H363.134V118.92L359.394 128H357.274L353.514 118.92V128H350.714V114.04H353.894L358.334 124.42L362.774 114.04H365.934ZM367.982 122.42C367.982 121.3 368.202 120.307 368.642 119.44C369.096 118.573 369.702 117.907 370.462 117.44C371.236 116.973 372.096 116.74 373.042 116.74C373.869 116.74 374.589 116.907 375.202 117.24C375.829 117.573 376.329 117.993 376.702 118.5V116.92H379.522V128H376.702V126.38C376.342 126.9 375.842 127.333 375.202 127.68C374.576 128.013 373.849 128.18 373.022 128.18C372.089 128.18 371.236 127.94 370.462 127.46C369.702 126.98 369.096 126.307 368.642 125.44C368.202 124.56 367.982 123.553 367.982 122.42ZM376.702 122.46C376.702 121.78 376.569 121.2 376.302 120.72C376.036 120.227 375.676 119.853 375.222 119.6C374.769 119.333 374.282 119.2 373.762 119.2C373.242 119.2 372.762 119.327 372.322 119.58C371.882 119.833 371.522 120.207 371.242 120.7C370.976 121.18 370.842 121.753 370.842 122.42C370.842 123.087 370.976 123.673 371.242 124.18C371.522 124.673 371.882 125.053 372.322 125.32C372.776 125.587 373.256 125.72 373.762 125.72C374.282 125.72 374.769 125.593 375.222 125.34C375.676 125.073 376.036 124.7 376.302 124.22C376.569 123.727 376.702 123.14 376.702 122.46ZM383.677 115.6C383.184 115.6 382.77 115.447 382.437 115.14C382.117 114.82 381.957 114.427 381.957 113.96C381.957 113.493 382.117 113.107 382.437 112.8C382.77 112.48 383.184 112.32 383.677 112.32C384.17 112.32 384.577 112.48 384.897 112.8C385.23 113.107 385.397 113.493 385.397 113.96C385.397 114.427 385.23 114.82 384.897 115.14C384.577 115.447 384.17 115.6 383.677 115.6ZM385.057 116.92V128H382.257V116.92H385.057ZM393.963 116.76C395.283 116.76 396.35 117.18 397.163 118.02C397.977 118.847 398.383 120.007 398.383 121.5V128H395.583V121.88C395.583 121 395.363 120.327 394.923 119.86C394.483 119.38 393.883 119.14 393.123 119.14C392.35 119.14 391.737 119.38 391.283 119.86C390.843 120.327 390.623 121 390.623 121.88V128H387.823V116.92H390.623V118.3C390.997 117.82 391.47 117.447 392.043 117.18C392.63 116.9 393.27 116.76 393.963 116.76ZM319.096 140C319.096 138.627 319.403 137.4 320.016 136.32C320.643 135.227 321.49 134.38 322.556 133.78C323.636 133.167 324.843 132.86 326.176 132.86C327.736 132.86 329.103 133.26 330.276 134.06C331.45 134.86 332.27 135.967 332.736 137.38H329.516C329.196 136.713 328.743 136.213 328.156 135.88C327.583 135.547 326.916 135.38 326.156 135.38C325.343 135.38 324.616 135.573 323.976 135.96C323.35 136.333 322.856 136.867 322.496 137.56C322.15 138.253 321.976 139.067 321.976 140C321.976 140.92 322.15 141.733 322.496 142.44C322.856 143.133 323.35 143.673 323.976 144.06C324.616 144.433 325.343 144.62 326.156 144.62C326.916 144.62 327.583 144.453 328.156 144.12C328.743 143.773 329.196 143.267 329.516 142.6H332.736C332.27 144.027 331.45 145.14 330.276 145.94C329.116 146.727 327.75 147.12 326.176 147.12C324.843 147.12 323.636 146.82 322.556 146.22C321.49 145.607 320.643 144.76 320.016 143.68C319.403 142.6 319.096 141.373 319.096 140ZM334.408 141.42C334.408 140.3 334.628 139.307 335.068 138.44C335.521 137.573 336.128 136.907 336.888 136.44C337.661 135.973 338.521 135.74 339.468 135.74C340.295 135.74 341.015 135.907 341.628 136.24C342.255 136.573 342.755 136.993 343.128 137.5V135.92H345.948V147H343.128V145.38C342.768 145.9 342.268 146.333 341.628 146.68C341.001 147.013 340.275 147.18 339.448 147.18C338.515 147.18 337.661 146.94 336.888 146.46C336.128 145.98 335.521 145.307 335.068 144.44C334.628 143.56 334.408 142.553 334.408 141.42ZM343.128 141.46C343.128 140.78 342.995 140.2 342.728 139.72C342.461 139.227 342.101 138.853 341.648 138.6C341.195 138.333 340.708 138.2 340.188 138.2C339.668 138.2 339.188 138.327 338.748 138.58C338.308 138.833 337.948 139.207 337.668 139.7C337.401 140.18 337.268 140.753 337.268 141.42C337.268 142.087 337.401 142.673 337.668 143.18C337.948 143.673 338.308 144.053 338.748 144.32C339.201 144.587 339.681 144.72 340.188 144.72C340.708 144.72 341.195 144.593 341.648 144.34C342.101 144.073 342.461 143.7 342.728 143.22C342.995 142.727 343.128 142.14 343.128 141.46ZM351.943 138.22V143.58C351.943 143.953 352.029 144.227 352.203 144.4C352.389 144.56 352.696 144.64 353.123 144.64H354.423V147H352.663C350.303 147 349.123 145.853 349.123 143.56V138.22H347.803V135.92H349.123V133.18H351.943V135.92H354.423V138.22H351.943ZM366.737 141.22C366.737 141.62 366.71 141.98 366.657 142.3H358.557C358.623 143.1 358.903 143.727 359.397 144.18C359.89 144.633 360.497 144.86 361.217 144.86C362.257 144.86 362.997 144.413 363.437 143.52H366.457C366.137 144.587 365.523 145.467 364.617 146.16C363.71 146.84 362.597 147.18 361.277 147.18C360.21 147.18 359.25 146.947 358.397 146.48C357.557 146 356.897 145.327 356.417 144.46C355.95 143.593 355.717 142.593 355.717 141.46C355.717 140.313 355.95 139.307 356.417 138.44C356.883 137.573 357.537 136.907 358.377 136.44C359.217 135.973 360.183 135.74 361.277 135.74C362.33 135.74 363.27 135.967 364.097 136.42C364.937 136.873 365.583 137.52 366.037 138.36C366.503 139.187 366.737 140.14 366.737 141.22ZM363.837 140.42C363.823 139.7 363.563 139.127 363.057 138.7C362.55 138.26 361.93 138.04 361.197 138.04C360.503 138.04 359.917 138.253 359.437 138.68C358.97 139.093 358.683 139.673 358.577 140.42H363.837ZM373.12 135.74C373.947 135.74 374.674 135.907 375.3 136.24C375.927 136.56 376.42 136.98 376.78 137.5V135.92H379.6V147.08C379.6 148.107 379.394 149.02 378.98 149.82C378.567 150.633 377.947 151.273 377.12 151.74C376.294 152.22 375.294 152.46 374.12 152.46C372.547 152.46 371.254 152.093 370.24 151.36C369.24 150.627 368.674 149.627 368.54 148.36H371.32C371.467 148.867 371.78 149.267 372.26 149.56C372.754 149.867 373.347 150.02 374.04 150.02C374.854 150.02 375.514 149.773 376.02 149.28C376.527 148.8 376.78 148.067 376.78 147.08V145.36C376.42 145.88 375.92 146.313 375.28 146.66C374.654 147.007 373.934 147.18 373.12 147.18C372.187 147.18 371.334 146.94 370.56 146.46C369.787 145.98 369.174 145.307 368.72 144.44C368.28 143.56 368.06 142.553 368.06 141.42C368.06 140.3 368.28 139.307 368.72 138.44C369.174 137.573 369.78 136.907 370.54 136.44C371.314 135.973 372.174 135.74 373.12 135.74ZM376.78 141.46C376.78 140.78 376.647 140.2 376.38 139.72C376.114 139.227 375.754 138.853 375.3 138.6C374.847 138.333 374.36 138.2 373.84 138.2C373.32 138.2 372.84 138.327 372.4 138.58C371.96 138.833 371.6 139.207 371.32 139.7C371.054 140.18 370.92 140.753 370.92 141.42C370.92 142.087 371.054 142.673 371.32 143.18C371.6 143.673 371.96 144.053 372.4 144.32C372.854 144.587 373.334 144.72 373.84 144.72C374.36 144.72 374.847 144.593 375.3 144.34C375.754 144.073 376.114 143.7 376.38 143.22C376.647 142.727 376.78 142.14 376.78 141.46ZM387.255 147.18C386.188 147.18 385.228 146.947 384.375 146.48C383.522 146 382.848 145.327 382.355 144.46C381.875 143.593 381.635 142.593 381.635 141.46C381.635 140.327 381.882 139.327 382.375 138.46C382.882 137.593 383.568 136.927 384.435 136.46C385.302 135.98 386.268 135.74 387.335 135.74C388.402 135.74 389.368 135.98 390.235 136.46C391.102 136.927 391.782 137.593 392.275 138.46C392.782 139.327 393.035 140.327 393.035 141.46C393.035 142.593 392.775 143.593 392.255 144.46C391.748 145.327 391.055 146 390.175 146.48C389.308 146.947 388.335 147.18 387.255 147.18ZM387.255 144.74C387.762 144.74 388.235 144.62 388.675 144.38C389.128 144.127 389.488 143.753 389.755 143.26C390.022 142.767 390.155 142.167 390.155 141.46C390.155 140.407 389.875 139.6 389.315 139.04C388.768 138.467 388.095 138.18 387.295 138.18C386.495 138.18 385.822 138.467 385.275 139.04C384.742 139.6 384.475 140.407 384.475 141.46C384.475 142.513 384.735 143.327 385.255 143.9C385.788 144.46 386.455 144.74 387.255 144.74ZM397.889 137.64C398.249 137.053 398.716 136.593 399.289 136.26C399.876 135.927 400.542 135.76 401.289 135.76V138.7H400.549C399.669 138.7 399.002 138.907 398.549 139.32C398.109 139.733 397.889 140.453 397.889 141.48V147H395.089V135.92H397.889V137.64ZM404.595 134.6C404.102 134.6 403.688 134.447 403.355 134.14C403.035 133.82 402.875 133.427 402.875 132.96C402.875 132.493 403.035 132.107 403.355 131.8C403.688 131.48 404.102 131.32 404.595 131.32C405.088 131.32 405.495 131.48 405.815 131.8C406.148 132.107 406.315 132.493 406.315 132.96C406.315 133.427 406.148 133.82 405.815 134.14C405.495 134.447 405.088 134.6 404.595 134.6ZM405.975 135.92V147H403.175V135.92H405.975ZM419.041 141.22C419.041 141.62 419.015 141.98 418.961 142.3H410.861C410.928 143.1 411.208 143.727 411.701 144.18C412.195 144.633 412.801 144.86 413.521 144.86C414.561 144.86 415.301 144.413 415.741 143.52H418.761C418.441 144.587 417.828 145.467 416.921 146.16C416.015 146.84 414.901 147.18 413.581 147.18C412.515 147.18 411.555 146.947 410.701 146.48C409.861 146 409.201 145.327 408.721 144.46C408.255 143.593 408.021 142.593 408.021 141.46C408.021 140.313 408.255 139.307 408.721 138.44C409.188 137.573 409.841 136.907 410.681 136.44C411.521 135.973 412.488 135.74 413.581 135.74C414.635 135.74 415.575 135.967 416.401 136.42C417.241 136.873 417.888 137.52 418.341 138.36C418.808 139.187 419.041 140.14 419.041 141.22ZM416.141 140.42C416.128 139.7 415.868 139.127 415.361 138.7C414.855 138.26 414.235 138.04 413.501 138.04C412.808 138.04 412.221 138.253 411.741 138.68C411.275 139.093 410.988 139.673 410.881 140.42H416.141ZM425.325 147.18C424.418 147.18 423.605 147.02 422.885 146.7C422.165 146.367 421.592 145.92 421.165 145.36C420.752 144.8 420.525 144.18 420.485 143.5H423.305C423.358 143.927 423.565 144.28 423.925 144.56C424.298 144.84 424.758 144.98 425.305 144.98C425.838 144.98 426.252 144.873 426.545 144.66C426.852 144.447 427.005 144.173 427.005 143.84C427.005 143.48 426.818 143.213 426.445 143.04C426.085 142.853 425.505 142.653 424.705 142.44C423.878 142.24 423.198 142.033 422.665 141.82C422.145 141.607 421.692 141.28 421.305 140.84C420.932 140.4 420.745 139.807 420.745 139.06C420.745 138.447 420.918 137.887 421.265 137.38C421.625 136.873 422.132 136.473 422.785 136.18C423.452 135.887 424.232 135.74 425.125 135.74C426.445 135.74 427.498 136.073 428.285 136.74C429.072 137.393 429.505 138.28 429.585 139.4H426.905C426.865 138.96 426.678 138.613 426.345 138.36C426.025 138.093 425.592 137.96 425.045 137.96C424.538 137.96 424.145 138.053 423.865 138.24C423.598 138.427 423.465 138.687 423.465 139.02C423.465 139.393 423.652 139.68 424.025 139.88C424.398 140.067 424.978 140.26 425.765 140.46C426.565 140.66 427.225 140.867 427.745 141.08C428.265 141.293 428.712 141.627 429.085 142.08C429.472 142.52 429.672 143.107 429.685 143.84C429.685 144.48 429.505 145.053 429.145 145.56C428.798 146.067 428.292 146.467 427.625 146.76C426.972 147.04 426.205 147.18 425.325 147.18Z" fill="#B5B5C3"/>
<rect x="352.004" y="28.5" width="20.501" height="23.625" rx="1.5" fill="#B5B5C3"/>
<path opacity="0.3" fill-rule="evenodd" clip-rule="evenodd" d="M378.363 30C378.363 29.1716 379.034 28.5 379.863 28.5H397.364C398.192 28.5 398.864 29.1716 398.864 30V50.625C398.864 51.4534 398.192 52.125 397.364 52.125H379.863C379.034 52.125 378.363 51.4534 378.363 50.625V30ZM352.004 60.375C352.004 59.5466 352.676 58.875 353.504 58.875H371.005C371.834 58.875 372.505 59.5466 372.505 60.375V81C372.505 81.8284 371.834 82.5 371.005 82.5H353.504C352.676 82.5 352.004 81.8284 352.004 81V60.375ZM379.863 58.875C379.034 58.875 378.363 59.5466 378.363 60.375V81C378.363 81.8284 379.034 82.5 379.863 82.5H397.364C398.192 82.5 398.864 81.8284 398.864 81V60.375C398.864 59.5466 398.192 58.875 397.364 58.875H379.863Z" fill="#B5B5C3"/>
<rect x="571" width="210" height="197" rx="12" fill="#50CD89"/>
<path d="M673.201 120.04L668.081 134H664.681L659.561 120.04H662.561L666.401 131.14L670.221 120.04H673.201ZM676.3 121.6C675.807 121.6 675.393 121.447 675.06 121.14C674.74 120.82 674.58 120.427 674.58 119.96C674.58 119.493 674.74 119.107 675.06 118.8C675.393 118.48 675.807 118.32 676.3 118.32C676.793 118.32 677.2 118.48 677.52 118.8C677.853 119.107 678.02 119.493 678.02 119.96C678.02 120.427 677.853 120.82 677.52 121.14C677.2 121.447 676.793 121.6 676.3 121.6ZM677.68 122.92V134H674.88V122.92H677.68ZM679.726 128.42C679.726 127.3 679.946 126.307 680.386 125.44C680.84 124.573 681.453 123.907 682.226 123.44C683 122.973 683.86 122.74 684.806 122.74C685.526 122.74 686.213 122.9 686.866 123.22C687.52 123.527 688.04 123.94 688.426 124.46V119.2H691.266V134H688.426V132.36C688.08 132.907 687.593 133.347 686.966 133.68C686.34 134.013 685.613 134.18 684.786 134.18C683.853 134.18 683 133.94 682.226 133.46C681.453 132.98 680.84 132.307 680.386 131.44C679.946 130.56 679.726 129.553 679.726 128.42ZM688.446 128.46C688.446 127.78 688.313 127.2 688.046 126.72C687.78 126.227 687.42 125.853 686.966 125.6C686.513 125.333 686.026 125.2 685.506 125.2C684.986 125.2 684.506 125.327 684.066 125.58C683.626 125.833 683.266 126.207 682.986 126.7C682.72 127.18 682.586 127.753 682.586 128.42C682.586 129.087 682.72 129.673 682.986 130.18C683.266 130.673 683.626 131.053 684.066 131.32C684.52 131.587 685 131.72 685.506 131.72C686.026 131.72 686.513 131.593 686.966 131.34C687.42 131.073 687.78 130.7 688.046 130.22C688.313 129.727 688.446 129.14 688.446 128.46ZM704.301 128.22C704.301 128.62 704.274 128.98 704.221 129.3H696.121C696.188 130.1 696.468 130.727 696.961 131.18C697.454 131.633 698.061 131.86 698.781 131.86C699.821 131.86 700.561 131.413 701.001 130.52H704.021C703.701 131.587 703.088 132.467 702.181 133.16C701.274 133.84 700.161 134.18 698.841 134.18C697.774 134.18 696.814 133.947 695.961 133.48C695.121 133 694.461 132.327 693.981 131.46C693.514 130.593 693.281 129.593 693.281 128.46C693.281 127.313 693.514 126.307 693.981 125.44C694.448 124.573 695.101 123.907 695.941 123.44C696.781 122.973 697.748 122.74 698.841 122.74C699.894 122.74 700.834 122.967 701.661 123.42C702.501 123.873 703.148 124.52 703.601 125.36C704.068 126.187 704.301 127.14 704.301 128.22ZM701.401 127.42C701.388 126.7 701.128 126.127 700.621 125.7C700.114 125.26 699.494 125.04 698.761 125.04C698.068 125.04 697.481 125.253 697.001 125.68C696.534 126.093 696.248 126.673 696.141 127.42H701.401ZM711.265 134.18C710.198 134.18 709.238 133.947 708.385 133.48C707.532 133 706.858 132.327 706.365 131.46C705.885 130.593 705.645 129.593 705.645 128.46C705.645 127.327 705.892 126.327 706.385 125.46C706.892 124.593 707.578 123.927 708.445 123.46C709.312 122.98 710.278 122.74 711.345 122.74C712.412 122.74 713.378 122.98 714.245 123.46C715.112 123.927 715.792 124.593 716.285 125.46C716.792 126.327 717.045 127.327 717.045 128.46C717.045 129.593 716.785 130.593 716.265 131.46C715.758 132.327 715.065 133 714.185 133.48C713.318 133.947 712.345 134.18 711.265 134.18ZM711.265 131.74C711.772 131.74 712.245 131.62 712.685 131.38C713.138 131.127 713.498 130.753 713.765 130.26C714.032 129.767 714.165 129.167 714.165 128.46C714.165 127.407 713.885 126.6 713.325 126.04C712.778 125.467 712.105 125.18 711.305 125.18C710.505 125.18 709.832 125.467 709.285 126.04C708.752 126.6 708.485 127.407 708.485 128.46C708.485 129.513 708.745 130.327 709.265 130.9C709.798 131.46 710.465 131.74 711.265 131.74ZM654.907 139.04V141.3H651.187V153H648.387V141.3H644.667V139.04H654.907ZM667.41 141.92V153H664.59V151.6C664.23 152.08 663.757 152.46 663.17 152.74C662.597 153.007 661.97 153.14 661.29 153.14C660.424 153.14 659.657 152.96 658.99 152.6C658.324 152.227 657.797 151.687 657.41 150.98C657.037 150.26 656.85 149.407 656.85 148.42V141.92H659.65V148.02C659.65 148.9 659.87 149.58 660.31 150.06C660.75 150.527 661.35 150.76 662.11 150.76C662.884 150.76 663.49 150.527 663.93 150.06C664.37 149.58 664.59 148.9 664.59 148.02V141.92H667.41ZM673.433 144.22V149.58C673.433 149.953 673.52 150.227 673.693 150.4C673.88 150.56 674.186 150.64 674.613 150.64H675.913V153H674.153C671.793 153 670.613 151.853 670.613 149.56V144.22H669.293V141.92H670.613V139.18H673.433V141.92H675.913V144.22H673.433ZM682.847 153.18C681.78 153.18 680.82 152.947 679.967 152.48C679.114 152 678.44 151.327 677.947 150.46C677.467 149.593 677.227 148.593 677.227 147.46C677.227 146.327 677.474 145.327 677.967 144.46C678.474 143.593 679.16 142.927 680.027 142.46C680.894 141.98 681.86 141.74 682.927 141.74C683.994 141.74 684.96 141.98 685.827 142.46C686.694 142.927 687.374 143.593 687.867 144.46C688.374 145.327 688.627 146.327 688.627 147.46C688.627 148.593 688.367 149.593 687.847 150.46C687.34 151.327 686.647 152 685.767 152.48C684.9 152.947 683.927 153.18 682.847 153.18ZM682.847 150.74C683.354 150.74 683.827 150.62 684.267 150.38C684.72 150.127 685.08 149.753 685.347 149.26C685.614 148.767 685.747 148.167 685.747 147.46C685.747 146.407 685.467 145.6 684.907 145.04C684.36 144.467 683.687 144.18 682.887 144.18C682.087 144.18 681.414 144.467 680.867 145.04C680.334 145.6 680.067 146.407 680.067 147.46C680.067 148.513 680.327 149.327 680.847 149.9C681.38 150.46 682.047 150.74 682.847 150.74ZM693.481 143.64C693.841 143.053 694.307 142.593 694.881 142.26C695.467 141.927 696.134 141.76 696.881 141.76V144.7H696.141C695.261 144.7 694.594 144.907 694.141 145.32C693.701 145.733 693.481 146.453 693.481 147.48V153H690.681V141.92H693.481V143.64ZM700.187 140.6C699.693 140.6 699.28 140.447 698.947 140.14C698.627 139.82 698.467 139.427 698.467 138.96C698.467 138.493 698.627 138.107 698.947 137.8C699.28 137.48 699.693 137.32 700.187 137.32C700.68 137.32 701.087 137.48 701.407 137.8C701.74 138.107 701.907 138.493 701.907 138.96C701.907 139.427 701.74 139.82 701.407 140.14C701.087 140.447 700.68 140.6 700.187 140.6ZM701.567 141.92V153H698.767V141.92H701.567ZM703.613 147.42C703.613 146.3 703.833 145.307 704.273 144.44C704.726 143.573 705.333 142.907 706.093 142.44C706.866 141.973 707.726 141.74 708.673 141.74C709.5 141.74 710.22 141.907 710.833 142.24C711.46 142.573 711.96 142.993 712.333 143.5V141.92H715.153V153H712.333V151.38C711.973 151.9 711.473 152.333 710.833 152.68C710.206 153.013 709.48 153.18 708.653 153.18C707.72 153.18 706.866 152.94 706.093 152.46C705.333 151.98 704.726 151.307 704.273 150.44C703.833 149.56 703.613 148.553 703.613 147.42ZM712.333 147.46C712.333 146.78 712.2 146.2 711.933 145.72C711.666 145.227 711.306 144.853 710.853 144.6C710.4 144.333 709.913 144.2 709.393 144.2C708.873 144.2 708.393 144.327 707.953 144.58C707.513 144.833 707.153 145.207 706.873 145.7C706.606 146.18 706.473 146.753 706.473 147.42C706.473 148.087 706.606 148.673 706.873 149.18C707.153 149.673 707.513 150.053 707.953 150.32C708.406 150.587 708.886 150.72 709.393 150.72C709.913 150.72 710.4 150.593 710.853 150.34C711.306 150.073 711.666 149.7 711.933 149.22C712.2 148.727 712.333 148.14 712.333 147.46ZM720.688 138.2V153H717.888V138.2H720.688ZM727.694 153.18C726.788 153.18 725.974 153.02 725.254 152.7C724.534 152.367 723.961 151.92 723.534 151.36C723.121 150.8 722.894 150.18 722.854 149.5H725.674C725.728 149.927 725.934 150.28 726.294 150.56C726.668 150.84 727.128 150.98 727.674 150.98C728.208 150.98 728.621 150.873 728.914 150.66C729.221 150.447 729.374 150.173 729.374 149.84C729.374 149.48 729.188 149.213 728.814 149.04C728.454 148.853 727.874 148.653 727.074 148.44C726.248 148.24 725.568 148.033 725.034 147.82C724.514 147.607 724.061 147.28 723.674 146.84C723.301 146.4 723.114 145.807 723.114 145.06C723.114 144.447 723.288 143.887 723.634 143.38C723.994 142.873 724.501 142.473 725.154 142.18C725.821 141.887 726.601 141.74 727.494 141.74C728.814 141.74 729.868 142.073 730.654 142.74C731.441 143.393 731.874 144.28 731.954 145.4H729.274C729.234 144.96 729.048 144.613 728.714 144.36C728.394 144.093 727.961 143.96 727.414 143.96C726.908 143.96 726.514 144.053 726.234 144.24C725.968 144.427 725.834 144.687 725.834 145.02C725.834 145.393 726.021 145.68 726.394 145.88C726.768 146.067 727.348 146.26 728.134 146.46C728.934 146.66 729.594 146.867 730.114 147.08C730.634 147.293 731.081 147.627 731.454 148.08C731.841 148.52 732.041 149.107 732.054 149.84C732.054 150.48 731.874 151.053 731.514 151.56C731.168 152.067 730.661 152.467 729.994 152.76C729.341 153.04 728.574 153.18 727.694 153.18Z" fill="white"/>
<path opacity="0.3" fill-rule="evenodd" clip-rule="evenodd" d="M642.631 34.875C642.631 33.7704 643.527 32.875 644.631 32.875H706.479C707.583 32.875 708.479 33.7704 708.479 34.875V84.125C708.479 85.2296 707.583 86.125 706.479 86.125H644.631C643.527 86.125 642.631 85.2296 642.631 84.125V34.875ZM646.747 39.2917C646.747 39.0155 646.971 38.7917 647.247 38.7917H654.478C654.754 38.7917 654.978 39.0155 654.978 39.2917V44.2083C654.978 44.4845 654.754 44.7083 654.478 44.7083H647.247C646.971 44.7083 646.747 44.4845 646.747 44.2083V39.2917ZM696.632 38.7917C696.356 38.7917 696.132 39.0155 696.132 39.2917V44.2083C696.132 44.4845 696.356 44.7083 696.632 44.7083H703.863C704.139 44.7083 704.363 44.4845 704.363 44.2083V39.2917C704.363 39.0155 704.139 38.7917 703.863 38.7917H696.632ZM646.747 51.125C646.747 50.8489 646.971 50.625 647.247 50.625H654.478C654.754 50.625 654.978 50.8489 654.978 51.125V56.0417C654.978 56.3178 654.754 56.5417 654.478 56.5417H647.247C646.971 56.5417 646.747 56.3178 646.747 56.0417V51.125ZM696.632 50.625C696.356 50.625 696.132 50.8489 696.132 51.125V56.0417C696.132 56.3178 696.356 56.5417 696.632 56.5417H703.863C704.139 56.5417 704.363 56.3178 704.363 56.0417V51.125C704.363 50.8489 704.139 50.625 703.863 50.625H696.632ZM646.747 62.9583C646.747 62.6822 646.971 62.4583 647.247 62.4583H654.478C654.754 62.4583 654.978 62.6822 654.978 62.9583V67.875C654.978 68.1511 654.754 68.375 654.478 68.375H647.247C646.971 68.375 646.747 68.1511 646.747 67.875V62.9583ZM696.632 62.4583C696.356 62.4583 696.132 62.6822 696.132 62.9583V67.875C696.132 68.1511 696.356 68.375 696.632 68.375H703.863C704.139 68.375 704.363 68.1511 704.363 67.875V62.9583C704.363 62.6822 704.139 62.4583 703.863 62.4583H696.632ZM696.132 74.7917C696.132 74.5155 696.356 74.2917 696.632 74.2917H703.863C704.139 74.2917 704.363 74.5155 704.363 74.7917V79.7083C704.363 79.9845 704.139 80.2083 703.863 80.2083H696.632C696.356 80.2083 696.132 79.9845 696.132 79.7083V74.7917ZM647.247 74.2917C646.971 74.2917 646.747 74.5155 646.747 74.7917V79.7083C646.747 79.9845 646.971 80.2083 647.247 80.2083H654.478C654.754 80.2083 654.978 79.9845 654.978 79.7083V74.7917C654.978 74.5155 654.754 74.2917 654.478 74.2917H647.247Z" fill="white"/>
<path fill-rule="evenodd" clip-rule="evenodd" d="M669.67 67.8885C669.67 68.2587 670.058 68.5005 670.39 68.3372L685.175 61.0725C685.548 60.8896 685.548 60.3593 685.176 60.1755L670.392 52.8649C670.059 52.7006 669.67 52.9424 669.67 53.3131V67.8885Z" fill="white"/>
<rect x="847.5" y="0.5" width="209" height="196" rx="11.5" fill="white"/>
<rect x="847.5" y="0.5" width="209" height="196" rx="11.5" stroke="#EFF2F5"/>
<path d="M940.425 134.14C939.451 134.14 938.571 133.973 937.785 133.64C937.011 133.307 936.398 132.827 935.945 132.2C935.491 131.573 935.258 130.833 935.245 129.98H938.245C938.285 130.553 938.485 131.007 938.845 131.34C939.218 131.673 939.725 131.84 940.365 131.84C941.018 131.84 941.531 131.687 941.905 131.38C942.278 131.06 942.465 130.647 942.465 130.14C942.465 129.727 942.338 129.387 942.085 129.12C941.831 128.853 941.511 128.647 941.125 128.5C940.751 128.34 940.231 128.167 939.565 127.98C938.658 127.713 937.918 127.453 937.345 127.2C936.785 126.933 936.298 126.54 935.885 126.02C935.485 125.487 935.285 124.78 935.285 123.9C935.285 123.073 935.491 122.353 935.905 121.74C936.318 121.127 936.898 120.66 937.645 120.34C938.391 120.007 939.245 119.84 940.205 119.84C941.645 119.84 942.811 120.193 943.705 120.9C944.611 121.593 945.111 122.567 945.205 123.82H942.125C942.098 123.34 941.891 122.947 941.505 122.64C941.131 122.32 940.631 122.16 940.005 122.16C939.458 122.16 939.018 122.3 938.685 122.58C938.365 122.86 938.205 123.267 938.205 123.8C938.205 124.173 938.325 124.487 938.565 124.74C938.818 124.98 939.125 125.18 939.485 125.34C939.858 125.487 940.378 125.66 941.045 125.86C941.951 126.127 942.691 126.393 943.265 126.66C943.838 126.927 944.331 127.327 944.745 127.86C945.158 128.393 945.365 129.093 945.365 129.96C945.365 130.707 945.171 131.4 944.785 132.04C944.398 132.68 943.831 133.193 943.085 133.58C942.338 133.953 941.451 134.14 940.425 134.14ZM947.072 128.42C947.072 127.3 947.292 126.307 947.732 125.44C948.185 124.573 948.792 123.907 949.552 123.44C950.325 122.973 951.185 122.74 952.132 122.74C952.959 122.74 953.679 122.907 954.292 123.24C954.919 123.573 955.419 123.993 955.792 124.5V122.92H958.612V134H955.792V132.38C955.432 132.9 954.932 133.333 954.292 133.68C953.665 134.013 952.939 134.18 952.112 134.18C951.179 134.18 950.325 133.94 949.552 133.46C948.792 132.98 948.185 132.307 947.732 131.44C947.292 130.56 947.072 129.553 947.072 128.42ZM955.792 128.46C955.792 127.78 955.659 127.2 955.392 126.72C955.125 126.227 954.765 125.853 954.312 125.6C953.859 125.333 953.372 125.2 952.852 125.2C952.332 125.2 951.852 125.327 951.412 125.58C950.972 125.833 950.612 126.207 950.332 126.7C950.065 127.18 949.932 127.753 949.932 128.42C949.932 129.087 950.065 129.673 950.332 130.18C950.612 130.673 950.972 131.053 951.412 131.32C951.865 131.587 952.345 131.72 952.852 131.72C953.372 131.72 953.859 131.593 954.312 131.34C954.765 131.073 955.125 130.7 955.392 130.22C955.659 129.727 955.792 129.14 955.792 128.46ZM964.147 119.2V134H961.347V119.2H964.147ZM977.213 128.22C977.213 128.62 977.187 128.98 977.133 129.3H969.033C969.1 130.1 969.38 130.727 969.873 131.18C970.367 131.633 970.973 131.86 971.693 131.86C972.733 131.86 973.473 131.413 973.913 130.52H976.933C976.613 131.587 976 132.467 975.093 133.16C974.187 133.84 973.073 134.18 971.753 134.18C970.687 134.18 969.727 133.947 968.873 133.48C968.033 133 967.373 132.327 966.893 131.46C966.427 130.593 966.193 129.593 966.193 128.46C966.193 127.313 966.427 126.307 966.893 125.44C967.36 124.573 968.013 123.907 968.853 123.44C969.693 122.973 970.66 122.74 971.753 122.74C972.807 122.74 973.747 122.967 974.573 123.42C975.413 123.873 976.06 124.52 976.513 125.36C976.98 126.187 977.213 127.14 977.213 128.22ZM974.313 127.42C974.3 126.7 974.04 126.127 973.533 125.7C973.027 125.26 972.407 125.04 971.673 125.04C970.98 125.04 970.393 125.253 969.913 125.68C969.447 126.093 969.16 126.673 969.053 127.42H974.313ZM983.497 134.18C982.59 134.18 981.777 134.02 981.057 133.7C980.337 133.367 979.764 132.92 979.337 132.36C978.924 131.8 978.697 131.18 978.657 130.5H981.477C981.53 130.927 981.737 131.28 982.097 131.56C982.47 131.84 982.93 131.98 983.477 131.98C984.01 131.98 984.424 131.873 984.717 131.66C985.024 131.447 985.177 131.173 985.177 130.84C985.177 130.48 984.99 130.213 984.617 130.04C984.257 129.853 983.677 129.653 982.877 129.44C982.05 129.24 981.37 129.033 980.837 128.82C980.317 128.607 979.864 128.28 979.477 127.84C979.104 127.4 978.917 126.807 978.917 126.06C978.917 125.447 979.09 124.887 979.437 124.38C979.797 123.873 980.304 123.473 980.957 123.18C981.624 122.887 982.404 122.74 983.297 122.74C984.617 122.74 985.67 123.073 986.457 123.74C987.244 124.393 987.677 125.28 987.757 126.4H985.077C985.037 125.96 984.85 125.613 984.517 125.36C984.197 125.093 983.764 124.96 983.217 124.96C982.71 124.96 982.317 125.053 982.037 125.24C981.77 125.427 981.637 125.687 981.637 126.02C981.637 126.393 981.824 126.68 982.197 126.88C982.57 127.067 983.15 127.26 983.937 127.46C984.737 127.66 985.397 127.867 985.917 128.08C986.437 128.293 986.884 128.627 987.257 129.08C987.644 129.52 987.844 130.107 987.857 130.84C987.857 131.48 987.677 132.053 987.317 132.56C986.97 133.067 986.464 133.467 985.797 133.76C985.144 134.04 984.377 134.18 983.497 134.18ZM920.718 153.14C919.744 153.14 918.864 152.973 918.078 152.64C917.304 152.307 916.691 151.827 916.238 151.2C915.784 150.573 915.551 149.833 915.538 148.98H918.538C918.578 149.553 918.778 150.007 919.138 150.34C919.511 150.673 920.018 150.84 920.658 150.84C921.311 150.84 921.824 150.687 922.198 150.38C922.571 150.06 922.758 149.647 922.758 149.14C922.758 148.727 922.631 148.387 922.378 148.12C922.124 147.853 921.804 147.647 921.418 147.5C921.044 147.34 920.524 147.167 919.858 146.98C918.951 146.713 918.211 146.453 917.638 146.2C917.078 145.933 916.591 145.54 916.178 145.02C915.778 144.487 915.578 143.78 915.578 142.9C915.578 142.073 915.784 141.353 916.198 140.74C916.611 140.127 917.191 139.66 917.938 139.34C918.684 139.007 919.538 138.84 920.498 138.84C921.938 138.84 923.104 139.193 923.998 139.9C924.904 140.593 925.404 141.567 925.498 142.82H922.418C922.391 142.34 922.184 141.947 921.798 141.64C921.424 141.32 920.924 141.16 920.298 141.16C919.751 141.16 919.311 141.3 918.978 141.58C918.658 141.86 918.498 142.267 918.498 142.8C918.498 143.173 918.618 143.487 918.858 143.74C919.111 143.98 919.418 144.18 919.778 144.34C920.151 144.487 920.671 144.66 921.338 144.86C922.244 145.127 922.984 145.393 923.558 145.66C924.131 145.927 924.624 146.327 925.038 146.86C925.451 147.393 925.658 148.093 925.658 148.96C925.658 149.707 925.464 150.4 925.078 151.04C924.691 151.68 924.124 152.193 923.378 152.58C922.631 152.953 921.744 153.14 920.718 153.14ZM931.345 144.22V149.58C931.345 149.953 931.432 150.227 931.605 150.4C931.792 150.56 932.098 150.64 932.525 150.64H933.825V153H932.065C929.705 153 928.525 151.853 928.525 149.56V144.22H927.205V141.92H928.525V139.18H931.345V141.92H933.825V144.22H931.345ZM935.119 147.42C935.119 146.3 935.339 145.307 935.779 144.44C936.232 143.573 936.839 142.907 937.599 142.44C938.372 141.973 939.232 141.74 940.179 141.74C941.006 141.74 941.726 141.907 942.339 142.24C942.966 142.573 943.466 142.993 943.839 143.5V141.92H946.659V153H943.839V151.38C943.479 151.9 942.979 152.333 942.339 152.68C941.712 153.013 940.986 153.18 940.159 153.18C939.226 153.18 938.372 152.94 937.599 152.46C936.839 151.98 936.232 151.307 935.779 150.44C935.339 149.56 935.119 148.553 935.119 147.42ZM943.839 147.46C943.839 146.78 943.706 146.2 943.439 145.72C943.172 145.227 942.812 144.853 942.359 144.6C941.906 144.333 941.419 144.2 940.899 144.2C940.379 144.2 939.899 144.327 939.459 144.58C939.019 144.833 938.659 145.207 938.379 145.7C938.112 146.18 937.979 146.753 937.979 147.42C937.979 148.087 938.112 148.673 938.379 149.18C938.659 149.673 939.019 150.053 939.459 150.32C939.912 150.587 940.392 150.72 940.899 150.72C941.419 150.72 941.906 150.593 942.359 150.34C942.812 150.073 943.172 149.7 943.439 149.22C943.706 148.727 943.839 148.14 943.839 147.46ZM952.654 144.22V149.58C952.654 149.953 952.74 150.227 952.914 150.4C953.1 150.56 953.407 150.64 953.834 150.64H955.134V153H953.374C951.014 153 949.834 151.853 949.834 149.56V144.22H948.514V141.92H949.834V139.18H952.654V141.92H955.134V144.22H952.654ZM958.568 140.6C958.074 140.6 957.661 140.447 957.328 140.14C957.008 139.82 956.848 139.427 956.848 138.96C956.848 138.493 957.008 138.107 957.328 137.8C957.661 137.48 958.074 137.32 958.568 137.32C959.061 137.32 959.468 137.48 959.788 137.8C960.121 138.107 960.288 138.493 960.288 138.96C960.288 139.427 960.121 139.82 959.788 140.14C959.468 140.447 959.061 140.6 958.568 140.6ZM959.948 141.92V153H957.148V141.92H959.948ZM966.954 153.18C966.047 153.18 965.234 153.02 964.514 152.7C963.794 152.367 963.221 151.92 962.794 151.36C962.381 150.8 962.154 150.18 962.114 149.5H964.934C964.987 149.927 965.194 150.28 965.554 150.56C965.927 150.84 966.387 150.98 966.934 150.98C967.467 150.98 967.881 150.873 968.174 150.66C968.481 150.447 968.634 150.173 968.634 149.84C968.634 149.48 968.447 149.213 968.074 149.04C967.714 148.853 967.134 148.653 966.334 148.44C965.507 148.24 964.827 148.033 964.294 147.82C963.774 147.607 963.321 147.28 962.934 146.84C962.561 146.4 962.374 145.807 962.374 145.06C962.374 144.447 962.547 143.887 962.894 143.38C963.254 142.873 963.761 142.473 964.414 142.18C965.081 141.887 965.861 141.74 966.754 141.74C968.074 141.74 969.127 142.073 969.914 142.74C970.701 143.393 971.134 144.28 971.214 145.4H968.534C968.494 144.96 968.307 144.613 967.974 144.36C967.654 144.093 967.221 143.96 966.674 143.96C966.167 143.96 965.774 144.053 965.494 144.24C965.227 144.427 965.094 144.687 965.094 145.02C965.094 145.393 965.281 145.68 965.654 145.88C966.027 146.067 966.607 146.26 967.394 146.46C968.194 146.66 968.854 146.867 969.374 147.08C969.894 147.293 970.341 147.627 970.714 148.08C971.101 148.52 971.301 149.107 971.314 149.84C971.314 150.48 971.134 151.053 970.774 151.56C970.427 152.067 969.921 152.467 969.254 152.76C968.601 153.04 967.834 153.18 966.954 153.18ZM976.872 144.22V149.58C976.872 149.953 976.959 150.227 977.132 150.4C977.319 150.56 977.626 150.64 978.052 150.64H979.352V153H977.592C975.232 153 974.052 151.853 974.052 149.56V144.22H972.732V141.92H974.052V139.18H976.872V141.92H979.352V144.22H976.872ZM982.786 140.6C982.293 140.6 981.88 140.447 981.546 140.14C981.226 139.82 981.066 139.427 981.066 138.96C981.066 138.493 981.226 138.107 981.546 137.8C981.88 137.48 982.293 137.32 982.786 137.32C983.28 137.32 983.686 137.48 984.006 137.8C984.34 138.107 984.506 138.493 984.506 138.96C984.506 139.427 984.34 139.82 984.006 140.14C983.686 140.447 983.28 140.6 982.786 140.6ZM984.166 141.92V153H981.366V141.92H984.166ZM986.213 147.46C986.213 146.313 986.446 145.313 986.913 144.46C987.379 143.593 988.026 142.927 988.853 142.46C989.679 141.98 990.626 141.74 991.693 141.74C993.066 141.74 994.199 142.087 995.093 142.78C995.999 143.46 996.606 144.42 996.913 145.66H993.893C993.733 145.18 993.459 144.807 993.073 144.54C992.699 144.26 992.233 144.12 991.673 144.12C990.873 144.12 990.239 144.413 989.773 145C989.306 145.573 989.073 146.393 989.073 147.46C989.073 148.513 989.306 149.333 989.773 149.92C990.239 150.493 990.873 150.78 991.673 150.78C992.806 150.78 993.546 150.273 993.893 149.26H996.913C996.606 150.46 995.999 151.413 995.093 152.12C994.186 152.827 993.053 153.18 991.693 153.18C990.626 153.18 989.679 152.947 988.853 152.48C988.026 152 987.379 151.333 986.913 150.48C986.446 149.613 986.213 148.607 986.213 147.46ZM1003.2 153.18C1002.3 153.18 1001.48 153.02 1000.76 152.7C1000.04 152.367 999.471 151.92 999.044 151.36C998.631 150.8 998.404 150.18 998.364 149.5H1001.18C1001.24 149.927 1001.44 150.28 1001.8 150.56C1002.18 150.84 1002.64 150.98 1003.18 150.98C1003.72 150.98 1004.13 150.873 1004.42 150.66C1004.73 150.447 1004.88 150.173 1004.88 149.84C1004.88 149.48 1004.7 149.213 1004.32 149.04C1003.96 148.853 1003.38 148.653 1002.58 148.44C1001.76 148.24 1001.08 148.033 1000.54 147.82C1000.02 147.607 999.571 147.28 999.184 146.84C998.811 146.4 998.624 145.807 998.624 145.06C998.624 144.447 998.797 143.887 999.144 143.38C999.504 142.873 1000.01 142.473 1000.66 142.18C1001.33 141.887 1002.11 141.74 1003 141.74C1004.32 141.74 1005.38 142.073 1006.16 142.74C1006.95 143.393 1007.38 144.28 1007.46 145.4H1004.78C1004.74 144.96 1004.56 144.613 1004.22 144.36C1003.9 144.093 1003.47 143.96 1002.92 143.96C1002.42 143.96 1002.02 144.053 1001.74 144.24C1001.48 144.427 1001.34 144.687 1001.34 145.02C1001.34 145.393 1001.53 145.68 1001.9 145.88C1002.28 146.067 1002.86 146.26 1003.64 146.46C1004.44 146.66 1005.1 146.867 1005.62 147.08C1006.14 147.293 1006.59 147.627 1006.96 148.08C1007.35 148.52 1007.55 149.107 1007.56 149.84C1007.56 150.48 1007.38 151.053 1007.02 151.56C1006.68 152.067 1006.17 152.467 1005.5 152.76C1004.85 153.04 1004.08 153.18 1003.2 153.18Z" fill="#B5B5C3"/>
<rect opacity="0.3" x="955.5" y="35.3333" width="10.5" height="57.3333" rx="2" fill="#B5B5C3"/>
<rect x="938" y="53.25" width="10.5" height="39.4167" rx="2" fill="#B5B5C3"/>
<rect x="973" y="60.4167" width="10.5" height="32.25" rx="2" fill="#B5B5C3"/>
<rect x="920.5" y="67.5833" width="10.5" height="25.0833" rx="2" fill="#B5B5C3"/>
<rect x="1111.5" y="0.5" width="209" height="196" rx="11.5" fill="white"/>
<rect x="1111.5" y="0.5" width="209" height="196" rx="11.5" stroke="#EFF2F5"/>
<path d="M1199.7 139.34H1194.14L1193.22 142H1190.28L1195.3 128.02H1198.56L1203.58 142H1200.62L1199.7 139.34ZM1198.94 137.1L1196.92 131.26L1194.9 137.1H1198.94ZM1212.66 142L1209.58 136.56H1208.26V142H1205.46V128.04H1210.7C1211.78 128.04 1212.7 128.233 1213.46 128.62C1214.22 128.993 1214.78 129.507 1215.16 130.16C1215.54 130.8 1215.74 131.52 1215.74 132.32C1215.74 133.24 1215.47 134.073 1214.94 134.82C1214.4 135.553 1213.61 136.06 1212.56 136.34L1215.9 142H1212.66ZM1208.26 134.46H1210.6C1211.36 134.46 1211.92 134.28 1212.3 133.92C1212.67 133.547 1212.86 133.033 1212.86 132.38C1212.86 131.74 1212.67 131.247 1212.3 130.9C1211.92 130.54 1211.36 130.36 1210.6 130.36H1208.26V134.46ZM1217.59 135C1217.59 133.627 1217.9 132.4 1218.51 131.32C1219.14 130.227 1219.98 129.38 1221.05 128.78C1222.13 128.167 1223.34 127.86 1224.67 127.86C1226.23 127.86 1227.6 128.26 1228.77 129.06C1229.94 129.86 1230.76 130.967 1231.23 132.38H1228.01C1227.69 131.713 1227.24 131.213 1226.65 130.88C1226.08 130.547 1225.41 130.38 1224.65 130.38C1223.84 130.38 1223.11 130.573 1222.47 130.96C1221.84 131.333 1221.35 131.867 1220.99 132.56C1220.64 133.253 1220.47 134.067 1220.47 135C1220.47 135.92 1220.64 136.733 1220.99 137.44C1221.35 138.133 1221.84 138.673 1222.47 139.06C1223.11 139.433 1223.84 139.62 1224.65 139.62C1225.41 139.62 1226.08 139.453 1226.65 139.12C1227.24 138.773 1227.69 138.267 1228.01 137.6H1231.23C1230.76 139.027 1229.94 140.14 1228.77 140.94C1227.61 141.727 1226.24 142.12 1224.67 142.12C1223.34 142.12 1222.13 141.82 1221.05 141.22C1219.98 140.607 1219.14 139.76 1218.51 138.68C1217.9 137.6 1217.59 136.373 1217.59 135ZM1175.55 161.14C1174.58 161.14 1173.7 160.973 1172.91 160.64C1172.14 160.307 1171.52 159.827 1171.07 159.2C1170.62 158.573 1170.38 157.833 1170.37 156.98H1173.37C1173.41 157.553 1173.61 158.007 1173.97 158.34C1174.34 158.673 1174.85 158.84 1175.49 158.84C1176.14 158.84 1176.66 158.687 1177.03 158.38C1177.4 158.06 1177.59 157.647 1177.59 157.14C1177.59 156.727 1177.46 156.387 1177.21 156.12C1176.96 155.853 1176.64 155.647 1176.25 155.5C1175.88 155.34 1175.36 155.167 1174.69 154.98C1173.78 154.713 1173.04 154.453 1172.47 154.2C1171.91 153.933 1171.42 153.54 1171.01 153.02C1170.61 152.487 1170.41 151.78 1170.41 150.9C1170.41 150.073 1170.62 149.353 1171.03 148.74C1171.44 148.127 1172.02 147.66 1172.77 147.34C1173.52 147.007 1174.37 146.84 1175.33 146.84C1176.77 146.84 1177.94 147.193 1178.83 147.9C1179.74 148.593 1180.24 149.567 1180.33 150.82H1177.25C1177.22 150.34 1177.02 149.947 1176.63 149.64C1176.26 149.32 1175.76 149.16 1175.13 149.16C1174.58 149.16 1174.14 149.3 1173.81 149.58C1173.49 149.86 1173.33 150.267 1173.33 150.8C1173.33 151.173 1173.45 151.487 1173.69 151.74C1173.94 151.98 1174.25 152.18 1174.61 152.34C1174.98 152.487 1175.5 152.66 1176.17 152.86C1177.08 153.127 1177.82 153.393 1178.39 153.66C1178.96 153.927 1179.46 154.327 1179.87 154.86C1180.28 155.393 1180.49 156.093 1180.49 156.96C1180.49 157.707 1180.3 158.4 1179.91 159.04C1179.52 159.68 1178.96 160.193 1178.21 160.58C1177.46 160.953 1176.58 161.14 1175.55 161.14ZM1193.22 155.22C1193.22 155.62 1193.19 155.98 1193.14 156.3H1185.04C1185.1 157.1 1185.38 157.727 1185.88 158.18C1186.37 158.633 1186.98 158.86 1187.7 158.86C1188.74 158.86 1189.48 158.413 1189.92 157.52H1192.94C1192.62 158.587 1192 159.467 1191.1 160.16C1190.19 160.84 1189.08 161.18 1187.76 161.18C1186.69 161.18 1185.73 160.947 1184.88 160.48C1184.04 160 1183.38 159.327 1182.9 158.46C1182.43 157.593 1182.2 156.593 1182.2 155.46C1182.2 154.313 1182.43 153.307 1182.9 152.44C1183.36 151.573 1184.02 150.907 1184.86 150.44C1185.7 149.973 1186.66 149.74 1187.76 149.74C1188.81 149.74 1189.75 149.967 1190.58 150.42C1191.42 150.873 1192.06 151.52 1192.52 152.36C1192.98 153.187 1193.22 154.14 1193.22 155.22ZM1190.32 154.42C1190.3 153.7 1190.04 153.127 1189.54 152.7C1189.03 152.26 1188.41 152.04 1187.68 152.04C1186.98 152.04 1186.4 152.253 1185.92 152.68C1185.45 153.093 1185.16 153.673 1185.06 154.42H1190.32ZM1194.54 155.46C1194.54 154.313 1194.77 153.313 1195.24 152.46C1195.71 151.593 1196.35 150.927 1197.18 150.46C1198.01 149.98 1198.95 149.74 1200.02 149.74C1201.39 149.74 1202.53 150.087 1203.42 150.78C1204.33 151.46 1204.93 152.42 1205.24 153.66H1202.22C1202.06 153.18 1201.79 152.807 1201.4 152.54C1201.03 152.26 1200.56 152.12 1200 152.12C1199.2 152.12 1198.57 152.413 1198.1 153C1197.63 153.573 1197.4 154.393 1197.4 155.46C1197.4 156.513 1197.63 157.333 1198.1 157.92C1198.57 158.493 1199.2 158.78 1200 158.78C1201.13 158.78 1201.87 158.273 1202.22 157.26H1205.24C1204.93 158.46 1204.33 159.413 1203.42 160.12C1202.51 160.827 1201.38 161.18 1200.02 161.18C1198.95 161.18 1198.01 160.947 1197.18 160.48C1196.35 160 1195.71 159.333 1195.24 158.48C1194.77 157.613 1194.54 156.607 1194.54 155.46ZM1217.75 149.92V161H1214.93V159.6C1214.57 160.08 1214.1 160.46 1213.51 160.74C1212.94 161.007 1212.31 161.14 1211.63 161.14C1210.77 161.14 1210 160.96 1209.33 160.6C1208.67 160.227 1208.14 159.687 1207.75 158.98C1207.38 158.26 1207.19 157.407 1207.19 156.42V149.92H1209.99V156.02C1209.99 156.9 1210.21 157.58 1210.65 158.06C1211.09 158.527 1211.69 158.76 1212.45 158.76C1213.23 158.76 1213.83 158.527 1214.27 158.06C1214.71 157.58 1214.93 156.9 1214.93 156.02V149.92H1217.75ZM1223.31 151.64C1223.67 151.053 1224.14 150.593 1224.71 150.26C1225.3 149.927 1225.97 149.76 1226.71 149.76V152.7H1225.97C1225.09 152.7 1224.43 152.907 1223.97 153.32C1223.53 153.733 1223.31 154.453 1223.31 155.48V161H1220.51V149.92H1223.31V151.64ZM1230.02 148.6C1229.53 148.6 1229.11 148.447 1228.78 148.14C1228.46 147.82 1228.3 147.427 1228.3 146.96C1228.3 146.493 1228.46 146.107 1228.78 145.8C1229.11 145.48 1229.53 145.32 1230.02 145.32C1230.51 145.32 1230.92 145.48 1231.24 145.8C1231.57 146.107 1231.74 146.493 1231.74 146.96C1231.74 147.427 1231.57 147.82 1231.24 148.14C1230.92 148.447 1230.51 148.6 1230.02 148.6ZM1231.4 149.92V161H1228.6V149.92H1231.4ZM1237.43 152.22V157.58C1237.43 157.953 1237.51 158.227 1237.69 158.4C1237.87 158.56 1238.18 158.64 1238.61 158.64H1239.91V161H1238.15C1235.79 161 1234.61 159.853 1234.61 157.56V152.22H1233.29V149.92H1234.61V147.18H1237.43V149.92H1239.91V152.22H1237.43ZM1252.52 149.92L1245.66 166.24H1242.68L1245.08 160.72L1240.64 149.92H1243.78L1246.64 157.66L1249.54 149.92H1252.52Z" fill="#B5B5C3"/>
<path opacity="0.3" fill-rule="evenodd" clip-rule="evenodd" d="M1184.87 46.5L1216.23 41.8559C1216.43 41.8271 1216.63 41.8271 1216.82 41.8559L1248.19 46.5V83.4123C1248.19 87.5992 1245.81 91.4232 1242.05 93.2763L1216.97 105.657C1216.69 105.794 1216.36 105.794 1216.08 105.657L1191 93.2763C1187.25 91.4232 1184.87 87.5992 1184.87 83.4123V46.5Z" fill="#B5B5C3"/>
<path fill-rule="evenodd" clip-rule="evenodd" d="M1213.26 80.0938C1212.31 80.0938 1211.37 79.7943 1210.61 79.1953L1203.02 73.2057C1201.51 72.0078 1201.51 70.2109 1203.02 69.013C1204.54 67.8151 1207 67.8151 1208.33 69.013L1213.26 72.9062L1225.78 63.0234C1227.29 61.8255 1229.57 61.8255 1231.09 63.0234C1232.6 64.2214 1232.6 66.0182 1231.09 67.2161L1215.92 79.1953C1215.16 79.7943 1214.21 80.0938 1213.26 80.0938Z" fill="#B5B5C3"/>
</svg>
