<svg width="988" height="197" viewBox="0 0 988 197" fill="none" xmlns="http://www.w3.org/2000/svg">
<g clip-path="url(#clip0_197_2263)">
<rect x="0.5" y="0.5" width="143" height="196" rx="11.5" fill="white"/>
<rect x="0.5" y="0.5" width="143" height="196" rx="11.5" stroke="#EFF2F5"/>
<path d="M59.2785 122.172C59.2785 118.728 54.2665 119.82 54.2665 117.86C54.2665 117.062 54.8405 116.684 55.6105 116.712C56.4505 116.726 56.9685 117.23 57.0105 117.874H59.1665C59.0405 116.11 57.6685 115.088 55.6665 115.088C53.6505 115.088 52.2225 116.152 52.2225 117.916C52.2085 121.458 57.2485 120.184 57.2485 122.298C57.2485 122.998 56.7025 123.488 55.7785 123.488C54.8685 123.488 54.3505 122.97 54.2945 122.186H52.1945C52.2225 124.034 53.7905 125.098 55.8205 125.098C58.0465 125.098 59.2785 123.712 59.2785 122.172ZM60.4737 121.094C60.4737 123.516 62.0417 125.126 64.0017 125.126C65.2337 125.126 66.1157 124.538 66.5777 123.866V125H68.5517V117.244H66.5777V118.35C66.1157 117.706 65.2617 117.118 64.0157 117.118C62.0417 117.118 60.4737 118.672 60.4737 121.094ZM66.5777 121.122C66.5777 122.592 65.5977 123.404 64.5197 123.404C63.4697 123.404 62.4757 122.564 62.4757 121.094C62.4757 119.624 63.4697 118.84 64.5197 118.84C65.5977 118.84 66.5777 119.652 66.5777 121.122ZM69.962 121.094C69.962 123.516 71.53 125.126 73.49 125.126C74.722 125.126 75.604 124.538 76.066 123.866V125H78.04V117.244H76.066V118.35C75.604 117.706 74.75 117.118 73.504 117.118C71.53 117.118 69.962 118.672 69.962 121.094ZM76.066 121.122C76.066 122.592 75.086 123.404 74.008 123.404C72.958 123.404 71.964 122.564 71.964 121.094C71.964 119.624 72.958 118.84 74.008 118.84C75.086 118.84 76.066 119.652 76.066 121.122ZM86.7863 122.172C86.7863 118.728 81.7743 119.82 81.7743 117.86C81.7743 117.062 82.3483 116.684 83.1183 116.712C83.9583 116.726 84.4763 117.23 84.5183 117.874H86.6743C86.5483 116.11 85.1763 115.088 83.1743 115.088C81.1583 115.088 79.7303 116.152 79.7303 117.916C79.7163 121.458 84.7563 120.184 84.7563 122.298C84.7563 122.998 84.2103 123.488 83.2863 123.488C82.3763 123.488 81.8583 122.97 81.8023 122.186H79.7023C79.7303 124.034 81.2983 125.098 83.3283 125.098C85.5543 125.098 86.7863 123.712 86.7863 122.172ZM35.9975 144H38.0695L34.5555 134.214H32.2735L28.7595 144H30.8175L31.4615 142.138H35.3535L35.9975 144ZM34.8215 140.57H31.9935L33.4075 136.482L34.8215 140.57ZM41.343 137.364V136.244H39.383V147.696H41.343V142.894C41.819 143.524 42.687 144.126 43.905 144.126C45.893 144.126 47.447 142.516 47.447 140.094C47.447 137.672 45.893 136.118 43.905 136.118C42.701 136.118 41.805 136.706 41.343 137.364ZM45.445 140.094C45.445 141.564 44.451 142.404 43.387 142.404C42.337 142.404 41.343 141.592 41.343 140.122C41.343 138.652 42.337 137.84 43.387 137.84C44.451 137.84 45.445 138.624 45.445 140.094ZM50.8313 137.364V136.244H48.8713V147.696H50.8313V142.894C51.3073 143.524 52.1753 144.126 53.3933 144.126C55.3813 144.126 56.9353 142.516 56.9353 140.094C56.9353 137.672 55.3813 136.118 53.3933 136.118C52.1893 136.118 51.2933 136.706 50.8313 137.364ZM54.9333 140.094C54.9333 141.564 53.9393 142.404 52.8753 142.404C51.8253 142.404 50.8313 141.592 50.8313 140.122C50.8313 138.652 51.8253 137.84 52.8753 137.84C53.9393 137.84 54.9333 138.624 54.9333 140.094ZM58.3596 144H60.3196V133.64H58.3596V144ZM62.256 144H64.216V136.244H62.256V144ZM63.25 135.32C63.936 135.32 64.454 134.816 64.454 134.172C64.454 133.528 63.936 133.024 63.25 133.024C62.55 133.024 62.046 133.528 62.046 134.172C62.046 134.816 62.55 135.32 63.25 135.32ZM65.6485 140.122C65.6485 142.558 67.2445 144.126 69.4845 144.126C71.4165 144.126 72.7185 143.034 73.1385 141.382H71.0245C70.7865 142.082 70.2825 142.446 69.4705 142.446C68.3785 142.446 67.6505 141.634 67.6505 140.122C67.6505 138.61 68.3785 137.784 69.4705 137.784C70.2825 137.784 70.8005 138.204 71.0245 138.862H73.1385C72.7185 137.126 71.4165 136.118 69.4845 136.118C67.2445 136.118 65.6485 137.686 65.6485 140.122ZM74.0704 140.094C74.0704 142.516 75.6384 144.126 77.5984 144.126C78.8304 144.126 79.7124 143.538 80.1744 142.866V144H82.1484V136.244H80.1744V137.35C79.7124 136.706 78.8584 136.118 77.6124 136.118C75.6384 136.118 74.0704 137.672 74.0704 140.094ZM80.1744 140.122C80.1744 141.592 79.1944 142.404 78.1164 142.404C77.0664 142.404 76.0724 141.564 76.0724 140.094C76.0724 138.624 77.0664 137.84 78.1164 137.84C79.1944 137.84 80.1744 138.652 80.1744 140.122ZM84.3707 141.592C84.3707 143.37 85.3647 144 86.8487 144H88.0807V142.348H87.1707C86.5547 142.348 86.3447 142.124 86.3447 141.606V137.854H88.0807V136.244H86.3447V134.326H84.3707V136.244H83.4467V137.854H84.3707V141.592ZM89.4904 144H91.4504V136.244H89.4904V144ZM90.4844 135.32C91.1704 135.32 91.6884 134.816 91.6884 134.172C91.6884 133.528 91.1704 133.024 90.4844 133.024C89.7844 133.024 89.2804 133.528 89.2804 134.172C89.2804 134.816 89.7844 135.32 90.4844 135.32ZM100.877 140.122C100.877 137.672 99.1269 136.118 96.8869 136.118C94.6469 136.118 92.8969 137.672 92.8969 140.122C92.8969 142.558 94.5909 144.126 96.8309 144.126C99.0849 144.126 100.877 142.558 100.877 140.122ZM94.8849 140.122C94.8849 138.568 95.8229 137.826 96.8589 137.826C97.8949 137.826 98.8609 138.568 98.8609 140.122C98.8609 141.662 97.8669 142.418 96.8309 142.418C95.7809 142.418 94.8849 141.662 94.8849 140.122ZM107.747 144H109.707V139.45C109.707 137.308 108.419 136.132 106.613 136.132C105.619 136.132 104.779 136.552 104.275 137.21V136.244H102.315V144H104.275V139.716C104.275 138.47 104.961 137.798 106.025 137.798C107.061 137.798 107.747 138.47 107.747 139.716V144Z" fill="#B5B5C3"/>
<path fill-rule="evenodd" clip-rule="evenodd" d="M55 54C54.4477 54 54 54.4477 54 55V89C54 89.5523 54.4477 90 55 90H59C59.5523 90 60 89.5523 60 89V55C60 54.4477 59.5523 54 59 54H55ZM65 54C64.4477 54 64 54.4477 64 55V89C64 89.5523 64.4477 90 65 90H69C69.5523 90 70 89.5523 70 89V55C70 54.4477 69.5523 54 69 54H65Z" fill="#B5B5C3"/>
<rect opacity="0.3" x="72.9546" y="55.8484" width="6" height="36" rx="1" transform="rotate(-19 72.9546 55.8484)" fill="#B5B5C3"/>
<rect x="211.5" y="0.5" width="143" height="196" rx="11.5" fill="white"/>
<rect x="211.5" y="0.5" width="143" height="196" rx="11.5" stroke="#EFF2F5"/>
<path d="M263.85 125H265.81V118.644L268.442 125H269.926L272.544 118.644V125H274.504V115.228H272.292L269.184 122.494L266.076 115.228H263.85V125ZM275.938 121.094C275.938 123.516 277.506 125.126 279.466 125.126C280.698 125.126 281.58 124.538 282.042 123.866V125H284.016V117.244H282.042V118.35C281.58 117.706 280.726 117.118 279.48 117.118C277.506 117.118 275.938 118.672 275.938 121.094ZM282.042 121.122C282.042 122.592 281.062 123.404 279.984 123.404C278.934 123.404 277.94 122.564 277.94 121.094C277.94 119.624 278.934 118.84 279.984 118.84C281.062 118.84 282.042 119.652 282.042 121.122ZM285.93 125H287.89V117.244H285.93V125ZM286.924 116.32C287.61 116.32 288.128 115.816 288.128 115.172C288.128 114.528 287.61 114.024 286.924 114.024C286.224 114.024 285.72 114.528 285.72 115.172C285.72 115.816 286.224 116.32 286.924 116.32ZM295.258 125H297.218V120.45C297.218 118.308 295.93 117.132 294.124 117.132C293.13 117.132 292.29 117.552 291.786 118.21V117.244H289.826V125H291.786V120.716C291.786 119.47 292.472 118.798 293.536 118.798C294.572 118.798 295.258 119.47 295.258 120.716V125ZM241.718 139.1C241.718 142.026 243.86 144.084 246.674 144.084C248.844 144.084 250.608 142.936 251.266 140.92H249.012C248.55 141.872 247.71 142.334 246.66 142.334C244.952 142.334 243.734 141.074 243.734 139.1C243.734 137.112 244.952 135.866 246.66 135.866C247.71 135.866 248.55 136.328 249.012 137.266H251.266C250.608 135.264 248.844 134.102 246.674 134.102C243.86 134.102 241.718 136.174 241.718 139.1ZM252.436 140.094C252.436 142.516 254.004 144.126 255.964 144.126C257.196 144.126 258.078 143.538 258.54 142.866V144H260.514V136.244H258.54V137.35C258.078 136.706 257.224 136.118 255.978 136.118C254.004 136.118 252.436 137.672 252.436 140.094ZM258.54 140.122C258.54 141.592 257.56 142.404 256.482 142.404C255.432 142.404 254.438 141.564 254.438 140.094C254.438 138.624 255.432 137.84 256.482 137.84C257.56 137.84 258.54 138.652 258.54 140.122ZM262.736 141.592C262.736 143.37 263.73 144 265.214 144H266.446V142.348H265.536C264.92 142.348 264.71 142.124 264.71 141.606V137.854H266.446V136.244H264.71V134.326H262.736V136.244H261.812V137.854H262.736V141.592ZM271.188 137.728C272.196 137.728 273.008 138.372 273.036 139.394H269.354C269.508 138.33 270.25 137.728 271.188 137.728ZM274.87 141.564H272.756C272.504 142.082 272.042 142.502 271.202 142.502C270.222 142.502 269.438 141.858 269.34 140.71H275.01C275.052 140.458 275.066 140.206 275.066 139.954C275.066 137.644 273.484 136.118 271.244 136.118C268.948 136.118 267.352 137.672 267.352 140.122C267.352 142.558 268.99 144.126 271.244 144.126C273.162 144.126 274.45 142.992 274.87 141.564ZM275.992 140.094C275.992 142.516 277.56 144.126 279.534 144.126C280.752 144.126 281.634 143.524 282.096 142.852V144.056C282.096 145.498 281.256 146.114 280.178 146.114C279.198 146.114 278.47 145.652 278.274 144.952H276.328C276.524 146.73 278.05 147.822 280.234 147.822C282.782 147.822 284.07 146.156 284.07 144.056V136.244H282.096V137.35C281.634 136.678 280.752 136.118 279.534 136.118C277.56 136.118 275.992 137.672 275.992 140.094ZM282.096 140.122C282.096 141.592 281.116 142.404 280.038 142.404C278.988 142.404 277.994 141.564 277.994 140.094C277.994 138.624 278.988 137.84 280.038 137.84C281.116 137.84 282.096 138.652 282.096 140.122ZM293.475 140.122C293.475 137.672 291.725 136.118 289.485 136.118C287.245 136.118 285.495 137.672 285.495 140.122C285.495 142.558 287.189 144.126 289.429 144.126C291.683 144.126 293.475 142.558 293.475 140.122ZM287.483 140.122C287.483 138.568 288.421 137.826 289.457 137.826C290.493 137.826 291.459 138.568 291.459 140.122C291.459 141.662 290.465 142.418 289.429 142.418C288.379 142.418 287.483 141.662 287.483 140.122ZM296.872 140.136C296.872 138.638 297.572 138.19 298.734 138.19H299.252V136.132C298.174 136.132 297.362 136.65 296.872 137.448V136.244H294.912V144H296.872V140.136ZM300.572 144H302.532V136.244H300.572V144ZM301.566 135.32C302.252 135.32 302.77 134.816 302.77 134.172C302.77 133.528 302.252 133.024 301.566 133.024C300.866 133.024 300.362 133.528 300.362 134.172C300.362 134.816 300.866 135.32 301.566 135.32ZM307.801 137.728C308.809 137.728 309.621 138.372 309.649 139.394H305.967C306.121 138.33 306.863 137.728 307.801 137.728ZM311.483 141.564H309.369C309.117 142.082 308.655 142.502 307.815 142.502C306.835 142.502 306.051 141.858 305.953 140.71H311.623C311.665 140.458 311.679 140.206 311.679 139.954C311.679 137.644 310.097 136.118 307.857 136.118C305.561 136.118 303.965 137.672 303.965 140.122C303.965 142.558 305.603 144.126 307.857 144.126C309.775 144.126 311.063 142.992 311.483 141.564ZM319.13 141.788C319.074 138.946 314.776 139.828 314.776 138.414C314.776 137.966 315.154 137.672 315.882 137.672C316.652 137.672 317.128 138.078 317.184 138.68H319.06C318.948 137.14 317.814 136.118 315.938 136.118C314.02 136.118 312.872 137.154 312.872 138.442C312.872 141.284 317.254 140.402 317.254 141.788C317.254 142.236 316.834 142.586 316.064 142.586C315.28 142.586 314.734 142.138 314.664 141.55H312.69C312.774 142.992 314.132 144.126 316.078 144.126C317.968 144.126 319.13 143.118 319.13 141.788Z" fill="#B5B5C3"/>
<rect x="265" y="56" width="14" height="14" rx="1.5" fill="#B5B5C3"/>
<path opacity="0.3" fill-rule="evenodd" clip-rule="evenodd" d="M283 57.5C283 56.6716 283.672 56 284.5 56H295.5C296.328 56 297 56.6716 297 57.5V68.5C297 69.3284 296.328 70 295.5 70H284.5C283.672 70 283 69.3284 283 68.5V57.5ZM265 75.5C265 74.6716 265.672 74 266.5 74H277.5C278.328 74 279 74.6716 279 75.5V86.5C279 87.3284 278.328 88 277.5 88H266.5C265.672 88 265 87.3284 265 86.5V75.5ZM284.5 74C283.672 74 283 74.6716 283 75.5V86.5C283 87.3284 283.672 88 284.5 88H295.5C296.328 88 297 87.3284 297 86.5V75.5C297 74.6716 296.328 74 295.5 74H284.5Z" fill="#B5B5C3"/>
<rect x="422" width="144" height="197" rx="12" fill="#50CD89"/>
<path d="M476.031 122.998L473.343 115.228H471.243L474.827 125H477.207L480.791 115.228H478.705L476.031 122.998ZM481.966 125H483.926V117.244H481.966V125ZM482.96 116.32C483.646 116.32 484.164 115.816 484.164 115.172C484.164 114.528 483.646 114.024 482.96 114.024C482.26 114.024 481.756 114.528 481.756 115.172C481.756 115.816 482.26 116.32 482.96 116.32ZM485.358 121.094C485.358 123.516 486.926 125.126 488.9 125.126C490.118 125.126 490.986 124.566 491.448 123.852V125H493.436V114.64H491.448V118.322C490.916 117.594 489.936 117.118 488.914 117.118C486.926 117.118 485.358 118.672 485.358 121.094ZM491.462 121.122C491.462 122.592 490.482 123.404 489.404 123.404C488.354 123.404 487.36 122.564 487.36 121.094C487.36 119.624 488.354 118.84 489.404 118.84C490.482 118.84 491.462 119.652 491.462 121.122ZM498.683 118.728C499.691 118.728 500.503 119.372 500.531 120.394H496.849C497.003 119.33 497.745 118.728 498.683 118.728ZM502.365 122.564H500.251C499.999 123.082 499.537 123.502 498.697 123.502C497.717 123.502 496.933 122.858 496.835 121.71H502.505C502.547 121.458 502.561 121.206 502.561 120.954C502.561 118.644 500.979 117.118 498.739 117.118C496.443 117.118 494.847 118.672 494.847 121.122C494.847 123.558 496.485 125.126 498.739 125.126C500.657 125.126 501.945 123.992 502.365 122.564ZM511.481 121.122C511.481 118.672 509.731 117.118 507.491 117.118C505.251 117.118 503.501 118.672 503.501 121.122C503.501 123.558 505.195 125.126 507.435 125.126C509.689 125.126 511.481 123.558 511.481 121.122ZM505.489 121.122C505.489 119.568 506.427 118.826 507.463 118.826C508.499 118.826 509.465 119.568 509.465 121.122C509.465 122.662 508.471 123.418 507.435 123.418C506.385 123.418 505.489 122.662 505.489 121.122ZM460.817 135.81H463.421V144H465.381V135.81H467.985V134.228H460.817V135.81ZM476.737 136.244H474.763V140.514C474.763 141.76 474.091 142.432 473.027 142.432C471.991 142.432 471.305 141.76 471.305 140.514V136.244H469.345V140.794C469.345 142.922 470.647 144.098 472.453 144.098C473.419 144.098 474.273 143.678 474.763 143.02V144H476.737V136.244ZM478.979 141.592C478.979 143.37 479.973 144 481.457 144H482.689V142.348H481.779C481.163 142.348 480.953 142.124 480.953 141.606V137.854H482.689V136.244H480.953V134.326H478.979V136.244H478.055V137.854H478.979V141.592ZM491.589 140.122C491.589 137.672 489.839 136.118 487.599 136.118C485.359 136.118 483.609 137.672 483.609 140.122C483.609 142.558 485.303 144.126 487.543 144.126C489.797 144.126 491.589 142.558 491.589 140.122ZM485.597 140.122C485.597 138.568 486.535 137.826 487.571 137.826C488.607 137.826 489.573 138.568 489.573 140.122C489.573 141.662 488.579 142.418 487.543 142.418C486.493 142.418 485.597 141.662 485.597 140.122ZM494.987 140.136C494.987 138.638 495.687 138.19 496.849 138.19H497.367V136.132C496.289 136.132 495.477 136.65 494.987 137.448V136.244H493.027V144H494.987V140.136ZM498.687 144H500.647V136.244H498.687V144ZM499.681 135.32C500.367 135.32 500.885 134.816 500.885 134.172C500.885 133.528 500.367 133.024 499.681 133.024C498.981 133.024 498.477 133.528 498.477 134.172C498.477 134.816 498.981 135.32 499.681 135.32ZM502.079 140.094C502.079 142.516 503.647 144.126 505.607 144.126C506.839 144.126 507.721 143.538 508.183 142.866V144H510.157V136.244H508.183V137.35C507.721 136.706 506.867 136.118 505.621 136.118C503.647 136.118 502.079 137.672 502.079 140.094ZM508.183 140.122C508.183 141.592 507.203 142.404 506.125 142.404C505.075 142.404 504.081 141.564 504.081 140.094C504.081 138.624 505.075 137.84 506.125 137.84C507.203 137.84 508.183 138.652 508.183 140.122ZM512.071 144H514.031V133.64H512.071V144ZM521.988 141.788C521.932 138.946 517.634 139.828 517.634 138.414C517.634 137.966 518.012 137.672 518.74 137.672C519.51 137.672 519.986 138.078 520.042 138.68H521.918C521.806 137.14 520.672 136.118 518.796 136.118C516.878 136.118 515.73 137.154 515.73 138.442C515.73 141.284 520.112 140.402 520.112 141.788C520.112 142.236 519.692 142.586 518.922 142.586C518.138 142.586 517.592 142.138 517.522 141.55H515.548C515.632 142.992 516.99 144.126 518.936 144.126C520.826 144.126 521.988 143.118 521.988 141.788Z" fill="white"/>
<path opacity="0.3" fill-rule="evenodd" clip-rule="evenodd" d="M478 56C478 54.8954 478.895 54 480 54H508C509.105 54 510 54.8954 510 56V88C510 89.1046 509.105 90 508 90H480C478.895 90 478 89.1046 478 88V56ZM480 58.5C480 58.2239 480.224 58 480.5 58H483.5C483.776 58 484 58.2239 484 58.5V61.5C484 61.7761 483.776 62 483.5 62H480.5C480.224 62 480 61.7761 480 61.5V58.5ZM504.5 58C504.224 58 504 58.2239 504 58.5V61.5C504 61.7761 504.224 62 504.5 62H507.5C507.776 62 508 61.7761 508 61.5V58.5C508 58.2239 507.776 58 507.5 58H504.5ZM480 66.5C480 66.2239 480.224 66 480.5 66H483.5C483.776 66 484 66.2239 484 66.5V69.5C484 69.7761 483.776 70 483.5 70H480.5C480.224 70 480 69.7761 480 69.5V66.5ZM504.5 66C504.224 66 504 66.2239 504 66.5V69.5C504 69.7761 504.224 70 504.5 70H507.5C507.776 70 508 69.7761 508 69.5V66.5C508 66.2239 507.776 66 507.5 66H504.5ZM480 74.5C480 74.2239 480.224 74 480.5 74H483.5C483.776 74 484 74.2239 484 74.5V77.5C484 77.7761 483.776 78 483.5 78H480.5C480.224 78 480 77.7761 480 77.5V74.5ZM504.5 74C504.224 74 504 74.2239 504 74.5V77.5C504 77.7761 504.224 78 504.5 78H507.5C507.776 78 508 77.7761 508 77.5V74.5C508 74.2239 507.776 74 507.5 74H504.5ZM504 82.5C504 82.2239 504.224 82 504.5 82H507.5C507.776 82 508 82.2239 508 82.5V85.5C508 85.7761 507.776 86 507.5 86H504.5C504.224 86 504 85.7761 504 85.5V82.5ZM480.5 82C480.224 82 480 82.2239 480 82.5V85.5C480 85.7761 480.224 86 480.5 86H483.5C483.776 86 484 85.7761 484 85.5V82.5C484 82.2239 483.776 82 483.5 82H480.5Z" fill="white"/>
<path fill-rule="evenodd" clip-rule="evenodd" d="M491.14 77.2664C491.14 77.6684 491.59 77.906 491.922 77.6792L498.516 73.1721C498.806 72.9739 498.806 72.5464 498.517 72.3474L491.924 67.812C491.592 67.5838 491.14 67.8213 491.14 68.2239V77.2664Z" fill="white"/>
<rect x="633.5" y="0.5" width="143" height="196" rx="11.5" fill="white"/>
<rect x="633.5" y="0.5" width="143" height="196" rx="11.5" stroke="#EFF2F5"/>
<path d="M690.705 122.172C690.705 118.728 685.693 119.82 685.693 117.86C685.693 117.062 686.267 116.684 687.037 116.712C687.877 116.726 688.395 117.23 688.437 117.874H690.593C690.467 116.11 689.095 115.088 687.093 115.088C685.077 115.088 683.649 116.152 683.649 117.916C683.635 121.458 688.675 120.184 688.675 122.298C688.675 122.998 688.129 123.488 687.205 123.488C686.295 123.488 685.777 122.97 685.721 122.186H683.621C683.649 124.034 685.217 125.098 687.247 125.098C689.473 125.098 690.705 123.712 690.705 122.172ZM691.9 121.094C691.9 123.516 693.468 125.126 695.428 125.126C696.66 125.126 697.542 124.538 698.004 123.866V125H699.978V117.244H698.004V118.35C697.542 117.706 696.688 117.118 695.442 117.118C693.468 117.118 691.9 118.672 691.9 121.094ZM698.004 121.122C698.004 122.592 697.024 123.404 695.946 123.404C694.896 123.404 693.902 122.564 693.902 121.094C693.902 119.624 694.896 118.84 695.946 118.84C697.024 118.84 698.004 119.652 698.004 121.122ZM701.893 125H703.853V114.64H701.893V125ZM709.121 118.728C710.129 118.728 710.941 119.372 710.969 120.394H707.287C707.441 119.33 708.183 118.728 709.121 118.728ZM712.803 122.564H710.689C710.437 123.082 709.975 123.502 709.135 123.502C708.155 123.502 707.371 122.858 707.273 121.71H712.943C712.985 121.458 712.999 121.206 712.999 120.954C712.999 118.644 711.417 117.118 709.177 117.118C706.881 117.118 705.285 118.672 705.285 121.122C705.285 123.558 706.923 125.126 709.177 125.126C711.095 125.126 712.383 123.992 712.803 122.564ZM720.45 122.788C720.394 119.946 716.096 120.828 716.096 119.414C716.096 118.966 716.474 118.672 717.202 118.672C717.972 118.672 718.448 119.078 718.504 119.68H720.38C720.268 118.14 719.134 117.118 717.258 117.118C715.34 117.118 714.192 118.154 714.192 119.442C714.192 122.284 718.574 121.402 718.574 122.788C718.574 123.236 718.154 123.586 717.384 123.586C716.6 123.586 716.054 123.138 715.984 122.55H714.01C714.094 123.992 715.452 125.126 717.398 125.126C719.288 125.126 720.45 124.118 720.45 122.788ZM676.91 141.172C676.91 137.728 671.898 138.82 671.898 136.86C671.898 136.062 672.472 135.684 673.242 135.712C674.082 135.726 674.6 136.23 674.642 136.874H676.798C676.672 135.11 675.3 134.088 673.298 134.088C671.282 134.088 669.854 135.152 669.854 136.916C669.84 140.458 674.88 139.184 674.88 141.298C674.88 141.998 674.334 142.488 673.41 142.488C672.5 142.488 671.982 141.97 671.926 141.186H669.826C669.854 143.034 671.422 144.098 673.452 144.098C675.678 144.098 676.91 142.712 676.91 141.172ZM678.918 141.592C678.918 143.37 679.912 144 681.396 144H682.628V142.348H681.718C681.102 142.348 680.892 142.124 680.892 141.606V137.854H682.628V136.244H680.892V134.326H678.918V136.244H677.994V137.854H678.918V141.592ZM683.533 140.094C683.533 142.516 685.101 144.126 687.061 144.126C688.293 144.126 689.175 143.538 689.637 142.866V144H691.611V136.244H689.637V137.35C689.175 136.706 688.321 136.118 687.075 136.118C685.101 136.118 683.533 137.672 683.533 140.094ZM689.637 140.122C689.637 141.592 688.657 142.404 687.579 142.404C686.529 142.404 685.535 141.564 685.535 140.094C685.535 138.624 686.529 137.84 687.579 137.84C688.657 137.84 689.637 138.652 689.637 140.122ZM693.834 141.592C693.834 143.37 694.828 144 696.312 144H697.544V142.348H696.634C696.018 142.348 695.808 142.124 695.808 141.606V137.854H697.544V136.244H695.808V134.326H693.834V136.244H692.91V137.854H693.834V141.592ZM698.953 144H700.913V136.244H698.953V144ZM699.947 135.32C700.633 135.32 701.151 134.816 701.151 134.172C701.151 133.528 700.633 133.024 699.947 133.024C699.247 133.024 698.743 133.528 698.743 134.172C698.743 134.816 699.247 135.32 699.947 135.32ZM708.87 141.788C708.814 138.946 704.516 139.828 704.516 138.414C704.516 137.966 704.894 137.672 705.622 137.672C706.392 137.672 706.868 138.078 706.924 138.68H708.8C708.688 137.14 707.554 136.118 705.678 136.118C703.76 136.118 702.612 137.154 702.612 138.442C702.612 141.284 706.994 140.402 706.994 141.788C706.994 142.236 706.574 142.586 705.804 142.586C705.02 142.586 704.474 142.138 704.404 141.55H702.43C702.514 142.992 703.872 144.126 705.818 144.126C707.708 144.126 708.87 143.118 708.87 141.788ZM710.787 141.592C710.787 143.37 711.781 144 713.265 144H714.497V142.348H713.587C712.971 142.348 712.761 142.124 712.761 141.606V137.854H714.497V136.244H712.761V134.326H710.787V136.244H709.863V137.854H710.787V141.592ZM715.906 144H717.866V136.244H715.906V144ZM716.9 135.32C717.586 135.32 718.104 134.816 718.104 134.172C718.104 133.528 717.586 133.024 716.9 133.024C716.2 133.024 715.696 133.528 715.696 134.172C715.696 134.816 716.2 135.32 716.9 135.32ZM719.299 140.122C719.299 142.558 720.895 144.126 723.135 144.126C725.067 144.126 726.369 143.034 726.789 141.382H724.675C724.437 142.082 723.933 142.446 723.121 142.446C722.029 142.446 721.301 141.634 721.301 140.122C721.301 138.61 722.029 137.784 723.121 137.784C723.933 137.784 724.451 138.204 724.675 138.862H726.789C726.369 137.126 725.067 136.118 723.135 136.118C720.895 136.118 719.299 137.686 719.299 140.122ZM734.245 141.788C734.189 138.946 729.891 139.828 729.891 138.414C729.891 137.966 730.269 137.672 730.997 137.672C731.767 137.672 732.243 138.078 732.299 138.68H734.175C734.063 137.14 732.929 136.118 731.053 136.118C729.135 136.118 727.987 137.154 727.987 138.442C727.987 141.284 732.369 140.402 732.369 141.788C732.369 142.236 731.949 142.586 731.179 142.586C730.395 142.586 729.849 142.138 729.779 141.55H727.805C727.889 142.992 729.247 144.126 731.193 144.126C733.083 144.126 734.245 143.118 734.245 141.788Z" fill="#B5B5C3"/>
<rect opacity="0.3" x="706" y="57" width="6" height="32" rx="2" fill="#B5B5C3"/>
<rect x="696" y="67" width="6" height="22" rx="2" fill="#B5B5C3"/>
<rect x="716" y="71" width="6" height="18" rx="2" fill="#B5B5C3"/>
<rect x="686" y="75" width="6" height="14" rx="2" fill="#B5B5C3"/>
<rect x="844.5" y="0.5" width="143" height="196" rx="11.5" fill="white"/>
<rect x="844.5" y="0.5" width="143" height="196" rx="11.5" stroke="#EFF2F5"/>
<path d="M906.234 125H908.306L904.792 115.214H902.51L898.996 125H901.054L901.698 123.138H905.59L906.234 125ZM905.058 121.57H902.23L903.644 117.482L905.058 121.57ZM914.799 118.266C914.799 119.148 914.309 119.722 913.217 119.722H911.579V116.852H913.217C914.309 116.852 914.799 117.398 914.799 118.266ZM909.619 115.228V125H911.579V121.192H912.503L914.659 125H916.927L914.589 121.038C916.157 120.618 916.815 119.414 916.815 118.224C916.815 116.586 915.639 115.228 913.287 115.228H909.619ZM918.112 120.1C918.112 123.026 920.254 125.084 923.068 125.084C925.238 125.084 927.002 123.936 927.66 121.92H925.406C924.944 122.872 924.104 123.334 923.054 123.334C921.346 123.334 920.128 122.074 920.128 120.1C920.128 118.112 921.346 116.866 923.054 116.866C924.104 116.866 924.944 117.328 925.406 118.266H927.66C927.002 116.264 925.238 115.102 923.068 115.102C920.254 115.102 918.112 117.174 918.112 120.1ZM892.143 141.172C892.143 137.728 887.131 138.82 887.131 136.86C887.131 136.062 887.705 135.684 888.475 135.712C889.315 135.726 889.833 136.23 889.875 136.874H892.031C891.905 135.11 890.533 134.088 888.531 134.088C886.515 134.088 885.087 135.152 885.087 136.916C885.073 140.458 890.113 139.184 890.113 141.298C890.113 141.998 889.567 142.488 888.643 142.488C887.733 142.488 887.215 141.97 887.159 141.186H885.059C885.087 143.034 886.655 144.098 888.685 144.098C890.911 144.098 892.143 142.712 892.143 141.172ZM897.174 137.728C898.182 137.728 898.994 138.372 899.022 139.394H895.34C895.494 138.33 896.236 137.728 897.174 137.728ZM900.856 141.564H898.742C898.49 142.082 898.028 142.502 897.188 142.502C896.208 142.502 895.424 141.858 895.326 140.71H900.996C901.038 140.458 901.052 140.206 901.052 139.954C901.052 137.644 899.47 136.118 897.23 136.118C894.934 136.118 893.338 137.672 893.338 140.122C893.338 142.558 894.976 144.126 897.23 144.126C899.148 144.126 900.436 142.992 900.856 141.564ZM901.979 140.122C901.979 142.558 903.575 144.126 905.815 144.126C907.747 144.126 909.049 143.034 909.469 141.382H907.355C907.117 142.082 906.613 142.446 905.801 142.446C904.709 142.446 903.981 141.634 903.981 140.122C903.981 138.61 904.709 137.784 905.801 137.784C906.613 137.784 907.131 138.204 907.355 138.862H909.469C909.049 137.126 907.747 136.118 905.815 136.118C903.575 136.118 901.979 137.686 901.979 140.122ZM918.226 136.244H916.252V140.514C916.252 141.76 915.58 142.432 914.516 142.432C913.48 142.432 912.794 141.76 912.794 140.514V136.244H910.834V140.794C910.834 142.922 912.136 144.098 913.942 144.098C914.908 144.098 915.762 143.678 916.252 143.02V144H918.226V136.244ZM922.12 140.136C922.12 138.638 922.82 138.19 923.982 138.19H924.5V136.132C923.422 136.132 922.61 136.65 922.12 137.448V136.244H920.16V144H922.12V140.136ZM925.82 144H927.78V136.244H925.82V144ZM926.814 135.32C927.5 135.32 928.018 134.816 928.018 134.172C928.018 133.528 927.5 133.024 926.814 133.024C926.114 133.024 925.61 133.528 925.61 134.172C925.61 134.816 926.114 135.32 926.814 135.32ZM930.025 141.592C930.025 143.37 931.019 144 932.503 144H933.735V142.348H932.825C932.209 142.348 931.999 142.124 931.999 141.606V137.854H933.735V136.244H931.999V134.326H930.025V136.244H929.101V137.854H930.025V141.592ZM938.449 141.662L936.447 136.244H934.249L937.357 143.804L935.677 147.668H937.763L942.565 136.244H940.479L938.449 141.662Z" fill="#B5B5C3"/>
<path opacity="0.3" fill-rule="evenodd" clip-rule="evenodd" d="M900 55L915.631 52.0691C915.875 52.0234 916.125 52.0234 916.369 52.0691L932 55V76.9033C932 80.696 930.046 84.2211 926.83 86.2313L916.53 92.6687C916.206 92.8714 915.794 92.8714 915.47 92.6687L905.17 86.2313C901.954 84.2211 900 80.696 900 76.9033V55Z" fill="#B5B5C3"/>
<path fill-rule="evenodd" clip-rule="evenodd" d="M914.35 76.5C913.871 76.5 913.392 76.3083 913.008 75.925L909.175 72.0917C908.408 71.325 908.408 70.175 909.175 69.4083C909.942 68.6417 911.188 68.6417 911.858 69.4083L914.35 71.9L920.675 65.575C921.442 64.8083 922.592 64.8083 923.358 65.575C924.125 66.3417 924.125 67.4917 923.358 68.2583L915.692 75.925C915.308 76.3083 914.829 76.5 914.35 76.5Z" fill="#B5B5C3"/>
</g>
<defs>
<clipPath id="clip0_197_2263">
<rect width="988" height="197" fill="white"/>
</clipPath>
</defs>
</svg>
