<svg width="880" height="472" viewBox="0 0 880 472" fill="none" xmlns="http://www.w3.org/2000/svg">
<rect width="880" height="472" rx="12" fill="white"/>
<line x1="94.8745" y1="113.5" x2="819.31" y2="113.5" stroke="#EAEAEA" stroke-dasharray="3 4"/>
<line x1="94.8745" y1="173.5" x2="819.31" y2="173.5" stroke="#EAEAEA" stroke-dasharray="3 4"/>
<line x1="94.8745" y1="233.5" x2="819.31" y2="233.5" stroke="#EAEAEA" stroke-dasharray="3 4"/>
<line x1="94.8745" y1="293.5" x2="819.31" y2="293.5" stroke="#EAEAEA" stroke-dasharray="3 4"/>
<line x1="94.8745" y1="353.5" x2="819.31" y2="353.5" stroke="#EAEAEA" stroke-dasharray="3 4"/>
<line x1="94.8745" y1="413.5" x2="819.31" y2="413.5" stroke="#EAEAEA" stroke-dasharray="3 4"/>
<path d="M154.668 431.5V430.252H157.164V439H155.784V431.5H154.668ZM167.369 437.296H163.877L163.277 439H161.849L164.837 430.648H166.421L169.409 439H167.969L167.369 437.296ZM166.985 436.18L165.629 432.304L164.261 436.18H166.985ZM176.696 432.388V439H175.328V438.22C175.112 438.492 174.828 438.708 174.476 438.868C174.132 439.02 173.764 439.096 173.372 439.096C172.852 439.096 172.384 438.988 171.968 438.772C171.56 438.556 171.236 438.236 170.996 437.812C170.764 437.388 170.648 436.876 170.648 436.276V432.388H172.004V436.072C172.004 436.664 172.152 437.12 172.448 437.44C172.744 437.752 173.148 437.908 173.66 437.908C174.172 437.908 174.576 437.752 174.872 437.44C175.176 437.12 175.328 436.664 175.328 436.072V432.388H176.696ZM181.165 432.28C181.677 432.28 182.129 432.384 182.521 432.592C182.921 432.792 183.233 433.044 183.457 433.348V432.388H184.837V439.108C184.837 439.716 184.709 440.256 184.453 440.728C184.197 441.208 183.825 441.584 183.337 441.856C182.857 442.128 182.281 442.264 181.609 442.264C180.713 442.264 179.969 442.052 179.377 441.628C178.785 441.212 178.449 440.644 178.369 439.924H179.725C179.829 440.268 180.049 440.544 180.385 440.752C180.729 440.968 181.137 441.076 181.609 441.076C182.161 441.076 182.605 440.908 182.941 440.572C183.285 440.236 183.457 439.748 183.457 439.108V438.004C183.225 438.316 182.909 438.58 182.509 438.796C182.117 439.004 181.669 439.108 181.165 439.108C180.589 439.108 180.061 438.964 179.581 438.676C179.109 438.38 178.733 437.972 178.453 437.452C178.181 436.924 178.045 436.328 178.045 435.664C178.045 435 178.181 434.412 178.453 433.9C178.733 433.388 179.109 432.992 179.581 432.712C180.061 432.424 180.589 432.28 181.165 432.28ZM183.457 435.688C183.457 435.232 183.361 434.836 183.169 434.5C182.985 434.164 182.741 433.908 182.437 433.732C182.133 433.556 181.805 433.468 181.453 433.468C181.101 433.468 180.773 433.556 180.469 433.732C180.165 433.9 179.917 434.152 179.725 434.488C179.541 434.816 179.449 435.208 179.449 435.664C179.449 436.12 179.541 436.52 179.725 436.864C179.917 437.208 180.165 437.472 180.469 437.656C180.781 437.832 181.109 437.92 181.453 437.92C181.805 437.92 182.133 437.832 182.437 437.656C182.741 437.48 182.985 437.224 183.169 436.888C183.361 436.544 183.457 436.144 183.457 435.688Z" fill="#B5B5C3"/>
<path d="M272.941 434.428C272.109 434.012 271.693 433.356 271.693 432.46C271.693 432.028 271.801 431.632 272.017 431.272C272.233 430.912 272.557 430.628 272.989 430.42C273.421 430.204 273.949 430.096 274.573 430.096C275.189 430.096 275.713 430.204 276.145 430.42C276.585 430.628 276.913 430.912 277.129 431.272C277.345 431.632 277.453 432.028 277.453 432.46C277.453 432.908 277.337 433.304 277.105 433.648C276.881 433.984 276.581 434.244 276.205 434.428C276.661 434.596 277.021 434.872 277.285 435.256C277.549 435.632 277.681 436.076 277.681 436.588C277.681 437.108 277.549 437.568 277.285 437.968C277.021 438.368 276.653 438.676 276.181 438.892C275.709 439.108 275.173 439.216 274.573 439.216C273.973 439.216 273.437 439.108 272.965 438.892C272.501 438.676 272.137 438.368 271.873 437.968C271.609 437.568 271.477 437.108 271.477 436.588C271.477 436.068 271.609 435.62 271.873 435.244C272.137 434.868 272.493 434.596 272.941 434.428ZM276.145 432.628C276.145 432.18 276.005 431.836 275.725 431.596C275.445 431.356 275.061 431.236 274.573 431.236C274.093 431.236 273.713 431.356 273.433 431.596C273.153 431.836 273.013 432.184 273.013 432.64C273.013 433.04 273.157 433.368 273.445 433.624C273.741 433.872 274.117 433.996 274.573 433.996C275.029 433.996 275.405 433.868 275.701 433.612C275.997 433.356 276.145 433.028 276.145 432.628ZM274.573 435.028C274.045 435.028 273.613 435.16 273.277 435.424C272.949 435.68 272.785 436.052 272.785 436.54C272.785 436.996 272.945 437.368 273.265 437.656C273.585 437.936 274.021 438.076 274.573 438.076C275.117 438.076 275.545 437.932 275.857 437.644C276.177 437.356 276.337 436.988 276.337 436.54C276.337 436.06 276.173 435.688 275.845 435.424C275.525 435.16 275.101 435.028 274.573 435.028ZM287.442 437.296H283.95L283.35 439H281.922L284.91 430.648H286.494L289.482 439H288.042L287.442 437.296ZM287.058 436.18L285.702 432.304L284.334 436.18H287.058ZM296.77 432.388V439H295.402V438.22C295.186 438.492 294.902 438.708 294.55 438.868C294.206 439.02 293.838 439.096 293.446 439.096C292.926 439.096 292.458 438.988 292.042 438.772C291.634 438.556 291.31 438.236 291.07 437.812C290.838 437.388 290.722 436.876 290.722 436.276V432.388H292.078V436.072C292.078 436.664 292.226 437.12 292.522 437.44C292.818 437.752 293.222 437.908 293.734 437.908C294.246 437.908 294.65 437.752 294.946 437.44C295.25 437.12 295.402 436.664 295.402 436.072V432.388H296.77ZM301.239 432.28C301.751 432.28 302.203 432.384 302.595 432.592C302.995 432.792 303.307 433.044 303.531 433.348V432.388H304.911V439.108C304.911 439.716 304.783 440.256 304.527 440.728C304.271 441.208 303.899 441.584 303.411 441.856C302.931 442.128 302.355 442.264 301.683 442.264C300.787 442.264 300.043 442.052 299.451 441.628C298.859 441.212 298.523 440.644 298.443 439.924H299.799C299.903 440.268 300.123 440.544 300.459 440.752C300.803 440.968 301.211 441.076 301.683 441.076C302.235 441.076 302.679 440.908 303.015 440.572C303.359 440.236 303.531 439.748 303.531 439.108V438.004C303.299 438.316 302.983 438.58 302.583 438.796C302.191 439.004 301.743 439.108 301.239 439.108C300.663 439.108 300.135 438.964 299.655 438.676C299.183 438.38 298.807 437.972 298.527 437.452C298.255 436.924 298.119 436.328 298.119 435.664C298.119 435 298.255 434.412 298.527 433.9C298.807 433.388 299.183 432.992 299.655 432.712C300.135 432.424 300.663 432.28 301.239 432.28ZM303.531 435.688C303.531 435.232 303.435 434.836 303.243 434.5C303.059 434.164 302.815 433.908 302.511 433.732C302.207 433.556 301.879 433.468 301.527 433.468C301.175 433.468 300.847 433.556 300.543 433.732C300.239 433.9 299.991 434.152 299.799 434.488C299.615 434.816 299.523 435.208 299.523 435.664C299.523 436.12 299.615 436.52 299.799 436.864C299.991 437.208 300.239 437.472 300.543 437.656C300.855 437.832 301.183 437.92 301.527 437.92C301.879 437.92 302.207 437.832 302.511 437.656C302.815 437.48 303.059 437.224 303.243 436.888C303.435 436.544 303.531 436.144 303.531 435.688Z" fill="#B5B5C3"/>
<path d="M385.428 431.5V430.252H387.924V439H386.544V431.5H385.428ZM395.443 431.428H391.423V433.816C391.591 433.592 391.839 433.404 392.167 433.252C392.503 433.1 392.859 433.024 393.235 433.024C393.907 433.024 394.451 433.168 394.867 433.456C395.291 433.744 395.591 434.108 395.767 434.548C395.951 434.988 396.043 435.452 396.043 435.94C396.043 436.532 395.927 437.06 395.695 437.524C395.471 437.98 395.131 438.34 394.675 438.604C394.227 438.868 393.675 439 393.019 439C392.147 439 391.447 438.784 390.919 438.352C390.391 437.92 390.075 437.348 389.971 436.636H391.303C391.391 437.012 391.587 437.312 391.891 437.536C392.195 437.752 392.575 437.86 393.031 437.86C393.599 437.86 394.023 437.688 394.303 437.344C394.591 437 394.735 436.544 394.735 435.976C394.735 435.4 394.591 434.96 394.303 434.656C394.015 434.344 393.591 434.188 393.031 434.188C392.639 434.188 392.307 434.288 392.035 434.488C391.771 434.68 391.579 434.944 391.459 435.28H390.163V430.228H395.443V431.428ZM397.287 431.5V430.252H399.783V439H398.403V431.5H397.287ZM409.988 437.296H406.496L405.896 439H404.468L407.456 430.648H409.04L412.028 439H410.588L409.988 437.296ZM409.604 436.18L408.248 432.304L406.88 436.18H409.604ZM419.315 432.388V439H417.947V438.22C417.731 438.492 417.447 438.708 417.095 438.868C416.751 439.02 416.383 439.096 415.991 439.096C415.471 439.096 415.003 438.988 414.587 438.772C414.179 438.556 413.855 438.236 413.615 437.812C413.383 437.388 413.267 436.876 413.267 436.276V432.388H414.623V436.072C414.623 436.664 414.771 437.12 415.067 437.44C415.363 437.752 415.767 437.908 416.279 437.908C416.791 437.908 417.195 437.752 417.491 437.44C417.795 437.12 417.947 436.664 417.947 436.072V432.388H419.315ZM423.784 432.28C424.296 432.28 424.748 432.384 425.14 432.592C425.54 432.792 425.852 433.044 426.076 433.348V432.388H427.456V439.108C427.456 439.716 427.328 440.256 427.072 440.728C426.816 441.208 426.444 441.584 425.956 441.856C425.476 442.128 424.9 442.264 424.228 442.264C423.332 442.264 422.588 442.052 421.996 441.628C421.404 441.212 421.068 440.644 420.988 439.924H422.344C422.448 440.268 422.668 440.544 423.004 440.752C423.348 440.968 423.756 441.076 424.228 441.076C424.78 441.076 425.224 440.908 425.56 440.572C425.904 440.236 426.076 439.748 426.076 439.108V438.004C425.844 438.316 425.528 438.58 425.128 438.796C424.736 439.004 424.288 439.108 423.784 439.108C423.208 439.108 422.68 438.964 422.2 438.676C421.728 438.38 421.352 437.972 421.072 437.452C420.8 436.924 420.664 436.328 420.664 435.664C420.664 435 420.8 434.412 421.072 433.9C421.352 433.388 421.728 432.992 422.2 432.712C422.68 432.424 423.208 432.28 423.784 432.28ZM426.076 435.688C426.076 435.232 425.98 434.836 425.788 434.5C425.604 434.164 425.36 433.908 425.056 433.732C424.752 433.556 424.424 433.468 424.072 433.468C423.72 433.468 423.392 433.556 423.088 433.732C422.784 433.9 422.536 434.152 422.344 434.488C422.16 434.816 422.068 435.208 422.068 435.664C422.068 436.12 422.16 436.52 422.344 436.864C422.536 437.208 422.784 437.472 423.088 437.656C423.4 437.832 423.728 437.92 424.072 437.92C424.424 437.92 424.752 437.832 425.056 437.656C425.36 437.48 425.604 437.224 425.788 436.888C425.98 436.544 426.076 436.144 426.076 435.688Z" fill="#B5B5C3"/>
<path d="M505.811 437.14C506.579 436.476 507.183 435.932 507.623 435.508C508.071 435.076 508.443 434.628 508.739 434.164C509.035 433.7 509.183 433.236 509.183 432.772C509.183 432.292 509.067 431.916 508.835 431.644C508.611 431.372 508.255 431.236 507.767 431.236C507.295 431.236 506.927 431.388 506.663 431.692C506.407 431.988 506.271 432.388 506.255 432.892H504.935C504.959 431.98 505.231 431.284 505.751 430.804C506.279 430.316 506.947 430.072 507.755 430.072C508.627 430.072 509.307 430.312 509.795 430.792C510.291 431.272 510.539 431.912 510.539 432.712C510.539 433.288 510.391 433.844 510.095 434.38C509.807 434.908 509.459 435.384 509.051 435.808C508.651 436.224 508.139 436.708 507.515 437.26L506.975 437.74H510.779V438.88H504.947V437.884L505.811 437.14ZM512.737 437.14C513.505 436.476 514.109 435.932 514.549 435.508C514.997 435.076 515.369 434.628 515.665 434.164C515.961 433.7 516.109 433.236 516.109 432.772C516.109 432.292 515.993 431.916 515.761 431.644C515.537 431.372 515.181 431.236 514.693 431.236C514.221 431.236 513.853 431.388 513.589 431.692C513.333 431.988 513.197 432.388 513.181 432.892H511.861C511.885 431.98 512.157 431.284 512.677 430.804C513.205 430.316 513.873 430.072 514.681 430.072C515.553 430.072 516.233 430.312 516.721 430.792C517.217 431.272 517.465 431.912 517.465 432.712C517.465 433.288 517.317 433.844 517.021 434.38C516.733 434.908 516.385 435.384 515.977 435.808C515.577 436.224 515.065 436.708 514.441 437.26L513.901 437.74H517.705V438.88H511.873V437.884L512.737 437.14ZM527.231 437.296H523.739L523.139 439H521.711L524.699 430.648H526.283L529.271 439H527.831L527.231 437.296ZM526.847 436.18L525.491 432.304L524.123 436.18H526.847ZM536.559 432.388V439H535.191V438.22C534.975 438.492 534.691 438.708 534.339 438.868C533.995 439.02 533.627 439.096 533.235 439.096C532.715 439.096 532.247 438.988 531.831 438.772C531.423 438.556 531.099 438.236 530.859 437.812C530.627 437.388 530.511 436.876 530.511 436.276V432.388H531.867V436.072C531.867 436.664 532.015 437.12 532.311 437.44C532.607 437.752 533.011 437.908 533.523 437.908C534.035 437.908 534.439 437.752 534.735 437.44C535.039 437.12 535.191 436.664 535.191 436.072V432.388H536.559ZM541.028 432.28C541.54 432.28 541.992 432.384 542.384 432.592C542.784 432.792 543.096 433.044 543.32 433.348V432.388H544.7V439.108C544.7 439.716 544.572 440.256 544.316 440.728C544.06 441.208 543.688 441.584 543.2 441.856C542.72 442.128 542.144 442.264 541.472 442.264C540.576 442.264 539.832 442.052 539.24 441.628C538.648 441.212 538.312 440.644 538.232 439.924H539.588C539.692 440.268 539.912 440.544 540.248 440.752C540.592 440.968 541 441.076 541.472 441.076C542.024 441.076 542.468 440.908 542.804 440.572C543.148 440.236 543.32 439.748 543.32 439.108V438.004C543.088 438.316 542.772 438.58 542.372 438.796C541.98 439.004 541.532 439.108 541.028 439.108C540.452 439.108 539.924 438.964 539.444 438.676C538.972 438.38 538.596 437.972 538.316 437.452C538.044 436.924 537.908 436.328 537.908 435.664C537.908 435 538.044 434.412 538.316 433.9C538.596 433.388 538.972 432.992 539.444 432.712C539.924 432.424 540.452 432.28 541.028 432.28ZM543.32 435.688C543.32 435.232 543.224 434.836 543.032 434.5C542.848 434.164 542.604 433.908 542.3 433.732C541.996 433.556 541.668 433.468 541.316 433.468C540.964 433.468 540.636 433.556 540.332 433.732C540.028 433.9 539.78 434.152 539.588 434.488C539.404 434.816 539.312 435.208 539.312 435.664C539.312 436.12 539.404 436.52 539.588 436.864C539.78 437.208 540.028 437.472 540.332 437.656C540.644 437.832 540.972 437.92 541.316 437.92C541.668 437.92 541.996 437.832 542.3 437.656C542.604 437.48 542.848 437.224 543.032 436.888C543.224 436.544 543.32 436.144 543.32 435.688Z" fill="#B5B5C3"/>
<path d="M623.81 437.14C624.578 436.476 625.182 435.932 625.622 435.508C626.07 435.076 626.442 434.628 626.738 434.164C627.034 433.7 627.182 433.236 627.182 432.772C627.182 432.292 627.066 431.916 626.834 431.644C626.61 431.372 626.254 431.236 625.766 431.236C625.294 431.236 624.926 431.388 624.662 431.692C624.406 431.988 624.27 432.388 624.254 432.892H622.934C622.958 431.98 623.23 431.284 623.75 430.804C624.278 430.316 624.946 430.072 625.754 430.072C626.626 430.072 627.306 430.312 627.794 430.792C628.29 431.272 628.538 431.912 628.538 432.712C628.538 433.288 628.39 433.844 628.094 434.38C627.806 434.908 627.458 435.384 627.05 435.808C626.65 436.224 626.138 436.708 625.514 437.26L624.974 437.74H628.778V438.88H622.946V437.884L623.81 437.14ZM631.683 436.624C631.763 437.024 631.935 437.328 632.199 437.536C632.463 437.744 632.819 437.848 633.267 437.848C633.835 437.848 634.251 437.624 634.515 437.176C634.779 436.728 634.911 435.964 634.911 434.884C634.719 435.156 634.447 435.368 634.095 435.52C633.751 435.664 633.375 435.736 632.967 435.736C632.447 435.736 631.975 435.632 631.551 435.424C631.127 435.208 630.791 434.892 630.543 434.476C630.303 434.052 630.183 433.54 630.183 432.94C630.183 432.06 630.439 431.36 630.951 430.84C631.471 430.312 632.183 430.048 633.087 430.048C634.175 430.048 634.947 430.412 635.403 431.14C635.867 431.86 636.099 432.968 636.099 434.464C636.099 435.496 636.011 436.34 635.835 436.996C635.667 437.652 635.371 438.148 634.947 438.484C634.523 438.82 633.935 438.988 633.183 438.988C632.327 438.988 631.667 438.764 631.203 438.316C630.739 437.868 630.479 437.304 630.423 436.624H631.683ZM633.207 434.584C633.687 434.584 634.063 434.436 634.335 434.14C634.615 433.836 634.755 433.436 634.755 432.94C634.755 432.388 634.607 431.96 634.311 431.656C634.023 431.344 633.627 431.188 633.123 431.188C632.619 431.188 632.219 431.348 631.923 431.668C631.635 431.98 631.491 432.392 631.491 432.904C631.491 433.392 631.631 433.796 631.911 434.116C632.199 434.428 632.631 434.584 633.207 434.584ZM645.922 437.296H642.43L641.83 439H640.402L643.39 430.648H644.974L647.962 439H646.522L645.922 437.296ZM645.538 436.18L644.182 432.304L642.814 436.18H645.538ZM655.249 432.388V439H653.881V438.22C653.665 438.492 653.381 438.708 653.029 438.868C652.685 439.02 652.317 439.096 651.925 439.096C651.405 439.096 650.937 438.988 650.521 438.772C650.113 438.556 649.789 438.236 649.549 437.812C649.317 437.388 649.201 436.876 649.201 436.276V432.388H650.557V436.072C650.557 436.664 650.705 437.12 651.001 437.44C651.297 437.752 651.701 437.908 652.213 437.908C652.725 437.908 653.129 437.752 653.425 437.44C653.729 437.12 653.881 436.664 653.881 436.072V432.388H655.249ZM659.718 432.28C660.23 432.28 660.682 432.384 661.074 432.592C661.474 432.792 661.786 433.044 662.01 433.348V432.388H663.39V439.108C663.39 439.716 663.262 440.256 663.006 440.728C662.75 441.208 662.378 441.584 661.89 441.856C661.41 442.128 660.834 442.264 660.162 442.264C659.266 442.264 658.522 442.052 657.93 441.628C657.338 441.212 657.002 440.644 656.922 439.924H658.278C658.382 440.268 658.602 440.544 658.938 440.752C659.282 440.968 659.69 441.076 660.162 441.076C660.714 441.076 661.158 440.908 661.494 440.572C661.838 440.236 662.01 439.748 662.01 439.108V438.004C661.778 438.316 661.462 438.58 661.062 438.796C660.67 439.004 660.222 439.108 659.718 439.108C659.142 439.108 658.614 438.964 658.134 438.676C657.662 438.38 657.286 437.972 657.006 437.452C656.734 436.924 656.598 436.328 656.598 435.664C656.598 435 656.734 434.412 657.006 433.9C657.286 433.388 657.662 432.992 658.134 432.712C658.614 432.424 659.142 432.28 659.718 432.28ZM662.01 435.688C662.01 435.232 661.914 434.836 661.722 434.5C661.538 434.164 661.294 433.908 660.99 433.732C660.686 433.556 660.358 433.468 660.006 433.468C659.654 433.468 659.326 433.556 659.022 433.732C658.718 433.9 658.47 434.152 658.278 434.488C658.094 434.816 658.002 435.208 658.002 435.664C658.002 436.12 658.094 436.52 658.278 436.864C658.47 437.208 658.718 437.472 659.022 437.656C659.334 437.832 659.662 437.92 660.006 437.92C660.358 437.92 660.686 437.832 660.99 437.656C661.294 437.48 661.538 437.224 661.722 436.888C661.914 436.544 662.01 436.144 662.01 435.688Z" fill="#B5B5C3"/>
<path d="M749.717 431.428H745.697V433.816C745.865 433.592 746.113 433.404 746.441 433.252C746.777 433.1 747.133 433.024 747.509 433.024C748.181 433.024 748.725 433.168 749.141 433.456C749.565 433.744 749.865 434.108 750.041 434.548C750.225 434.988 750.317 435.452 750.317 435.94C750.317 436.532 750.201 437.06 749.969 437.524C749.745 437.98 749.405 438.34 748.949 438.604C748.501 438.868 747.949 439 747.293 439C746.421 439 745.721 438.784 745.193 438.352C744.665 437.92 744.349 437.348 744.245 436.636H745.577C745.665 437.012 745.861 437.312 746.165 437.536C746.469 437.752 746.849 437.86 747.305 437.86C747.873 437.86 748.297 437.688 748.577 437.344C748.865 437 749.009 436.544 749.009 435.976C749.009 435.4 748.865 434.96 748.577 434.656C748.289 434.344 747.865 434.188 747.305 434.188C746.913 434.188 746.581 434.288 746.309 434.488C746.045 434.68 745.853 434.944 745.733 435.28H744.437V430.228H749.717V431.428ZM757.786 439.084C757.226 439.084 756.722 438.988 756.274 438.796C755.826 438.596 755.474 438.316 755.218 437.956C754.962 437.596 754.834 437.176 754.834 436.696H756.298C756.33 437.056 756.47 437.352 756.718 437.584C756.974 437.816 757.33 437.932 757.786 437.932C758.258 437.932 758.626 437.82 758.89 437.596C759.154 437.364 759.286 437.068 759.286 436.708C759.286 436.428 759.202 436.2 759.034 436.024C758.874 435.848 758.67 435.712 758.422 435.616C758.182 435.52 757.846 435.416 757.414 435.304C756.87 435.16 756.426 435.016 756.082 434.872C755.746 434.72 755.458 434.488 755.218 434.176C754.978 433.864 754.858 433.448 754.858 432.928C754.858 432.448 754.978 432.028 755.218 431.668C755.458 431.308 755.794 431.032 756.226 430.84C756.658 430.648 757.158 430.552 757.726 430.552C758.534 430.552 759.194 430.756 759.706 431.164C760.226 431.564 760.514 432.116 760.57 432.82H759.058C759.034 432.516 758.89 432.256 758.626 432.04C758.362 431.824 758.014 431.716 757.582 431.716C757.19 431.716 756.87 431.816 756.622 432.016C756.374 432.216 756.25 432.504 756.25 432.88C756.25 433.136 756.326 433.348 756.478 433.516C756.638 433.676 756.838 433.804 757.078 433.9C757.318 433.996 757.646 434.1 758.062 434.212C758.614 434.364 759.062 434.516 759.406 434.668C759.758 434.82 760.054 435.056 760.294 435.376C760.542 435.688 760.666 436.108 760.666 436.636C760.666 437.06 760.55 437.46 760.318 437.836C760.094 438.212 759.762 438.516 759.322 438.748C758.89 438.972 758.378 439.084 757.786 439.084ZM768.34 435.532C768.34 435.78 768.324 436.004 768.292 436.204H763.24C763.28 436.732 763.476 437.156 763.828 437.476C764.18 437.796 764.612 437.956 765.124 437.956C765.86 437.956 766.38 437.648 766.684 437.032H768.16C767.96 437.64 767.596 438.14 767.068 438.532C766.548 438.916 765.9 439.108 765.124 439.108C764.492 439.108 763.924 438.968 763.42 438.688C762.924 438.4 762.532 438 762.244 437.488C761.964 436.968 761.824 436.368 761.824 435.688C761.824 435.008 761.96 434.412 762.232 433.9C762.512 433.38 762.9 432.98 763.396 432.7C763.9 432.42 764.476 432.28 765.124 432.28C765.748 432.28 766.304 432.416 766.792 432.688C767.28 432.96 767.66 433.344 767.932 433.84C768.204 434.328 768.34 434.892 768.34 435.532ZM766.912 435.1C766.904 434.596 766.724 434.192 766.372 433.888C766.02 433.584 765.584 433.432 765.064 433.432C764.592 433.432 764.188 433.584 763.852 433.888C763.516 434.184 763.316 434.588 763.252 435.1H766.912ZM771.055 433.36C771.287 433.056 771.603 432.8 772.003 432.592C772.403 432.384 772.855 432.28 773.359 432.28C773.935 432.28 774.459 432.424 774.931 432.712C775.411 432.992 775.787 433.388 776.059 433.9C776.331 434.412 776.467 435 776.467 435.664C776.467 436.328 776.331 436.924 776.059 437.452C775.787 437.972 775.411 438.38 774.931 438.676C774.459 438.964 773.935 439.108 773.359 439.108C772.855 439.108 772.407 439.008 772.015 438.808C771.623 438.6 771.303 438.344 771.055 438.04V442.144H769.687V432.388H771.055V433.36ZM775.075 435.664C775.075 435.208 774.979 434.816 774.787 434.488C774.603 434.152 774.355 433.9 774.043 433.732C773.739 433.556 773.411 433.468 773.059 433.468C772.715 433.468 772.387 433.556 772.075 433.732C771.771 433.908 771.523 434.164 771.331 434.5C771.147 434.836 771.055 435.232 771.055 435.688C771.055 436.144 771.147 436.544 771.331 436.888C771.523 437.224 771.771 437.48 772.075 437.656C772.387 437.832 772.715 437.92 773.059 437.92C773.411 437.92 773.739 437.832 774.043 437.656C774.355 437.472 774.603 437.208 774.787 436.864C774.979 436.52 775.075 436.12 775.075 435.664Z" fill="#B5B5C3"/>
<path d="M46.0571 110.5V109.252H48.5531V118H47.1731V110.5H46.0571ZM56.0724 110.428H52.0524V112.816C52.2204 112.592 52.4684 112.404 52.7964 112.252C53.1324 112.1 53.4884 112.024 53.8644 112.024C54.5364 112.024 55.0804 112.168 55.4964 112.456C55.9204 112.744 56.2204 113.108 56.3964 113.548C56.5804 113.988 56.6724 114.452 56.6724 114.94C56.6724 115.532 56.5564 116.06 56.3244 116.524C56.1004 116.98 55.7604 117.34 55.3044 117.604C54.8564 117.868 54.3044 118 53.6484 118C52.7764 118 52.0764 117.784 51.5484 117.352C51.0204 116.92 50.7044 116.348 50.6004 115.636H51.9324C52.0204 116.012 52.2164 116.312 52.5204 116.536C52.8244 116.752 53.2044 116.86 53.6604 116.86C54.2284 116.86 54.6524 116.688 54.9324 116.344C55.2204 116 55.3644 115.544 55.3644 114.976C55.3644 114.4 55.2204 113.96 54.9324 113.656C54.6444 113.344 54.2204 113.188 53.6604 113.188C53.2684 113.188 52.9364 113.288 52.6644 113.488C52.4004 113.68 52.2084 113.944 52.0884 114.28H50.7924V109.228H56.0724V110.428ZM58.0965 113.512C58.0965 112.128 58.3285 111.048 58.7925 110.272C59.2645 109.488 60.0725 109.096 61.2165 109.096C62.3605 109.096 63.1645 109.488 63.6285 110.272C64.1005 111.048 64.3365 112.128 64.3365 113.512C64.3365 114.912 64.1005 116.008 63.6285 116.8C63.1645 117.584 62.3605 117.976 61.2165 117.976C60.0725 117.976 59.2645 117.584 58.7925 116.8C58.3285 116.008 58.0965 114.912 58.0965 113.512ZM62.9925 113.512C62.9925 112.864 62.9485 112.316 62.8605 111.868C62.7805 111.42 62.6125 111.056 62.3565 110.776C62.1005 110.488 61.7205 110.344 61.2165 110.344C60.7125 110.344 60.3325 110.488 60.0765 110.776C59.8205 111.056 59.6485 111.42 59.5605 111.868C59.4805 112.316 59.4405 112.864 59.4405 113.512C59.4405 114.184 59.4805 114.748 59.5605 115.204C59.6405 115.66 59.8085 116.028 60.0645 116.308C60.3285 116.588 60.7125 116.728 61.2165 116.728C61.7205 116.728 62.1005 116.588 62.3565 116.308C62.6205 116.028 62.7925 115.66 62.8725 115.204C62.9525 114.748 62.9925 114.184 62.9925 113.512Z" fill="#B5B5C3"/>
<path d="M46.0571 170.5V169.252H48.5531V178H47.1731V170.5H46.0571ZM51.1884 176.14C51.9564 175.476 52.5604 174.932 53.0004 174.508C53.4484 174.076 53.8204 173.628 54.1164 173.164C54.4124 172.7 54.5604 172.236 54.5604 171.772C54.5604 171.292 54.4444 170.916 54.2124 170.644C53.9884 170.372 53.6324 170.236 53.1444 170.236C52.6724 170.236 52.3044 170.388 52.0404 170.692C51.7844 170.988 51.6484 171.388 51.6324 171.892H50.3124C50.3364 170.98 50.6084 170.284 51.1284 169.804C51.6564 169.316 52.3244 169.072 53.1324 169.072C54.0044 169.072 54.6844 169.312 55.1724 169.792C55.6684 170.272 55.9164 170.912 55.9164 171.712C55.9164 172.288 55.7684 172.844 55.4724 173.38C55.1844 173.908 54.8364 174.384 54.4284 174.808C54.0284 175.224 53.5164 175.708 52.8924 176.26L52.3524 176.74H56.1564V177.88H50.3244V176.884L51.1884 176.14ZM57.3582 173.512C57.3582 172.128 57.5902 171.048 58.0542 170.272C58.5262 169.488 59.3342 169.096 60.4782 169.096C61.6222 169.096 62.4262 169.488 62.8902 170.272C63.3622 171.048 63.5982 172.128 63.5982 173.512C63.5982 174.912 63.3622 176.008 62.8902 176.8C62.4262 177.584 61.6222 177.976 60.4782 177.976C59.3342 177.976 58.5262 177.584 58.0542 176.8C57.5902 176.008 57.3582 174.912 57.3582 173.512ZM62.2542 173.512C62.2542 172.864 62.2102 172.316 62.1222 171.868C62.0422 171.42 61.8742 171.056 61.6182 170.776C61.3622 170.488 60.9822 170.344 60.4782 170.344C59.9742 170.344 59.5942 170.488 59.3382 170.776C59.0822 171.056 58.9102 171.42 58.8222 171.868C58.7422 172.316 58.7022 172.864 58.7022 173.512C58.7022 174.184 58.7422 174.748 58.8222 175.204C58.9022 175.66 59.0702 176.028 59.3262 176.308C59.5902 176.588 59.9742 176.728 60.4782 176.728C60.9822 176.728 61.3622 176.588 61.6182 176.308C61.8822 176.028 62.0542 175.66 62.1342 175.204C62.2142 174.748 62.2542 174.184 62.2542 173.512Z" fill="#B5B5C3"/>
<path d="M47.9411 235.624C48.0211 236.024 48.1931 236.328 48.4571 236.536C48.7211 236.744 49.0771 236.848 49.5251 236.848C50.0931 236.848 50.5091 236.624 50.7731 236.176C51.0371 235.728 51.1691 234.964 51.1691 233.884C50.9771 234.156 50.7051 234.368 50.3531 234.52C50.0091 234.664 49.6331 234.736 49.2251 234.736C48.7051 234.736 48.2331 234.632 47.8091 234.424C47.3851 234.208 47.0491 233.892 46.8011 233.476C46.5611 233.052 46.4411 232.54 46.4411 231.94C46.4411 231.06 46.6971 230.36 47.2091 229.84C47.7291 229.312 48.4411 229.048 49.3451 229.048C50.4331 229.048 51.2051 229.412 51.6611 230.14C52.1251 230.86 52.3571 231.968 52.3571 233.464C52.3571 234.496 52.2691 235.34 52.0931 235.996C51.9251 236.652 51.6291 237.148 51.2051 237.484C50.7811 237.82 50.1931 237.988 49.4411 237.988C48.5851 237.988 47.9251 237.764 47.4611 237.316C46.9971 236.868 46.7371 236.304 46.6811 235.624H47.9411ZM49.4651 233.584C49.9451 233.584 50.3211 233.436 50.5931 233.14C50.8731 232.836 51.0131 232.436 51.0131 231.94C51.0131 231.388 50.8651 230.96 50.5691 230.656C50.2811 230.344 49.8851 230.188 49.3811 230.188C48.8771 230.188 48.4771 230.348 48.1811 230.668C47.8931 230.98 47.7491 231.392 47.7491 231.904C47.7491 232.392 47.8891 232.796 48.1691 233.116C48.4571 233.428 48.8891 233.584 49.4651 233.584ZM53.8543 233.512C53.8543 232.128 54.0863 231.048 54.5503 230.272C55.0223 229.488 55.8303 229.096 56.9743 229.096C58.1183 229.096 58.9223 229.488 59.3863 230.272C59.8583 231.048 60.0943 232.128 60.0943 233.512C60.0943 234.912 59.8583 236.008 59.3863 236.8C58.9223 237.584 58.1183 237.976 56.9743 237.976C55.8303 237.976 55.0223 237.584 54.5503 236.8C54.0863 236.008 53.8543 234.912 53.8543 233.512ZM58.7503 233.512C58.7503 232.864 58.7063 232.316 58.6183 231.868C58.5383 231.42 58.3703 231.056 58.1143 230.776C57.8583 230.488 57.4783 230.344 56.9743 230.344C56.4703 230.344 56.0903 230.488 55.8343 230.776C55.5783 231.056 55.4063 231.42 55.3183 231.868C55.2383 232.316 55.1983 232.864 55.1983 233.512C55.1983 234.184 55.2383 234.748 55.3183 235.204C55.3983 235.66 55.5663 236.028 55.8223 236.308C56.0863 236.588 56.4703 236.728 56.9743 236.728C57.4783 236.728 57.8583 236.588 58.1143 236.308C58.3783 236.028 58.5503 235.66 58.6303 235.204C58.7103 234.748 58.7503 234.184 58.7503 233.512Z" fill="#B5B5C3"/>
<path d="M50.9411 291.28C50.8531 290.912 50.6931 290.636 50.4611 290.452C50.2291 290.268 49.9051 290.176 49.4891 290.176C48.8571 290.176 48.3851 290.42 48.0731 290.908C47.7611 291.388 47.5971 292.188 47.5811 293.308C47.7891 292.956 48.0931 292.684 48.4931 292.492C48.8931 292.3 49.3251 292.204 49.7891 292.204C50.3171 292.204 50.7811 292.32 51.1811 292.552C51.5891 292.776 51.9051 293.104 52.1291 293.536C52.3611 293.968 52.4771 294.484 52.4771 295.084C52.4771 295.644 52.3651 296.144 52.1411 296.584C51.9251 297.024 51.6011 297.372 51.1691 297.628C50.7371 297.876 50.2171 298 49.6091 298C48.7851 298 48.1371 297.82 47.6651 297.46C47.2011 297.092 46.8731 296.576 46.6811 295.912C46.4971 295.248 46.4051 294.42 46.4051 293.428C46.4051 290.5 47.4371 289.036 49.5011 289.036C50.3011 289.036 50.9291 289.252 51.3851 289.684C51.8491 290.116 52.1211 290.648 52.2011 291.28H50.9411ZM49.4891 293.356C49.0011 293.356 48.5851 293.504 48.2411 293.8C47.9051 294.088 47.7371 294.508 47.7371 295.06C47.7371 295.612 47.8931 296.052 48.2051 296.38C48.5251 296.7 48.9691 296.86 49.5371 296.86C50.0411 296.86 50.4371 296.704 50.7251 296.392C51.0211 296.08 51.1691 295.664 51.1691 295.144C51.1691 294.6 51.0251 294.168 50.7371 293.848C50.4571 293.52 50.0411 293.356 49.4891 293.356ZM53.9363 293.512C53.9363 292.128 54.1683 291.048 54.6323 290.272C55.1043 289.488 55.9123 289.096 57.0563 289.096C58.2003 289.096 59.0043 289.488 59.4683 290.272C59.9403 291.048 60.1763 292.128 60.1763 293.512C60.1763 294.912 59.9403 296.008 59.4683 296.8C59.0043 297.584 58.2003 297.976 57.0563 297.976C55.9123 297.976 55.1043 297.584 54.6323 296.8C54.1683 296.008 53.9363 294.912 53.9363 293.512ZM58.8323 293.512C58.8323 292.864 58.7883 292.316 58.7003 291.868C58.6203 291.42 58.4523 291.056 58.1963 290.776C57.9403 290.488 57.5603 290.344 57.0563 290.344C56.5523 290.344 56.1723 290.488 55.9163 290.776C55.6603 291.056 55.4883 291.42 55.4003 291.868C55.3203 292.316 55.2803 292.864 55.2803 293.512C55.2803 294.184 55.3203 294.748 55.4003 295.204C55.4803 295.66 55.6483 296.028 55.9043 296.308C56.1683 296.588 56.5523 296.728 57.0563 296.728C57.5603 296.728 57.9403 296.588 58.1963 296.308C58.4603 296.028 58.6323 295.66 58.7123 295.204C58.7923 294.748 58.8323 294.184 58.8323 293.512Z" fill="#B5B5C3"/>
<path d="M46.2131 351.412C46.2611 350.668 46.5451 350.088 47.0651 349.672C47.5931 349.256 48.2651 349.048 49.0811 349.048C49.6411 349.048 50.1251 349.148 50.5331 349.348C50.9411 349.548 51.2491 349.82 51.4571 350.164C51.6651 350.508 51.7691 350.896 51.7691 351.328C51.7691 351.824 51.6371 352.248 51.3731 352.6C51.1091 352.952 50.7931 353.188 50.4251 353.308V353.356C50.8971 353.5 51.2651 353.764 51.5291 354.148C51.7931 354.524 51.9251 355.008 51.9251 355.6C51.9251 356.072 51.8171 356.492 51.6011 356.86C51.3851 357.228 51.0651 357.52 50.6411 357.736C50.2171 357.944 49.7091 358.048 49.1171 358.048C48.2531 358.048 47.5411 357.828 46.9811 357.388C46.4291 356.94 46.1331 356.3 46.0931 355.468H47.4131C47.4451 355.892 47.6091 356.24 47.9051 356.512C48.2011 356.776 48.6011 356.908 49.1051 356.908C49.5931 356.908 49.9691 356.776 50.2331 356.512C50.4971 356.24 50.6291 355.892 50.6291 355.468C50.6291 354.908 50.4491 354.512 50.0891 354.28C49.7371 354.04 49.1931 353.92 48.4571 353.92H48.1451V352.792H48.4691C49.1171 352.784 49.6091 352.676 49.9451 352.468C50.2891 352.26 50.4611 351.932 50.4611 351.484C50.4611 351.1 50.3371 350.796 50.0891 350.572C49.8411 350.34 49.4891 350.224 49.0331 350.224C48.5851 350.224 48.2371 350.34 47.9891 350.572C47.7411 350.796 47.5931 351.076 47.5451 351.412H46.2131ZM53.3621 353.512C53.3621 352.128 53.5941 351.048 54.0581 350.272C54.5301 349.488 55.3381 349.096 56.4821 349.096C57.6261 349.096 58.4301 349.488 58.8941 350.272C59.3661 351.048 59.6021 352.128 59.6021 353.512C59.6021 354.912 59.3661 356.008 58.8941 356.8C58.4301 357.584 57.6261 357.976 56.4821 357.976C55.3381 357.976 54.5301 357.584 54.0581 356.8C53.5941 356.008 53.3621 354.912 53.3621 353.512ZM58.2581 353.512C58.2581 352.864 58.2141 352.316 58.1261 351.868C58.0461 351.42 57.8781 351.056 57.6221 350.776C57.3661 350.488 56.9861 350.344 56.4821 350.344C55.9781 350.344 55.5981 350.488 55.3421 350.776C55.0861 351.056 54.9141 351.42 54.8261 351.868C54.7461 352.316 54.7061 352.864 54.7061 353.512C54.7061 354.184 54.7461 354.748 54.8261 355.204C54.9061 355.66 55.0741 356.028 55.3301 356.308C55.5941 356.588 55.9781 356.728 56.4821 356.728C56.9861 356.728 57.3661 356.588 57.6221 356.308C57.8861 356.028 58.0581 355.66 58.1381 355.204C58.2181 354.748 58.2581 354.184 58.2581 353.512Z" fill="#B5B5C3"/>
<path d="M46.2371 413.512C46.2371 412.128 46.4691 411.048 46.9331 410.272C47.4051 409.488 48.2131 409.096 49.3571 409.096C50.5011 409.096 51.3051 409.488 51.7691 410.272C52.2411 411.048 52.4771 412.128 52.4771 413.512C52.4771 414.912 52.2411 416.008 51.7691 416.8C51.3051 417.584 50.5011 417.976 49.3571 417.976C48.2131 417.976 47.4051 417.584 46.9331 416.8C46.4691 416.008 46.2371 414.912 46.2371 413.512ZM51.1331 413.512C51.1331 412.864 51.0891 412.316 51.0011 411.868C50.9211 411.42 50.7531 411.056 50.4971 410.776C50.2411 410.488 49.8611 410.344 49.3571 410.344C48.8531 410.344 48.4731 410.488 48.2171 410.776C47.9611 411.056 47.7891 411.42 47.7011 411.868C47.6211 412.316 47.5811 412.864 47.5811 413.512C47.5811 414.184 47.6211 414.748 47.7011 415.204C47.7811 415.66 47.9491 416.028 48.2051 416.308C48.4691 416.588 48.8531 416.728 49.3571 416.728C49.8611 416.728 50.2411 416.588 50.4971 416.308C50.7611 416.028 50.9331 415.66 51.0131 415.204C51.0931 414.748 51.1331 414.184 51.1331 413.512Z" fill="#B5B5C3"/>
<path d="M160.762 297H188.35C190.559 297 192.35 298.791 192.35 301V410C192.35 412.209 190.559 414 188.35 414H160.762V297Z" fill="#E5EAEE"/>
<rect x="145.655" y="267" width="19.2271" height="147" rx="4" fill="#FFA800"/>
<path d="M278.872 248H306.459C308.669 248 310.459 249.791 310.459 252V410C310.459 412.209 308.669 414 306.459 414H278.872V248Z" fill="#E5EAEE"/>
<rect x="263.765" y="218" width="19.2271" height="196" rx="4" fill="#FFA800"/>
<path d="M396.981 197H424.568C426.777 197 428.568 198.791 428.568 201V410C428.568 412.209 426.777 414 424.568 414H396.981V197Z" fill="#E5EAEE"/>
<rect x="381.874" y="167" width="19.2271" height="247" rx="4" fill="#FFA800"/>
<path d="M515.091 236.535H542.678C544.887 236.535 546.678 238.326 546.678 240.535V410C546.678 412.209 544.887 414 542.678 414H515.091V236.535Z" fill="#E5EAEE"/>
<rect x="499.984" y="207" width="19.2271" height="207" rx="4" fill="#FFA800"/>
<path d="M633.2 205.671H660.787C662.996 205.671 664.787 207.462 664.787 209.671V410C664.787 412.209 662.996 414 660.787 414H633.2V205.671Z" fill="#E5EAEE"/>
<rect x="618.093" y="176" width="19.2271" height="238" rx="4" fill="#FFA800"/>
<path d="M751.31 157H778.897C781.106 157 782.897 158.791 782.897 161V410C782.897 412.209 781.106 414 778.897 414H751.31V157Z" fill="#E5EAEE"/>
<rect x="736.203" y="127" width="19.227" height="287" rx="4" fill="#FFA800"/>
<rect x="797" y="35" width="53" height="34" rx="12" fill="#464E5F"/>
<path d="M814.756 47.624H811.828V56H814.756C817.432 56 819.172 54.356 819.172 51.824C819.172 49.28 817.432 47.624 814.756 47.624ZM813.508 54.572V49.04H814.696C816.46 49.04 817.456 50.084 817.456 51.824C817.456 53.564 816.46 54.572 814.696 54.572H813.508ZM819.998 52.652C819.998 54.728 821.342 56.108 823.022 56.108C824.078 56.108 824.834 55.604 825.23 55.028V56H826.922V49.352H825.23V50.3C824.834 49.748 824.102 49.244 823.034 49.244C821.342 49.244 819.998 50.576 819.998 52.652ZM825.23 52.676C825.23 53.936 824.39 54.632 823.466 54.632C822.566 54.632 821.714 53.912 821.714 52.652C821.714 51.392 822.566 50.72 823.466 50.72C824.39 50.72 825.23 51.416 825.23 52.676ZM831.394 53.996L829.678 49.352H827.794L830.458 55.832L829.018 59.144H830.806L834.922 49.352H833.134L831.394 53.996Z" fill="white"/>
<path d="M750.52 56.012L752.488 56L754.132 50.036L755.704 56H757.684L760.024 47.624H758.212L756.724 54.092L755.116 47.624H753.244L751.54 54.128L750.064 47.624H748.264L750.52 56.012ZM763.977 50.624C764.841 50.624 765.537 51.176 765.561 52.052H762.405C762.537 51.14 763.173 50.624 763.977 50.624ZM767.133 53.912H765.321C765.105 54.356 764.709 54.716 763.989 54.716C763.149 54.716 762.477 54.164 762.393 53.18H767.253C767.289 52.964 767.301 52.748 767.301 52.532C767.301 50.552 765.945 49.244 764.025 49.244C762.057 49.244 760.689 50.576 760.689 52.676C760.689 54.764 762.093 56.108 764.025 56.108C765.669 56.108 766.773 55.136 767.133 53.912ZM771.383 50.624C772.247 50.624 772.943 51.176 772.967 52.052H769.811C769.943 51.14 770.579 50.624 771.383 50.624ZM774.539 53.912H772.727C772.511 54.356 772.115 54.716 771.395 54.716C770.555 54.716 769.883 54.164 769.799 53.18H774.659C774.695 52.964 774.707 52.748 774.707 52.532C774.707 50.552 773.351 49.244 771.431 49.244C769.463 49.244 768.095 50.576 768.095 52.676C768.095 54.764 769.499 56.108 771.431 56.108C773.075 56.108 774.179 55.136 774.539 53.912ZM775.933 56H777.613V53.168L779.869 56H782.053L779.101 52.688L782.029 49.352H779.845L777.613 52.172V47.12H775.933V56Z" fill="#B5B5C3"/>
<path d="M680.828 56H682.508V50.552L684.764 56H686.036L688.28 50.552V56H689.96V47.624H688.064L685.4 53.852L682.736 47.624H680.828V56ZM698.041 52.676C698.041 50.576 696.541 49.244 694.621 49.244C692.701 49.244 691.201 50.576 691.201 52.676C691.201 54.764 692.653 56.108 694.573 56.108C696.505 56.108 698.041 54.764 698.041 52.676ZM692.905 52.676C692.905 51.344 693.709 50.708 694.597 50.708C695.485 50.708 696.313 51.344 696.313 52.676C696.313 53.996 695.461 54.644 694.573 54.644C693.673 54.644 692.905 53.996 692.905 52.676ZM703.929 56H705.609V52.1C705.609 50.264 704.505 49.256 702.957 49.256C702.105 49.256 701.385 49.616 700.953 50.18V49.352H699.273V56H700.953V52.328C700.953 51.26 701.541 50.684 702.453 50.684C703.341 50.684 703.929 51.26 703.929 52.328V56ZM707.471 53.936C707.471 55.46 708.323 56 709.595 56H710.651V54.584H709.871C709.343 54.584 709.163 54.392 709.163 53.948V50.732H710.651V49.352H709.163V47.708H707.471V49.352H706.679V50.732H707.471V53.936ZM711.859 56H713.539V52.328C713.539 51.26 714.127 50.684 715.039 50.684C715.927 50.684 716.515 51.26 716.515 52.328V56H718.195V52.1C718.195 50.264 717.103 49.256 715.603 49.256C714.715 49.256 713.971 49.616 713.539 50.18V47.12H711.859V56Z" fill="#B5B5C3"/>
<path d="M36.992 35.234C36.992 36.476 36.272 37.358 34.67 37.358H32.402V33.164H34.67C36.272 33.164 36.992 33.974 36.992 35.234ZM30.35 31.49V44H32.402V38.996H33.968L36.848 44H39.296L36.2 38.816C38.306 38.294 39.098 36.71 39.098 35.234C39.098 33.2 37.64 31.49 34.67 31.49H30.35ZM45.899 35.648C47.429 35.648 48.635 36.62 48.671 38.15H43.181C43.397 36.584 44.513 35.648 45.899 35.648ZM50.543 41.048H48.329C47.951 41.822 47.249 42.434 45.989 42.434C44.477 42.434 43.307 41.444 43.163 39.806H50.741C50.795 39.464 50.813 39.14 50.813 38.798C50.813 35.882 48.815 33.92 45.989 33.92C43.055 33.92 41.039 35.918 41.039 39.032C41.039 42.146 43.145 44.162 45.989 44.162C48.419 44.162 49.985 42.776 50.543 41.048ZM52.1484 39.032C52.1484 42.146 54.1644 44.162 57.0084 44.162C59.4384 44.162 61.0224 42.812 61.5804 40.868H59.3664C58.9884 41.894 58.2324 42.434 57.0084 42.434C55.3524 42.434 54.2544 41.21 54.2544 39.032C54.2544 36.872 55.3524 35.648 57.0084 35.648C58.2324 35.648 59.0244 36.26 59.3664 37.214H61.5804C61.0224 35.126 59.4384 33.92 57.0084 33.92C54.1644 33.92 52.1484 35.936 52.1484 39.032ZM67.8014 35.648C69.3314 35.648 70.5374 36.62 70.5734 38.15H65.0834C65.2994 36.584 66.4154 35.648 67.8014 35.648ZM72.4454 41.048H70.2314C69.8534 41.822 69.1514 42.434 67.8914 42.434C66.3794 42.434 65.2094 41.444 65.0654 39.806H72.6434C72.6974 39.464 72.7154 39.14 72.7154 38.798C72.7154 35.882 70.7174 33.92 67.8914 33.92C64.9574 33.92 62.9414 35.918 62.9414 39.032C62.9414 42.146 65.0474 44.162 67.8914 44.162C70.3214 44.162 71.8874 42.776 72.4454 41.048ZM81.7728 44H83.8068V38.15C83.8068 35.378 82.0608 33.92 79.7388 33.92C78.5508 33.92 77.4528 34.406 76.7868 35.216V34.082H74.7348V44H76.7868V38.456C76.7868 36.638 77.7768 35.702 79.2888 35.702C80.7828 35.702 81.7728 36.638 81.7728 38.456V44ZM86.7482 41.246C86.7482 43.262 87.8462 44 89.6102 44H91.2302V42.29H89.9702C89.1062 42.29 88.8182 41.984 88.8182 41.246V35.756H91.2302V34.082H88.8182V31.616H86.7482V34.082H85.5782V35.756H86.7482V41.246ZM106.239 40.454C106.239 35.882 99.6153 37.646 99.6153 34.82C99.6153 33.614 100.533 33.038 101.721 33.074C103.017 33.11 103.755 33.884 103.827 34.73H106.095C105.915 32.588 104.223 31.328 101.829 31.328C99.2733 31.328 97.5273 32.696 97.5273 34.892C97.5273 39.5 104.169 37.538 104.169 40.562C104.169 41.624 103.359 42.398 101.919 42.398C100.497 42.398 99.7773 41.57 99.6873 40.544H97.4913C97.4913 42.758 99.4173 44.126 101.919 44.126C104.709 44.126 106.239 42.326 106.239 40.454ZM108.985 41.246C108.985 43.262 110.083 44 111.847 44H113.467V42.29H112.207C111.343 42.29 111.055 41.984 111.055 41.246V35.756H113.467V34.082H111.055V31.616H108.985V34.082H107.815V35.756H108.985V41.246ZM114.674 38.996C114.674 42.056 116.744 44.162 119.318 44.162C120.974 44.162 122.162 43.37 122.792 42.524V44H124.862V34.082H122.792V35.522C122.18 34.712 121.028 33.92 119.354 33.92C116.744 33.92 114.674 35.936 114.674 38.996ZM122.792 39.032C122.792 41.174 121.334 42.38 119.786 42.38C118.256 42.38 116.78 41.138 116.78 38.996C116.78 36.854 118.256 35.702 119.786 35.702C121.334 35.702 122.792 36.908 122.792 39.032ZM127.881 41.246C127.881 43.262 128.979 44 130.743 44H132.363V42.29H131.103C130.239 42.29 129.951 41.984 129.951 41.246V35.756H132.363V34.082H129.951V31.616H127.881V34.082H126.711V35.756H127.881V41.246ZM141.652 41.228C141.544 37.646 135.946 38.762 135.946 36.764C135.946 36.098 136.522 35.648 137.62 35.648C138.736 35.648 139.402 36.242 139.474 37.106H141.526C141.418 35.126 139.942 33.92 137.692 33.92C135.352 33.92 133.876 35.198 133.876 36.782C133.876 40.418 139.636 39.302 139.636 41.246C139.636 41.93 139.006 42.434 137.818 42.434C136.684 42.434 135.91 41.768 135.838 40.958H133.714C133.804 42.758 135.478 44.162 137.854 44.162C140.194 44.162 141.652 42.902 141.652 41.228Z" fill="#212121"/>
<path d="M29.9 71H31.268V65.288L33.824 71H34.772L37.316 65.288V71H38.684V62.66H37.22L34.304 69.2L31.376 62.66H29.9V71ZM46.782 67.688C46.782 65.612 45.294 64.28 43.41 64.28C41.526 64.28 40.038 65.612 40.038 67.688C40.038 69.764 41.466 71.108 43.35 71.108C45.246 71.108 46.782 69.764 46.782 67.688ZM41.43 67.688C41.43 66.188 42.354 65.468 43.386 65.468C44.406 65.468 45.378 66.188 45.378 67.688C45.378 69.188 44.37 69.92 43.35 69.92C42.318 69.92 41.43 69.188 41.43 67.688ZM49.5024 67.52C49.5024 66.116 50.1264 65.696 51.1344 65.696H51.4824V64.28C50.5464 64.28 49.8864 64.688 49.5024 65.348V64.388H48.1344V71H49.5024V67.52ZM55.5238 65.432C56.5438 65.432 57.3478 66.08 57.3718 67.1H53.7118C53.8558 66.056 54.5998 65.432 55.5238 65.432ZM58.6198 69.032H57.1438C56.8918 69.548 56.4238 69.956 55.5838 69.956C54.5758 69.956 53.7958 69.296 53.6998 68.204H58.7518C58.7878 67.976 58.7998 67.76 58.7998 67.532C58.7998 65.588 57.4678 64.28 55.5838 64.28C53.6278 64.28 52.2838 65.612 52.2838 67.688C52.2838 69.764 53.6878 71.108 55.5838 71.108C57.2038 71.108 58.2478 70.184 58.6198 69.032ZM63.4793 69.164C63.4793 70.508 64.2113 71 65.3873 71H66.4673V69.86H65.6273C65.0513 69.86 64.8593 69.656 64.8593 69.164V65.504H66.4673V64.388H64.8593V62.744H63.4793V64.388H62.6993V65.504H63.4793V69.164ZM67.7281 71H69.0961V67.304C69.0961 66.092 69.7561 65.468 70.7641 65.468C71.7601 65.468 72.4201 66.092 72.4201 67.304V71H73.7761V67.1C73.7761 65.252 72.6241 64.28 71.1481 64.28C70.2961 64.28 69.5521 64.604 69.0961 65.156V62.12H67.7281V71ZM75.0651 67.664C75.0651 69.704 76.4451 71.108 78.1611 71.108C79.2651 71.108 80.0571 70.58 80.4771 70.016V71H81.8571V64.388H80.4771V65.348C80.0691 64.808 79.3011 64.28 78.1851 64.28C76.4451 64.28 75.0651 65.624 75.0651 67.664ZM80.4771 67.688C80.4771 69.116 79.5051 69.92 78.4731 69.92C77.4531 69.92 76.4691 69.092 76.4691 67.664C76.4691 66.236 77.4531 65.468 78.4731 65.468C79.5051 65.468 80.4771 66.272 80.4771 67.688ZM88.3459 71H89.7019V67.1C89.7019 65.252 88.5379 64.28 86.9899 64.28C86.1979 64.28 85.4659 64.604 85.0219 65.144V64.388H83.6539V71H85.0219V67.304C85.0219 66.092 85.6819 65.468 86.6899 65.468C87.6859 65.468 88.3459 66.092 88.3459 67.304V71ZM98.5601 71H99.9041V69.176H101.02V67.988H99.9041V62.36H98.2481L94.2161 68.144V69.176H98.5601V71ZM95.7881 67.988L98.6201 63.752V67.988H95.7881ZM102.154 66.512C102.154 69.056 102.826 70.976 105.274 70.976C107.722 70.976 108.394 69.056 108.394 66.512C108.394 64.016 107.722 62.096 105.274 62.096C102.826 62.096 102.154 64.016 102.154 66.512ZM107.05 66.512C107.05 68.228 106.87 69.728 105.274 69.728C103.678 69.728 103.498 68.228 103.498 66.512C103.498 64.88 103.678 63.344 105.274 63.344C106.87 63.344 107.05 64.88 107.05 66.512ZM109.841 66.512C109.841 69.056 110.513 70.976 112.961 70.976C115.409 70.976 116.081 69.056 116.081 66.512C116.081 64.016 115.409 62.096 112.961 62.096C110.513 62.096 109.841 64.016 109.841 66.512ZM114.737 66.512C114.737 68.228 114.557 69.728 112.961 69.728C111.365 69.728 111.185 68.228 111.185 66.512C111.185 64.88 111.365 63.344 112.961 63.344C114.557 63.344 114.737 64.88 114.737 66.512ZM120.457 63.608V66.092H118.033V67.244H120.457V69.728H121.729V67.244H124.153V66.092H121.729V63.608H120.457ZM134.084 71H135.44V67.1C135.44 65.252 134.276 64.28 132.728 64.28C131.936 64.28 131.204 64.604 130.76 65.144V64.388H129.392V71H130.76V67.304C130.76 66.092 131.42 65.468 132.428 65.468C133.424 65.468 134.084 66.092 134.084 67.304V71ZM139.969 65.432C140.989 65.432 141.793 66.08 141.817 67.1H138.157C138.301 66.056 139.045 65.432 139.969 65.432ZM143.065 69.032H141.589C141.337 69.548 140.869 69.956 140.029 69.956C139.021 69.956 138.241 69.296 138.145 68.204H143.197C143.233 67.976 143.245 67.76 143.245 67.532C143.245 65.588 141.913 64.28 140.029 64.28C138.073 64.28 136.729 65.612 136.729 67.688C136.729 69.764 138.133 71.108 140.029 71.108C141.649 71.108 142.693 70.184 143.065 69.032ZM145.875 71H147.315L148.647 66.116L149.979 71H151.419L153.471 64.388H152.127L150.759 69.68L149.415 64.388H147.987L146.583 69.704L145.203 64.388H143.811L145.875 71ZM166.983 71H168.339V67.1C168.339 65.252 167.163 64.28 165.615 64.28C164.655 64.28 163.719 64.784 163.311 65.588C162.855 64.724 161.979 64.28 160.935 64.28C160.143 64.28 159.423 64.604 158.979 65.144V64.388H157.611V71H158.979V67.304C158.979 66.092 159.639 65.468 160.647 65.468C161.643 65.468 162.303 66.092 162.303 67.304V71H163.659V67.304C163.659 66.092 164.319 65.468 165.327 65.468C166.323 65.468 166.983 66.092 166.983 67.304V71ZM172.864 65.432C173.884 65.432 174.688 66.08 174.712 67.1H171.052C171.196 66.056 171.94 65.432 172.864 65.432ZM175.96 69.032H174.484C174.232 69.548 173.764 69.956 172.924 69.956C171.916 69.956 171.136 69.296 171.04 68.204H176.092C176.128 67.976 176.14 67.76 176.14 67.532C176.14 65.588 174.808 64.28 172.924 64.28C170.968 64.28 169.624 65.612 169.624 67.688C169.624 69.764 171.028 71.108 172.924 71.108C174.544 71.108 175.588 70.184 175.96 69.032ZM186.858 71H188.214V67.1C188.214 65.252 187.038 64.28 185.49 64.28C184.53 64.28 183.594 64.784 183.186 65.588C182.73 64.724 181.854 64.28 180.81 64.28C180.018 64.28 179.298 64.604 178.854 65.144V64.388H177.486V71H178.854V67.304C178.854 66.092 179.514 65.468 180.522 65.468C181.518 65.468 182.178 66.092 182.178 67.304V71H183.534V67.304C183.534 66.092 184.194 65.468 185.202 65.468C186.198 65.468 186.858 66.092 186.858 67.304V71ZM191.323 65.372V62.12H189.955V71H191.323V70.04C191.755 70.616 192.535 71.108 193.627 71.108C195.367 71.108 196.735 69.704 196.735 67.664C196.735 65.624 195.379 64.28 193.627 64.28C192.583 64.28 191.755 64.772 191.323 65.372ZM195.343 67.664C195.343 69.092 194.359 69.92 193.327 69.92C192.307 69.92 191.323 69.116 191.323 67.688C191.323 66.272 192.307 65.468 193.327 65.468C194.359 65.468 195.343 66.236 195.343 67.664ZM200.872 65.432C201.892 65.432 202.696 66.08 202.72 67.1H199.06C199.204 66.056 199.948 65.432 200.872 65.432ZM203.967 69.032H202.492C202.24 69.548 201.772 69.956 200.932 69.956C199.924 69.956 199.144 69.296 199.048 68.204H204.1C204.136 67.976 204.148 67.76 204.148 67.532C204.148 65.588 202.816 64.28 200.932 64.28C198.976 64.28 197.632 65.612 197.632 67.688C197.632 69.764 199.036 71.108 200.932 71.108C202.552 71.108 203.596 70.184 203.967 69.032ZM206.862 67.52C206.862 66.116 207.486 65.696 208.494 65.696H208.842V64.28C207.906 64.28 207.246 64.688 206.862 65.348V64.388H205.494V71H206.862V67.52ZM215.031 69.152C214.959 66.764 211.227 67.508 211.227 66.176C211.227 65.732 211.611 65.432 212.343 65.432C213.087 65.432 213.531 65.828 213.579 66.404H214.947C214.875 65.084 213.891 64.28 212.391 64.28C210.831 64.28 209.847 65.132 209.847 66.188C209.847 68.612 213.687 67.868 213.687 69.164C213.687 69.62 213.267 69.956 212.475 69.956C211.719 69.956 211.203 69.512 211.155 68.972H209.739C209.799 70.172 210.915 71.108 212.499 71.108C214.059 71.108 215.031 70.268 215.031 69.152Z" fill="#80808F"/>
</svg>
